<?xml version="1.0" standalone="no"?>
<!DOCTYPE svg PUBLIC "-//W3C//DTD SVG 1.1//EN" "http://www.w3.org/Graphics/SVG/1.1/DTD/svg11.dtd">
<svg width="39mm" height="39mm" viewBox="4 -32 39 39" xmlns="http://www.w3.org/2000/svg" version="1.1">
<title>OpenSCAD Model</title>
<path d="
M 17.4977,5.5055 L 17.867,4.86334 L 18.2201,4.23723 L 18.477,3.73955 L 18.7178,3.24188 L 18.9586,2.80842
 L 19.1834,2.37496 L 19.4563,1.90939 L 19.8577,1.68463 L 20.0022,1.62042 L 20.1306,1.5562 L 20.7246,1.50804
 L 21.3989,1.5562 L 22.0892,1.60436 L 23.534,1.60436 L 24.2886,1.50804 L 25.0431,1.41171 L 26.488,1.05852
 L 27.082,0.849821 L 27.676,0.641117 L 28.3342,0.352145 L 28.9924,0.0631704 L 30.3089,-0.755587 L 31.3042,-1.44591
 L 32.1711,-2.07202 L 32.4922,-2.34494 L 32.7972,-2.61786 L 33.0381,-2.71418 L 33.2628,-2.81051 L 33.6642,-2.81051
 L 33.8889,-2.73024 L 34.1137,-2.66602 L 34.804,-2.34494 L 35.8957,-1.94359 L 36.6663,-1.52618 L 37.6135,-1.22116
 L 38.1111,-1.22116 L 38.4804,-1.68672 L 38.8496,-2.16835 L 39.3955,-3.03526 L 39.8932,-3.93429 L 40.3908,-4.89754
 L 40.5514,-5.34705 L 40.7119,-5.79657 L 40.6637,-6.16581 L 40.5674,-6.43873 L 40.455,-6.53505 L 40.3427,-6.61532
 L 39.845,-6.59927 L 39.3473,-6.56716 L 37.8382,-6.80797 L 36.1686,-7.30565 L 35.5585,-7.59462 L 34.9324,-7.8836
 L 34.2582,-8.34917 L 33.5839,-8.79868 L 32.9899,-9.34452 L 32.3959,-9.89036 L 31.4487,-11.1586 L 30.8547,-12.154
 L 30.4373,-13.3901 L 30.2125,-14.0484 L 29.9878,-14.7066 L 29.5383,-15.8785 L 28.9443,-17.0184 L 28.6232,-17.5
 L 28.3021,-17.9656 L 27.965,-18.3187 L 27.6278,-18.6559 L 26.9054,-19.2499 L 26.1669,-19.6512 L 25.9903,-19.8118
 L 25.8137,-19.9723 L 25.7174,-20.4379 L 25.8619,-20.8232 L 26.0064,-20.9837 L 26.1509,-21.1443 L 26.5362,-21.2406
 L 27.0338,-21.1443 L 27.3068,-20.9837 L 27.5797,-20.8232 L 28.7195,-20.1007 L 29.5864,-19.282 L 29.9236,-18.7843
 L 30.2607,-18.2866 L 30.9831,-17.3394 L 31.2079,-16.8739 L 31.4487,-16.4244 L 31.6414,-15.9106 L 31.8501,-15.3808
 L 32.123,-14.1607 L 32.3477,-13.5828 L 32.5725,-13.0209 L 33.2628,-11.8329 L 34.1137,-10.661 L 35.0769,-9.89036
 L 35.687,-9.56927 L 36.297,-9.24819 L 37.9345,-8.65419 L 39.1226,-8.39733 L 39.6844,-8.36522 L 40.2463,-8.34917
 L 40.8885,-8.36522 L 41.5307,-8.39733 L 41.8839,-8.42943 L 42.2531,-8.4776 L 42.3655,-9.20003 L 42.4779,-9.93852
 L 42.5742,-10.4844 L 42.6544,-11.0302 L 42.6544,-12.3466 L 42.6223,-13.8397 L 42.5742,-14.4337 L 42.526,-15.0116
 L 42.2531,-16.3441 L 41.8357,-17.9656 L 40.9046,-17.9013 L 39.9734,-17.8371 L 37.9345,-17.8371 L 36.9392,-17.8853
 L 36.297,-18.0619 L 36.1204,-18.2224 L 35.9438,-18.383 L 35.5746,-18.7843 L 35.3017,-19.282 L 35.0288,-19.7797
 L 34.5793,-20.6466 L 34.1458,-21.1924 L 33.7123,-21.7383 L 33.311,-22.2359 L 32.8936,-22.7336 L 32.4601,-23.1189
 L 32.0266,-23.5042 L 31.4487,-23.9216 L 30.8547,-24.323 L 30.2446,-24.6922 L 29.6185,-25.0615 L 28.9282,-25.4468
 L 28.2218,-25.8321 L 27.2265,-26.3297 L 26.3114,-26.6026 L 25.894,-26.7792 L 25.5408,-27.1485 L 25.3482,-28.6415
 L 25.316,-29.4603 L 25.2679,-30.279 L 25.1716,-31.2262 L 24.9468,-31.5473 L 24.722,-31.6436 L 24.4973,-31.7239
 L 23.8391,-31.756 L 23.1809,-31.7721 L 21.9929,-31.7721 L 20.7727,-31.6918 L 19.5847,-31.451 L 19.376,-31.2262
 L 19.1834,-31.0015 L 19.2637,-30.568 L 19.36,-30.1345 L 19.8095,-28.5934 L 20.2751,-27.1485 L 20.3553,-26.6669
 L 20.4517,-26.1852 L 20.3072,-24.917 L 20.2751,-23.9698 L 20.1787,-23.4721 L 20.0824,-22.9584 L 19.8577,-21.963
 L 19.2637,-20.9677 L 18.4449,-19.8278 L 17.4977,-18.9288 L 16.5024,-17.9656 L 16.1973,-17.5642 L 15.9084,-17.1468
 L 15.3144,-16.0712 L 14.7364,-14.6584 L 14.5919,-13.9681 L 14.4635,-13.2938 L 14.4314,-12.764 L 14.4153,-12.2503
 L 14.2227,-12.0255 L 14.0461,-11.8168 L 13.4039,-11.8008 L 13.1952,-11.865 L 12.9705,-11.9132 L 12.8099,-12.154
 L 12.6333,-12.3787 L 12.6333,-13.6149 L 12.7778,-14.2892 L 12.9062,-14.9795 L 13.115,-15.5574 L 13.3237,-16.1514
 L 13.6447,-16.7454 L 13.9498,-17.3394 L 14.319,-17.8853 L 14.6882,-18.4311 L 15.0735,-18.8485 L 15.4588,-19.282
 L 16.2776,-20.0526 L 17.1285,-20.8713 L 17.7706,-21.7864 L 18.188,-22.7336 L 18.5894,-23.9216 L 18.6857,-24.4675
 L 18.766,-25.0133 L 18.8463,-25.5752 L 18.9105,-26.1371 L 18.8463,-26.6669 L 18.766,-27.1806 L 18.6536,-27.598
 L 18.5412,-27.9993 L 17.9954,-29.2837 L 17.5459,-30.3272 L 17.0964,-31.1459 L 16.7271,-31.451 L 16.0047,-31.2102
 L 15.2662,-30.9533 L 13.0026,-29.8295 L 11.1885,-28.8181 L 10.3697,-28.1438 L 9.55095,-27.4535 L 8.68402,-26.6508
 L 9.1817,-25.7839 L 9.69543,-24.917 L 10.4981,-23.3276 L 10.9637,-22.2359 L 11.1885,-21.7864 L 11.1885,-21.369
 L 10.9798,-21.1764 L 10.7711,-20.9677 L 10.0486,-19.7797 L 9.45462,-18.383 L 8.87667,-16.8739 L 8.68402,-16.1354
 L 8.50743,-15.3808 L 8.39505,-14.7066 L 8.28267,-14.0163 L 8.09002,-12.2503 L 8.13819,-11.4797 L 8.18635,-10.7091
 L 8.45927,-9.29636 L 8.50743,-9.08765 L 8.55559,-8.895 L 8.36294,-8.52576 L 7.96159,-8.07625 L 6.64516,-7.03273
 L 5.0558,-5.89289 L 4.8471,-5.7163 L 4.65445,-5.52365 L 4.65445,-5.07413 L 4.95948,-4.31959 L 5.28056,-3.58111
 L 5.66586,-2.89078 L 6.05116,-2.21651 L 6.48462,-1.57435 L 6.91808,-0.948236 L 7.2231,-0.739533 L 7.54419,-0.546885
 L 7.80105,-0.627154 L 8.07397,-0.723479 L 8.68402,-1.57435 L 8.89273,-1.84726 L 9.10143,-2.12018 L 9.87203,-3.03526
 L 10.6426,-3.70954 L 11.4614,-4.25537 L 12.2801,-4.70489 L 13.3237,-5.21862 L 13.8695,-5.36311 L 14.4153,-5.52365
 L 15.4588,-5.66814 L 16.406,-5.7484 L 17.4495,-5.7484 L 18.6857,-5.66814 L 19.1834,-5.52365 L 19.6811,-5.39522
 L 20.1306,-5.25073 L 20.5801,-5.1223 L 21.1259,-5.02597 L 21.6718,-4.9457 L 22.635,-4.9457 L 23.5822,-5.07413
 L 24.2244,-5.23467 L 24.8505,-5.39522 L 25.2679,-5.50759 L 25.6692,-5.61997 L 26.0866,-5.78051 L 26.488,-5.94105
 L 26.6967,-6.02133 L 26.9054,-6.11765 L 27.3549,-6.06949 L 27.7081,-5.73235 L 27.7563,-5.28284 L 27.6278,-4.80121
 L 27.1783,-4.39986 L 26.2632,-3.90219 L 25.1234,-3.58111 L 24.5133,-3.42057 L 23.9033,-3.26002 L 22.5869,-3.1637
 L 22.0571,-3.19581 L 21.5433,-3.21186 L 20.2751,-3.43662 L 19.0871,-3.7577 L 18.4128,-3.90219 L 17.7225,-4.03062
 L 16.5505,-4.07878 L 15.3625,-3.98246 L 14.7685,-3.87008 L 14.1906,-3.7577 L 13.2273,-3.35635 L 12.7457,-3.09948
 L 12.2801,-2.84262 L 11.7985,-2.53759 L 11.3169,-2.21651 L 10.6908,-1.52618 L 10.3697,-1.17299 L 10.0486,-0.80375
 L 9.55095,0.0631704 L 9.29408,0.512686 L 9.05327,0.962199 L 8.82851,1.50804 L 9.3904,2.11809 L 9.9523,2.72815
 L 10.5463,3.19372 L 11.1403,3.64323 L 11.6861,4.01247 L 12.232,4.36566 L 13.4039,4.9115 L 14.5919,5.45734
 L 15.9084,6.05134 L 16.39,6.22794 L 16.8716,6.40453 z
M 22.3898,-9.18755 L 22.3506,-9.18858 L 22.207,-9.19985 L 22.1679,-9.20292 L 22.077,-9.2149 L 21.9862,-9.22688
 L 21.806,-9.26026 L 21.7679,-9.26943 L 21.7057,-9.28436 L 21.6773,-9.29119 L 21.6279,-9.30307 L 21.54,-9.32908
 L 21.4898,-9.34395 L 21.4522,-9.3551 L 21.3165,-9.40314 L 21.2794,-9.41625 L 21.1674,-9.46262 L 21.1101,-9.48632
 L 20.9448,-9.56522 L 20.9103,-9.58397 L 20.8642,-9.60898 L 20.7837,-9.65268 L 20.7056,-9.7006 L 20.6275,-9.74847
 L 20.552,-9.80035 L 20.4765,-9.85223 L 20.3623,-9.93989 L 20.3311,-9.9638 L 20.1918,-10.0828 L 20.1822,-10.0918
 L 20.1253,-10.1459 L 20.0589,-10.2089 L 20.0318,-10.2374 L 19.9327,-10.3418 L 19.8732,-10.4115 L 19.8137,-10.4812
 L 19.7348,-10.584 L 19.7022,-10.6265 L 19.6787,-10.6606 L 19.5984,-10.7775 L 19.5962,-10.7811 L 19.5559,-10.8468
 L 19.5232,-10.9003 L 19.5026,-10.9338 L 19.4589,-11.0143 L 19.4152,-11.0948 L 19.3877,-11.1525 L 19.3363,-11.2602
 L 19.2812,-11.3932 L 19.2662,-11.4295 L 19.2181,-11.5652 L 19.205,-11.6022 L 19.179,-11.6901 L 19.153,-11.7779
 L 19.1453,-11.81 L 19.1316,-11.867 L 19.1102,-11.9561 L 19.101,-12.0058 L 19.0935,-12.0462 L 19.084,-12.0976
 L 19.0768,-12.1362 L 19.0649,-12.2271 L 19.0529,-12.3179 L 19.0457,-12.4093 L 19.0401,-12.48 L 19.0385,-12.5006
 L 19.0348,-12.6445 L 19.0337,-12.6838 L 19.0385,-12.8669 L 19.0449,-12.9481 L 19.0467,-12.9708 L 19.0529,-13.0496
 L 19.0582,-13.0899 L 19.0631,-13.1271 L 19.069,-13.172 L 19.0768,-13.2313 L 19.0935,-13.3214 L 19.1075,-13.3966
 L 19.1102,-13.4115 L 19.1239,-13.4686 L 19.1344,-13.5122 L 19.153,-13.5896 L 19.179,-13.6775 L 19.205,-13.7653
 L 19.2356,-13.8517 L 19.2662,-13.9381 L 19.3213,-14.0711 L 19.3363,-14.1073 L 19.4152,-14.2727 L 19.4839,-14.3993
 L 19.4949,-14.4194 L 19.5026,-14.4338 L 19.5539,-14.5174 L 19.5889,-14.5745 L 19.5984,-14.59 L 19.602,-14.5953
 L 19.7022,-14.741 L 19.7898,-14.8552 L 19.8137,-14.8864 L 19.9072,-14.9959 L 19.9327,-15.0257 L 19.9958,-15.0922
 L 20.0318,-15.1302 L 20.0589,-15.1586 L 20.09,-15.1882 L 20.1253,-15.2217 L 20.1918,-15.2848 L 20.2614,-15.3443
 L 20.3311,-15.4038 L 20.4765,-15.5153 L 20.6221,-15.6154 L 20.6275,-15.6191 L 20.7056,-15.667 L 20.7502,-15.6943
 L 20.7837,-15.7148 L 20.9103,-15.7835 L 20.9448,-15.8023 L 20.9508,-15.8051 L 21.0275,-15.8417 L 21.0747,-15.8643
 L 21.1101,-15.8812 L 21.2794,-15.9513 L 21.3658,-15.9819 L 21.4152,-15.9993 L 21.4522,-16.0125 L 21.6279,-16.0645
 L 21.7345,-16.0901 L 21.7679,-16.0981 L 21.806,-16.1073 L 21.8961,-16.124 L 21.9476,-16.1335 L 21.9862,-16.1407
 L 22.077,-16.1526 L 22.1289,-16.1595 L 22.1679,-16.1646 L 22.207,-16.1677 L 22.3506,-16.179 L 22.4311,-16.1811
 L 22.4875,-16.1826 L 22.5337,-16.1838 L 22.5807,-16.1825 L 22.7169,-16.179 L 22.8604,-16.1677 L 22.8996,-16.1646
 L 22.9643,-16.1561 L 23.0423,-16.1458 L 23.0812,-16.1407 L 23.1713,-16.124 L 23.2578,-16.1079 L 23.2614,-16.1073
 L 23.3505,-16.0859 L 23.4396,-16.0645 L 23.5274,-16.0385 L 23.598,-16.0176 L 23.6153,-16.0125 L 23.6523,-15.9993
 L 23.788,-15.9513 L 23.921,-15.8962 L 23.9573,-15.8812 L 24.0873,-15.8192 L 24.1227,-15.8023 L 24.1572,-15.7835
 L 24.2837,-15.7148 L 24.3618,-15.667 L 24.44,-15.6191 L 24.4723,-15.5969 L 24.591,-15.5153 L 24.6637,-15.4595
 L 24.7363,-15.4038 L 24.7731,-15.3724 L 24.806,-15.3443 L 24.8757,-15.2848 L 24.9801,-15.1857 L 25.0086,-15.1586
 L 25.0717,-15.0922 L 25.0808,-15.0826 L 25.1347,-15.0257 L 25.1942,-14.956 L 25.2537,-14.8864 L 25.3414,-14.7722
 L 25.3653,-14.741 L 25.3875,-14.7087 L 25.4691,-14.59 L 25.5169,-14.5119 L 25.5648,-14.4338 L 25.6522,-14.2727
 L 25.6917,-14.19 L 25.7311,-14.1073 L 25.8013,-13.9381 L 25.8192,-13.8874 L 25.8318,-13.8517 L 25.8624,-13.7653
 L 25.8884,-13.6775 L 25.9145,-13.5896 L 25.9359,-13.5005 L 25.9572,-13.4115 L 25.9644,-13.3729 L 25.9891,-13.2394
 L 25.9906,-13.2313 L 26.006,-13.1148 L 26.0146,-13.0496 L 26.0217,-12.9583 L 26.024,-12.9302 L 26.0289,-12.8669
 L 26.0337,-12.6838 L 26.0289,-12.5006 L 26.0217,-12.4092 L 26.0145,-12.3179 L 26.0026,-12.2271 L 25.9958,-12.1752
 L 25.9906,-12.1362 L 25.9644,-11.9947 L 25.9572,-11.9561 L 25.9359,-11.867 L 25.9198,-11.8001 L 25.9145,-11.7779
 L 25.8884,-11.69 L 25.8624,-11.6022 L 25.8013,-11.4295 L 25.7662,-11.3448 L 25.7311,-11.2602 L 25.6835,-11.1603
 L 25.6522,-11.0948 L 25.6048,-11.0074 L 25.571,-10.9451 L 25.5648,-10.9338 L 25.4896,-10.811 L 25.4691,-10.7775
 L 25.4172,-10.702 L 25.3653,-10.6265 L 25.2537,-10.4812 L 25.2282,-10.4513 L 25.1942,-10.4115 L 25.1347,-10.3418
 L 25.0717,-10.2754 L 25.0415,-10.2436 L 25.0183,-10.2191 L 25.0086,-10.2089 L 24.9382,-10.1421 L 24.8757,-10.0828
 L 24.7363,-9.9638 L 24.6221,-9.87614 L 24.591,-9.85223 L 24.4827,-9.7778 L 24.4723,-9.77071 L 24.44,-9.74847
 L 24.3618,-9.7006 L 24.2837,-9.65268 L 24.2032,-9.60898 L 24.1572,-9.58397 L 24.1227,-9.56522 L 24.04,-9.52577
 L 23.9573,-9.48632 L 23.8243,-9.43126 L 23.788,-9.41625 L 23.7017,-9.38567 L 23.6153,-9.3551 L 23.5776,-9.34395
 L 23.4946,-9.31936 L 23.4396,-9.30307 L 23.3505,-9.28166 L 23.2614,-9.26026 L 23.1199,-9.23403 L 23.0812,-9.22688
 L 22.9904,-9.2149 L 22.8996,-9.20292 L 22.7169,-9.18858 L 22.573,-9.1848 L 22.5337,-9.18377 z
" stroke="black" fill="lightgray" stroke-width="0.5"/>
</svg>
