<?xml version="1.0" standalone="no"?>
<!DOCTYPE svg PUBLIC "-//W3C//DTD SVG 1.1//EN" "http://www.w3.org/Graphics/SVG/1.1/DTD/svg11.dtd">
<svg width="38mm" height="38mm" viewBox="-5 -29 38 38" xmlns="http://www.w3.org/2000/svg" version="1.1">
<title>OpenSCAD Model</title>
<path d="
M 15.3845,8.23816 L 16.7387,7.94785 L 17.0563,7.79703 L 17.3039,7.54737 L 17.452,7.22852 L 17.4555,7.21575
 L 17.5989,6.90369 L 17.8378,6.6569 L 18.145,6.50333 L 19.9061,5.86435 L 21.5888,5.04071 L 23.1738,4.04185
 L 24.6429,2.87923 L 25.9792,1.56618 L 27.1675,0.117753 L 28.194,-1.44943 L 29.0471,-3.11741 L 29.7169,-4.86703
 L 30.0566,-4.86121 L 30.6197,-4.93041 L 31.142,-5.15197 L 31.5832,-5.50874 L 31.9091,-5.97317 L 32.0945,-6.50937
 L 32.3797,-8.51571 L 32.454,-10.5409 L 32.3165,-12.5627 L 31.9687,-14.5592 L 31.8425,-14.8672 L 31.6239,-15.1183
 L 31.3362,-15.2857 L 30.834,-15.4125 L 30.3162,-15.4209 L 29.8102,-15.3103 L 28.8411,-14.8865 L 27.9708,-14.2852
 L 27.2314,-13.5288 L 26.6502,-12.645 L 26.2485,-11.6665 L 26.0413,-10.6292 L 26.0196,-9.17553 L 25.8312,-7.73391
 L 25.4788,-6.3234 L 24.9669,-4.96263 L 24.3023,-3.66956 L 23.4938,-2.46126 L 22.552,-1.35367 L 21.4893,-0.361428
 L 21.0581,0.139786 L 20.5077,0.506134 L 19.8789,0.710468 L 19.2183,0.73764 L 18.5748,0.585632 L 17.9962,0.265716
 L 17.5253,-0.1984 L 17.197,-0.77232 L 17.0356,-1.41351 L 17.0532,-2.07445 L 17.2484,-2.70617 L 17.6067,-3.26183
 L 19.852,-6.31609 L 21.9694,-9.46041 L 23.9552,-12.6894 L 25.806,-15.9976 L 28.9597,-17.8184 L 29.2458,-18.064
 L 29.4232,-18.3968 L 29.4675,-18.7713 L 29.3729,-19.1364 L 28.7106,-20.3528 L 27.9096,-21.4826 L 26.981,-22.5103
 L 26.6916,-22.7099 L 26.3516,-22.7995 L 26.0014,-22.7684 L 25.9887,-22.7649 L 25.6467,-22.7331 L 25.3135,-22.8166
 L 25.0269,-23.0059 L 23.593,-24.2115 L 22.0383,-25.257 L 20.3808,-26.1302 L 18.6394,-26.8211 L 16.8341,-27.3219
 L 14.9856,-27.6267 L 13.1151,-27.7321 L 11.244,-27.6369 L 9.39386,-27.3422 L 9.22905,-27.6393 L 8.88756,-28.0924
 L 8.43453,-28.4339 L 7.90498,-28.6376 L 7.33983,-28.6876 L 6.78275,-28.5801 L 4.90258,-27.8239 L 3.1116,-26.8757
 L 1.42937,-25.7456 L -0.125712,-24.4462 L -0.329458,-24.1829 L -0.437616,-23.8681 L -0.438674,-23.5352 L -0.297407,-23.0369
 L -0.0457259,-22.5843 L 0.302975,-22.2014 L 1.15462,-21.574 L 2.11045,-21.1209 L 3.13524,-20.8588 L 4.19122,-20.7974
 L 5.2395,-20.9388 L 6.24144,-21.2779 L 7.51124,-21.986 L 8.85389,-22.5437 L 10.2516,-22.9437 L 11.6861,-23.1808
 L 13.1382,-23.2518 L 14.5889,-23.1557 L 16.019,-22.8939 L 17.4096,-22.4698 L 18.0373,-22.2601 L 18.585,-21.8889
 L 19.0122,-21.3836 L 19.2872,-20.7818 L 19.3896,-20.1281 L 19.3117,-19.471 L 19.0593,-18.8593 L 18.6512,-18.3385
 L 18.1177,-17.9471 L 17.4983,-17.7142 L 16.8391,-17.6571 L 13.2144,-18.0615 L 9.57654,-18.3217 L 5.9312,-18.4372
 L 2.28415,-18.4078 L 1.91025,-18.4318 L 1.54704,-18.5237 L 1.20674,-18.6805 L -1.44377,-20.2107 L -1.79959,-20.3357
 L -2.17649,-20.3229 L -2.52301,-20.1741 L -2.79182,-19.9096 L -3.51409,-18.7278 L -4.09211,-17.4692 L -4.51781,-16.1512
 L -4.546,-15.8008 L -4.45357,-15.4616 L -4.25151,-15.1739 L -4.24216,-15.1645 L -4.04363,-14.8842 L -3.94933,-14.554
 L -3.96993,-14.2112 L -4.29713,-12.3665 L -4.42519,-10.4974 L -4.35263,-8.62536 L -4.08031,-6.77179 L -3.61133,-4.95798
 L -2.95107,-3.20472 L -2.10712,-1.53212 L -1.08913,0.040646 L 0.0911936,1.49553 L -0.0837111,1.78682 L -0.305335,2.30909
 L -0.374619,2.8722 L -0.286207,3.43262 L -0.0469335,3.94705 L 0.324712,4.37574 L 1.91964,5.62594 L 3.63635,6.70283
 L 5.45609,7.59466 L 7.35898,8.29169 L 7.68887,8.33649 L 8.01562,8.27272 L 8.30447,8.10718 L 8.66534,7.73572
 L 8.93149,7.29144 L 9.08875,6.798 L 9.20623,5.74678 L 9.12069,4.69249 L 8.83528,3.67395 L 8.36053,2.72871
 L 7.71391,1.8916 L 6.91926,1.19345 L 5.67116,0.447809 L 4.51682,-0.43608 L 3.47149,-1.44654 L 2.54897,-2.57024
 L 1.76143,-3.79234 L 1.11927,-5.0967 L 0.630976,-6.46612 L 0.302981,-7.8825 L 0.17078,-8.53081 L 0.21845,-9.19073
 L 0.442454,-9.81329 L 0.826168,-10.3523 L 1.34111,-10.7678 L 1.94908,-11.0288 L 2.60494,-11.1161 L 3.26002,-11.0232
 L 3.86572,-10.7569 L 4.37707,-10.337 L 4.75612,-9.79471 L 6.21827,-6.45348 L 7.81192,-3.17294 L 9.53456,0.0417473
 L 11.3835,3.1855 L 11.5497,3.52129 L 11.6517,3.8818 L 11.6861,4.25488 L 11.6861,7.31541 L 11.7558,7.68603
 L 11.9553,8.00604 L 12.2574,8.23173 L 12.6209,8.33228 L 14.0055,8.3669 z
M 12.159,-6.25836 L 11.2962,-6.56025 L 10.5223,-7.04655 L 9.87596,-7.69289 L 9.38965,-8.46683 L 9.08775,-9.32959
 L 8.98541,-10.2379 L 9.08775,-11.1462 L 9.38965,-12.009 L 9.87595,-12.7829 L 10.5223,-13.4292 L 11.2962,-13.9155
 L 12.159,-14.2174 L 13.0673,-14.3198 L 13.9756,-14.2174 L 14.8384,-13.9155 L 15.6123,-13.4292 L 16.2587,-12.7829
 L 16.745,-12.009 L 17.0469,-11.1462 L 17.1492,-10.2379 L 17.0469,-9.32959 L 16.745,-8.46684 L 16.2587,-7.69289
 L 15.6123,-7.04656 L 14.8384,-6.56025 L 13.9756,-6.25836 L 13.0673,-6.15602 z
" stroke="black" fill="lightgray" stroke-width="0.5"/>
</svg>
