<?xml version="1.0" standalone="no"?>
<!DOCTYPE svg PUBLIC "-//W3C//DTD SVG 1.1//EN" "http://www.w3.org/Graphics/SVG/1.1/DTD/svg11.dtd">
<svg width="39mm" height="39mm" viewBox="32 -69 39 39" xmlns="http://www.w3.org/2000/svg" version="1.1">
<title>OpenSCAD Model</title>
<path d="
M 55.6172,-30.7575 L 56.2862,-30.9247 L 57.1834,-31.168 L 58.2326,-31.5026 L 59.2362,-31.8523 L 60.331,-32.3997
 L 61.4411,-32.9776 L 62.612,-33.6922 L 63.5547,-34.3765 L 64.4367,-35.1672 L 65.1514,-35.9275 L 64.5431,-36.3685
 L 63.9653,-36.5814 L 63.4179,-36.6878 L 62.8248,-36.7335 L 62.247,-36.6422 L 61.6844,-36.4749 L 61.0609,-36.2012
 L 60.3767,-35.7755 L 59.5251,-35.3041 L 58.6128,-34.8479 L 57.5635,-34.559 L 56.5447,-34.3309 L 55.4803,-34.118
 L 54.3551,-34.0724 L 53.3819,-34.042 L 52.4695,-34.118 L 51.7396,-34.2397 L 50.736,-34.4221 L 49.8388,-34.711
 L 49.0481,-35 L 48.2118,-35.4257 L 47.444,-35.9183 L 46.8128,-36.3533 L 46.2502,-36.7487 L 45.642,-37.2505
 L 45.2466,-37.7066 L 45.1706,-38.1324 L 45.2922,-38.543 L 45.5507,-38.8167 L 45.9157,-38.9231 L 46.2958,-38.8775
 L 46.676,-38.6342 L 47.1017,-38.2237 L 47.7252,-37.7066 L 48.4855,-37.1896 L 49.0481,-36.8551 L 49.626,-36.5662
 L 50.3254,-36.2012 L 51.1314,-35.8819 L 52.1198,-35.6234 L 53.2602,-35.4714 L 54.2942,-35.4257 L 55.161,-35.4409
 L 56.119,-35.5474 L 57.0921,-35.7451 L 58.1718,-36.0948 L 59.145,-36.5206 L 60.0117,-36.9159 L 60.772,-37.2657
 L 61.654,-37.7218 L 62.9161,-38.2084 L 63.8893,-38.6038 L 65.2274,-39.1512 L 66.4895,-39.7291 L 67.2802,-40.1244
 L 67.6756,-40.3981 L 68.0101,-40.7327 L 68.4663,-41.1736 L 68.816,-41.7667 L 69.0745,-42.3597 L 69.3939,-43.3481
 L 69.6828,-44.6102 L 69.9869,-45.8875 L 70.1238,-47.2409 L 70.1998,-48.3205 L 70.215,-49.3393 L 70.1694,-50.3885
 L 70.1238,-51.6354 L 69.9413,-53.0496 L 69.6524,-54.1596 L 69.2266,-55.4217 L 68.74,-56.5014 L 68.4207,-57.1856
 L 67.9189,-58.1284 L 67.3867,-59.056 L 66.9457,-59.7403 L 66.5199,-60.2573 L 66.0637,-60.7743 L 65.8661,-60.9567
 L 65.7748,-61.124 L 65.7748,-61.2609 L 65.8965,-61.8995 L 65.3186,-62.6142 L 64.7104,-63.2681 L 63.8893,-64.1044
 L 63.205,-64.7279 L 62.612,-65.1992 L 61.9429,-65.7163 L 61.2586,-66.2028 L 60.4679,-66.6286 L 59.8749,-66.9327
 L 59.297,-67.1912 L 58.4759,-67.5258 L 57.7308,-67.7387 L 57.0161,-67.9515 L 56.2406,-68.1492 L 56.2102,-67.7387
 L 56.2102,-67.2521 L 56.2406,-66.7959 L 56.4079,-66.2637 L 56.6664,-65.7923 L 56.9401,-65.3209 L 57.305,-64.9103
 L 57.7308,-64.6822 L 58.1566,-64.4389 L 58.78,-64.1348 L 59.4491,-63.709 L 60.0877,-63.2681 L 60.7112,-62.7206
 L 61.3803,-62.1124 L 62.0341,-61.4433 L 62.612,-60.7591 L 63.1746,-59.8923 L 63.8284,-58.7975 L 64.3302,-57.8851
 L 64.68,-57.064 L 64.9233,-56.2885 L 65.0906,-55.5434 L 65.2274,-54.5702 L 65.3034,-53.8555 L 65.273,-52.8519
 L 65.2578,-51.8635 L 65.0906,-50.9055 L 64.9385,-50.3885 L 64.7256,-50.0084 L 64.4671,-49.7955 L 64.1782,-49.6738
 L 63.8589,-49.689 L 63.5395,-49.8715 L 63.3419,-50.1452 L 63.3419,-50.5558 L 63.4635,-51.2553 L 63.6156,-52.1372
 L 63.6612,-52.7303 L 63.7068,-53.4449 L 63.6308,-54.5854 L 63.5091,-55.4065 L 63.3419,-56.1668 L 63.129,-56.8815
 L 62.9009,-57.5354 L 62.6424,-58.0676 L 62.3535,-58.7215 L 61.8821,-59.4665 L 61.4259,-60.1356 L 60.772,-60.9263
 L 60.2246,-61.4433 L 59.7532,-61.8539 L 59.2058,-62.2493 L 58.78,-62.5534 L 58.3999,-62.7967 L 57.8829,-63.1616
 L 57.1682,-63.6026 L 56.3471,-64.2717 L 55.6628,-64.8191 L 54.8721,-65.4882 L 54.0509,-66.1268 L 53.4731,-66.5526
 L 53.0017,-66.9632 L 52.4543,-67.3585 L 51.9069,-67.7387 L 51.2986,-68.1188 L 50.9945,-68.2861 L 50.5992,-68.3925
 L 50.1886,-68.4381 L 49.8388,-68.4533 L 48.9721,-68.3925 L 47.8316,-68.1492 L 46.6456,-67.7691 L 44.9273,-67.1912
 L 42.8897,-66.2941 L 40.9889,-65.1536 L 39.6508,-64.0588 L 38.3278,-62.8271 L 36.8985,-61.3065 L 36.0317,-60.1052
 L 35.2714,-58.9191 L 34.7544,-57.8851 L 34.4199,-57.0184 L 34.2222,-56.4405 L 34.131,-56.182 L 33.9485,-56.0908
 L 33.5227,-56.0604 L 33.1426,-55.2089 L 32.7472,-54.114 L 32.5647,-53.1712 L 32.4279,-51.8331 L 32.2758,-50.2669
 L 32.215,-48.5486 L 32.291,-46.9824 L 32.656,-44.4581 L 32.808,-44.4125 L 33.0817,-44.5494 L 34.0853,-45.2641
 L 34.7544,-45.9788 L 35.0433,-46.6022 L 35.1802,-47.1648 L 35.1954,-47.8795 L 35.2106,-49.0808 L 35.2714,-50.6014
 L 35.5982,-52.1759 L 36.0925,-53.5514 L 36.7008,-54.8743 L 37.4611,-56.0604 L 38.1302,-56.8815 L 38.9817,-57.8699
 L 39.9853,-58.7367 L 40.9585,-59.3905 L 41.7036,-59.8315 L 42.7528,-60.3485 L 43.5587,-60.6374 L 44.319,-60.7591
 L 44.7296,-60.5918 L 44.9729,-60.2269 L 45.0337,-59.8923 L 44.8817,-59.5122 L 44.7448,-59.3449 L 44.5015,-59.2233
 L 43.285,-58.7215 L 42.099,-58.1284 L 41.0954,-57.5354 L 40.2438,-56.8967 L 39.4987,-56.2429 L 38.7992,-55.4674
 L 38.0845,-54.4485 L 37.5675,-53.521 L 37.1266,-52.563 L 36.8985,-51.8483 L 36.7008,-51.0424 L 36.5335,-49.978
 L 36.4271,-49.02 L 36.3358,-48.1228 L 36.2446,-47.4537 L 36.1078,-46.3893 L 35.8645,-44.8839 L 35.682,-42.8615
 L 35.6364,-42.2533 L 35.5451,-41.3409 L 35.4387,-40.2309 L 35.5907,-39.4706 L 35.8036,-38.8015 L 36.199,-38.2237
 L 37.4763,-36.8703 L 37.9629,-36.3685 L 38.8144,-35.5474 L 39.9397,-34.635 L 41.0801,-33.7987 L 42.175,-33.1448
 L 43.4523,-32.4301 L 44.9121,-31.8523 L 46.6304,-31.3809 L 48.5007,-31.0464 L 49.7932,-30.9551 L 51.3138,-30.8791
 L 52.9561,-30.9704 L 53.8533,-31.0768 L 54.279,-31.1072 L 54.4463,-31.092 L 54.5679,-31.016 L 54.9025,-30.6966
 z
M 49.1811,-55.7904 L 49.1103,-55.7922 L 49.0926,-55.7936 L 49.0059,-55.8004 L 48.9944,-55.802 L 48.9713,-55.805
 L 48.9692,-55.8053 L 48.9272,-55.8108 L 48.9098,-55.8131 L 48.9021,-55.8141 L 48.824,-55.8286 L 48.7992,-55.8332
 L 48.7587,-55.8429 L 48.7214,-55.8519 L 48.7147,-55.8535 L 48.6974,-55.8577 L 48.6683,-55.8663 L 48.597,-55.8874
 L 48.5956,-55.8879 L 48.5802,-55.8933 L 48.4983,-55.9223 L 48.4818,-55.9291 L 48.4015,-55.9624 L 48.3428,-55.9904
 L 48.307,-56.0075 L 48.2306,-56.049 L 48.215,-56.0575 L 48.1998,-56.0668 L 48.1473,-56.099 L 48.1308,-56.109
 L 48.1279,-56.1109 L 48.1257,-56.1122 L 48.1105,-56.1227 L 48.0929,-56.1347 L 48.0898,-56.1369 L 48.0394,-56.1715
 L 47.9764,-56.2198 L 47.9564,-56.2352 L 47.896,-56.2868 L 47.8767,-56.3032 L 47.8624,-56.3168 L 47.8607,-56.3184
 L 47.8492,-56.3293 L 47.8191,-56.3579 L 47.8008,-56.3753 L 47.7545,-56.4241 L 47.7499,-56.4289 L 47.7287,-56.4512
 L 47.7172,-56.4648 L 47.7037,-56.4805 L 47.6607,-56.5309 L 47.6499,-56.545 L 47.6124,-56.5939 L 47.597,-56.6139
 L 47.5792,-56.6399 L 47.5695,-56.6539 L 47.566,-56.659 L 47.5377,-56.7002 L 47.5284,-56.7154 L 47.483,-56.7895
 L 47.4745,-56.8051 L 47.433,-56.8815 L 47.4228,-56.9028 L 47.4096,-56.9306 L 47.3956,-56.9599 L 47.3879,-56.976
 L 47.3811,-56.9925 L 47.3478,-57.0728 L 47.3213,-57.1476 L 47.3129,-57.1714 L 47.3101,-57.1809 L 47.3078,-57.1885
 L 47.2903,-57.2476 L 47.2832,-57.2718 L 47.2773,-57.2964 L 47.2629,-57.3564 L 47.2587,-57.3737 L 47.2577,-57.3789
 L 47.2527,-57.4063 L 47.2448,-57.4486 L 47.2396,-57.4766 L 47.2283,-57.5628 L 47.226,-57.5804 L 47.2246,-57.5982
 L 47.2225,-57.625 L 47.2218,-57.6339 L 47.2177,-57.6848 L 47.2172,-57.7048 L 47.2157,-57.7642 L 47.215,-57.7895
 L 47.2155,-57.8073 L 47.2171,-57.8689 L 47.2177,-57.8942 L 47.2195,-57.9167 L 47.2246,-57.9808 L 47.226,-57.9985
 L 47.2281,-58.0145 L 47.229,-58.0214 L 47.2345,-58.0633 L 47.2345,-58.0634 L 47.2384,-58.0928 L 47.2385,-58.0935
 L 47.2396,-58.1024 L 47.2444,-58.1284 L 47.2541,-58.1805 L 47.2587,-58.2053 L 47.2773,-58.2825 L 47.2832,-58.3071
 L 47.3078,-58.3905 L 47.3129,-58.4075 L 47.3188,-58.4243 L 47.3458,-58.5005 L 47.3478,-58.5062 L 47.3666,-58.5514
 L 47.3879,-58.603 L 47.3956,-58.619 L 47.4221,-58.6747 L 47.4311,-58.6936 L 47.433,-58.6975 L 47.4415,-58.7131
 L 47.483,-58.7895 L 47.5133,-58.839 L 47.5377,-58.8788 L 47.5827,-58.9442 L 47.597,-58.9651 L 47.6078,-58.9792
 L 47.6453,-59.0281 L 47.6607,-59.0481 L 47.6946,-59.0879 L 47.6957,-59.0891 L 47.7287,-59.1277 L 47.741,-59.1406
 L 47.7783,-59.18 L 47.8008,-59.2037 L 47.8505,-59.2509 L 47.8767,-59.2758 L 47.9428,-59.3322 L 47.9436,-59.3329
 L 47.9564,-59.3438 L 47.9764,-59.3592 L 48.0253,-59.3967 L 48.0394,-59.4075 L 48.0603,-59.4218 L 48.0685,-59.4275
 L 48.1111,-59.4567 L 48.1257,-59.4668 L 48.1409,-59.4761 L 48.1592,-59.4873 L 48.1638,-59.4902 L 48.1875,-59.5047
 L 48.1955,-59.5096 L 48.215,-59.5215 L 48.2306,-59.53 L 48.307,-59.5715 L 48.3231,-59.5792 L 48.3787,-59.6057
 L 48.3971,-59.6145 L 48.4015,-59.6166 L 48.4583,-59.6401 L 48.4818,-59.6498 L 48.4892,-59.6529 L 48.4983,-59.6566
 L 48.515,-59.6626 L 48.5731,-59.6832 L 48.597,-59.6916 L 48.6212,-59.6988 L 48.6803,-59.7163 L 48.6974,-59.7213
 L 48.7106,-59.7245 L 48.7614,-59.7367 L 48.7992,-59.7458 L 48.8167,-59.749 L 48.8773,-59.7603 L 48.9021,-59.7649
 L 48.9198,-59.7672 L 48.9809,-59.7752 L 49.0059,-59.7785 L 49.0311,-59.7805 L 49.1103,-59.7867 L 49.1891,-59.7888
 L 49.215,-59.7895 L 49.215,-59.7895 L 49.241,-59.7888 L 49.3197,-59.7867 L 49.3989,-59.7805 L 49.4241,-59.7785
 L 49.4464,-59.7756 L 49.4827,-59.7708 L 49.5279,-59.7649 L 49.6042,-59.7507 L 49.6049,-59.7506 L 49.6308,-59.7458
 L 49.6481,-59.7416 L 49.7081,-59.7272 L 49.7326,-59.7213 L 49.7497,-59.7163 L 49.8088,-59.6988 L 49.833,-59.6916
 L 49.8569,-59.6832 L 49.9285,-59.6578 L 49.9317,-59.6566 L 49.9436,-59.6517 L 49.9482,-59.6498 L 49.9631,-59.6436
 L 49.9761,-59.6383 L 50.0285,-59.6166 L 50.0445,-59.6089 L 50.076,-59.5939 L 50.1118,-59.5768 L 50.123,-59.5715
 L 50.1373,-59.5637 L 50.1691,-59.5464 L 50.1759,-59.5428 L 50.1915,-59.5343 L 50.1937,-59.5331 L 50.2098,-59.5243
 L 50.215,-59.5215 L 50.2302,-59.5122 L 50.2827,-59.48 L 50.2911,-59.4749 L 50.3002,-59.4693 L 50.3043,-59.4668
 L 50.3618,-59.4273 L 50.3844,-59.4118 L 50.3906,-59.4075 L 50.4047,-59.3967 L 50.4266,-59.3799 L 50.4736,-59.3438
 L 50.4872,-59.3322 L 50.5046,-59.3173 L 50.5108,-59.3121 L 50.5533,-59.2758 L 50.5662,-59.2635 L 50.6109,-59.2211
 L 50.6292,-59.2037 L 50.6466,-59.1854 L 50.7013,-59.1277 L 50.7128,-59.1142 L 50.7529,-59.0673 L 50.7693,-59.0481
 L 50.7817,-59.0319 L 50.7828,-59.0305 L 50.833,-58.9651 L 50.8474,-58.9442 L 50.8823,-58.8934 L 50.8923,-58.8788
 L 50.9338,-58.811 L 50.9471,-58.7895 L 50.9885,-58.7131 L 50.997,-58.6975 L 51.0047,-58.6814 L 51.0421,-58.603
 L 51.0582,-58.564 L 51.0754,-58.5227 L 51.0822,-58.5062 L 51.0881,-58.4894 L 51.1171,-58.4075 L 51.1286,-58.3688
 L 51.1418,-58.3242 L 51.1426,-58.3216 L 51.1469,-58.3071 L 51.151,-58.2898 L 51.156,-58.269 L 51.1654,-58.2299
 L 51.1713,-58.2053 L 51.1871,-58.1198 L 51.1904,-58.1024 L 51.1927,-58.0847 L 51.2007,-58.0236 L 51.2041,-57.9985
 L 51.2054,-57.9808 L 51.2103,-57.9193 L 51.2123,-57.8942 L 51.2127,-57.8763 L 51.215,-57.7895 L 51.2127,-57.7026
 L 51.2123,-57.6848 L 51.2122,-57.6837 L 51.2086,-57.6381 L 51.2074,-57.6228 L 51.2056,-57.6003 L 51.204,-57.5804
 L 51.2017,-57.5628 L 51.1904,-57.4766 L 51.1871,-57.4591 L 51.1759,-57.3985 L 51.1713,-57.3737 L 51.1611,-57.3311
 L 51.1469,-57.2718 L 51.1425,-57.257 L 51.1243,-57.1957 L 51.1171,-57.1714 L 51.0906,-57.0966 L 51.0822,-57.0728
 L 51.0421,-56.976 L 51.0343,-56.9597 L 50.997,-56.8815 L 50.9885,-56.8659 L 50.9591,-56.8117 L 50.9471,-56.7895
 L 50.9404,-56.7787 L 50.9378,-56.7743 L 50.8923,-56.7002 L 50.878,-56.6794 L 50.8431,-56.6286 L 50.833,-56.6139
 L 50.8243,-56.6026 L 50.8231,-56.601 L 50.8222,-56.5998 L 50.7847,-56.5509 L 50.7811,-56.5463 L 50.7693,-56.5309
 L 50.7579,-56.5175 L 50.7128,-56.4648 L 50.7013,-56.4512 L 50.689,-56.4383 L 50.6466,-56.3936 L 50.6292,-56.3753
 L 50.6163,-56.363 L 50.5582,-56.3079 L 50.5533,-56.3032 L 50.534,-56.2868 L 50.4736,-56.2352 L 50.4595,-56.2244
 L 50.3906,-56.1715 L 50.3759,-56.1614 L 50.3391,-56.1361 L 50.3043,-56.1122 L 50.2302,-56.0668 L 50.215,-56.0575
 L 50.1994,-56.049 L 50.123,-56.0075 L 50.1069,-55.9998 L 50.0513,-55.9733 L 50.0285,-55.9624 L 49.9551,-55.932
 L 49.9317,-55.9223 L 49.8569,-55.8958 L 49.833,-55.8874 L 49.7642,-55.867 L 49.7326,-55.8577 L 49.7076,-55.8517
 L 49.6554,-55.8391 L 49.6308,-55.8332 L 49.5527,-55.8187 L 49.5279,-55.8141 L 49.5102,-55.8118 L 49.4241,-55.8004
 L 49.4063,-55.799 L 49.3197,-55.7922 L 49.3019,-55.7918 L 49.2403,-55.7902 L 49.215,-55.7895 z
M 54.9595,-55.6124 L 54.9003,-55.614 L 54.8603,-55.615 L 54.8426,-55.6164 L 54.756,-55.6232 L 54.7383,-55.6255
 L 54.6521,-55.6369 L 54.574,-55.6514 L 54.5492,-55.656 L 54.5246,-55.6619 L 54.4474,-55.6804 L 54.3712,-55.703
 L 54.347,-55.7102 L 54.3302,-55.7161 L 54.2483,-55.7451 L 54.2318,-55.7519 L 54.1749,-55.7755 L 54.1515,-55.7852
 L 54.1355,-55.7928 L 54.0798,-55.8194 L 54.057,-55.8302 L 53.9806,-55.8718 L 53.965,-55.8802 L 53.9498,-55.8895
 L 53.8973,-55.9218 L 53.8757,-55.935 L 53.8549,-55.9493 L 53.8252,-55.9697 L 53.817,-55.9753 L 53.7894,-55.9942
 L 53.7264,-56.0426 L 53.7064,-56.058 L 53.6928,-56.0696 L 53.6395,-56.1151 L 53.6267,-56.126 L 53.5691,-56.1807
 L 53.5508,-56.1981 L 53.5287,-56.2213 L 53.4787,-56.274 L 53.4515,-56.3059 L 53.4298,-56.3313 L 53.4107,-56.3537
 L 53.4051,-56.361 L 53.3696,-56.4072 L 53.347,-56.4367 L 53.3193,-56.477 L 53.2877,-56.523 L 53.2511,-56.5827
 L 53.2462,-56.5907 L 53.233,-56.6123 L 53.2181,-56.6396 L 53.2137,-56.6477 L 53.183,-56.7043 L 53.1529,-56.7673
 L 53.1379,-56.7988 L 53.1372,-56.8004 L 53.1075,-56.8722 L 53.0978,-56.8955 L 53.0919,-56.9123 L 53.0713,-56.9704
 L 53.0676,-56.9809 L 53.0641,-56.9909 L 53.064,-56.9911 L 53.0629,-56.9942 L 53.0603,-57.0029 L 53.0601,-57.0038
 L 53.0578,-57.0113 L 53.0403,-57.0704 L 53.0332,-57.0946 L 53.0274,-57.1188 L 53.0129,-57.1791 L 53.0087,-57.1964
 L 53.0062,-57.2099 L 53.0046,-57.2184 L 52.9912,-57.2908 L 52.9908,-57.2932 L 52.9906,-57.2944 L 52.9896,-57.2994
 L 52.9868,-57.3208 L 52.9858,-57.3288 L 52.9829,-57.3507 L 52.9825,-57.3533 L 52.9821,-57.3563 L 52.9783,-57.3856
 L 52.976,-57.4032 L 52.9753,-57.4114 L 52.9752,-57.4129 L 52.9746,-57.421 L 52.9697,-57.4824 L 52.9691,-57.491
 L 52.9686,-57.4968 L 52.9678,-57.5076 L 52.9673,-57.5254 L 52.966,-57.5752 L 52.9659,-57.5766 L 52.9658,-57.5813
 L 52.9657,-57.5859 L 52.9657,-57.5871 L 52.9655,-57.5945 L 52.965,-57.6123 L 52.9657,-57.6389 L 52.9658,-57.6437
 L 52.966,-57.6483 L 52.9661,-57.6543 L 52.967,-57.6892 L 52.9678,-57.7169 L 52.9697,-57.7422 L 52.9746,-57.8036
 L 52.976,-57.8213 L 52.9863,-57.9001 L 52.9896,-57.9251 L 52.9916,-57.9358 L 52.9916,-57.9359 L 52.9933,-57.9448
 L 52.994,-57.9487 L 53.0069,-58.0182 L 53.0087,-58.0281 L 53.0129,-58.0454 L 53.027,-58.1042 L 53.0285,-58.1105
 L 53.0319,-58.1247 L 53.0332,-58.1299 L 53.0403,-58.1541 L 53.048,-58.18 L 53.0487,-58.1824 L 53.0501,-58.1871
 L 53.0561,-58.2073 L 53.0579,-58.2133 L 53.0629,-58.2303 L 53.0661,-58.2394 L 53.0688,-58.2471 L 53.0858,-58.2949
 L 53.0872,-58.2988 L 53.0894,-58.3052 L 53.0978,-58.329 L 53.1047,-58.3454 L 53.1282,-58.4024 L 53.1379,-58.4257
 L 53.1414,-58.433 L 53.1451,-58.4407 L 53.1487,-58.4483 L 53.1739,-58.5012 L 53.178,-58.5098 L 53.1793,-58.5125
 L 53.183,-58.5202 L 53.197,-58.546 L 53.233,-58.6123 L 53.2402,-58.6241 L 53.2423,-58.6274 L 53.2536,-58.646
 L 53.2731,-58.6777 L 53.2877,-58.7015 L 53.3327,-58.767 L 53.347,-58.7878 L 53.3578,-58.802 L 53.3953,-58.8509
 L 53.4107,-58.8709 L 53.4223,-58.8844 L 53.4623,-58.9313 L 53.4787,-58.9505 L 53.5147,-58.9885 L 53.5508,-59.0265
 L 53.5637,-59.0387 L 53.6084,-59.0812 L 53.6267,-59.0986 L 53.646,-59.115 L 53.6928,-59.155 L 53.7064,-59.1666
 L 53.7753,-59.2195 L 53.7894,-59.2303 L 53.8611,-59.2795 L 53.8757,-59.2896 L 53.8964,-59.3023 L 53.965,-59.3443
 L 54.0348,-59.3822 L 54.0514,-59.3912 L 54.057,-59.3943 L 54.0731,-59.4019 L 54.1118,-59.4204 L 54.1287,-59.4285
 L 54.1515,-59.4394 L 54.1693,-59.4467 L 54.1749,-59.449 L 54.2318,-59.4726 L 54.2483,-59.4794 L 54.265,-59.4854
 L 54.347,-59.5144 L 54.3712,-59.5216 L 54.4474,-59.5441 L 54.4862,-59.5534 L 54.5492,-59.5686 L 54.5667,-59.5718
 L 54.6521,-59.5876 L 54.6698,-59.59 L 54.7309,-59.598 L 54.756,-59.6013 L 54.7811,-59.6033 L 54.8603,-59.6095
 L 54.9391,-59.6116 L 54.965,-59.6123 L 54.965,-59.6123 L 54.991,-59.6116 L 55.0697,-59.6095 L 55.1489,-59.6033
 L 55.1741,-59.6013 L 55.2252,-59.5946 L 55.2779,-59.5876 L 55.356,-59.5732 L 55.3808,-59.5686 L 55.3981,-59.5644
 L 55.4581,-59.55 L 55.4826,-59.5441 L 55.4997,-59.5391 L 55.5354,-59.5285 L 55.5588,-59.5216 L 55.583,-59.5144
 L 55.665,-59.4854 L 55.6817,-59.4794 L 55.7551,-59.449 L 55.7785,-59.4394 L 55.8084,-59.4251 L 55.8635,-59.3988
 L 55.873,-59.3943 L 55.965,-59.3443 L 55.9802,-59.335 L 56.0295,-59.3048 L 56.0543,-59.2896 L 56.0751,-59.2753
 L 56.1058,-59.2542 L 56.1406,-59.2303 L 56.1547,-59.2195 L 56.2237,-59.1666 L 56.2453,-59.148 L 56.284,-59.115
 L 56.3033,-59.0986 L 56.3162,-59.0863 L 56.3609,-59.0439 L 56.3792,-59.0265 L 56.3966,-59.0081 L 56.4513,-58.9505
 L 56.4696,-58.9291 L 56.4873,-58.9084 L 56.5193,-58.8709 L 56.5301,-58.8568 L 56.583,-58.7878 L 56.6194,-58.7349
 L 56.6355,-58.7115 L 56.6423,-58.7015 L 56.6516,-58.6864 L 56.6528,-58.6846 L 56.6971,-58.6123 L 56.717,-58.5755
 L 56.7385,-58.5359 L 56.747,-58.5202 L 56.7547,-58.5042 L 56.7812,-58.4486 L 56.7921,-58.4257 L 56.8018,-58.4024
 L 56.8254,-58.3454 L 56.8322,-58.329 L 56.8671,-58.2303 L 56.8743,-58.2061 L 56.8969,-58.1299 L 56.901,-58.1126
 L 56.9085,-58.0814 L 56.9213,-58.0281 L 56.9259,-58.0032 L 56.9347,-57.9557 L 56.9404,-57.9251 L 56.9442,-57.896
 L 56.9541,-57.8213 L 56.9554,-57.8036 L 56.9572,-57.7808 L 56.959,-57.7579 L 56.9623,-57.7169 L 56.9627,-57.6991
 L 56.965,-57.6123 L 56.9643,-57.587 L 56.9627,-57.5254 L 56.9623,-57.5076 L 56.9609,-57.4898 L 56.956,-57.4284
 L 56.9541,-57.4032 L 56.9437,-57.3245 L 56.9404,-57.2994 L 56.9361,-57.2764 L 56.9292,-57.2388 L 56.9213,-57.1964
 L 56.9155,-57.1723 L 56.8969,-57.0946 L 56.8743,-57.0185 L 56.8671,-56.9942 L 56.8567,-56.9648 L 56.8406,-56.9194
 L 56.8322,-56.8955 L 56.8018,-56.8221 L 56.7929,-56.8008 L 56.7921,-56.7988 L 56.7843,-56.7825 L 56.7594,-56.7302
 L 56.747,-56.7043 L 56.7385,-56.6887 L 56.7091,-56.6345 L 56.6971,-56.6123 L 56.6878,-56.5971 L 56.6528,-56.54
 L 56.6423,-56.523 L 56.617,-56.4861 L 56.583,-56.4367 L 56.5722,-56.4226 L 56.5193,-56.3537 L 56.4732,-56.2997
 L 56.4513,-56.274 L 56.3966,-56.2164 L 56.3792,-56.1981 L 56.3663,-56.1858 L 56.3216,-56.1434 L 56.3033,-56.126
 L 56.284,-56.1096 L 56.2372,-56.0696 L 56.2237,-56.058 L 56.2095,-56.0472 L 56.1406,-55.9942 L 56.0751,-55.9493
 L 56.0543,-55.935 L 56.0327,-55.9218 L 55.9802,-55.8895 L 55.965,-55.8802 L 55.9494,-55.8718 L 55.8952,-55.8423
 L 55.873,-55.8302 L 55.8569,-55.8226 L 55.8013,-55.796 L 55.7785,-55.7852 L 55.762,-55.7783 L 55.7102,-55.7569
 L 55.6817,-55.7451 L 55.6069,-55.7186 L 55.583,-55.7102 L 55.5443,-55.6987 L 55.4826,-55.6804 L 55.4054,-55.6619
 L 55.3808,-55.656 L 55.3633,-55.6527 L 55.2779,-55.6369 L 55.1991,-55.6265 L 55.1741,-55.6232 L 55.0949,-55.617
 L 55.0697,-55.615 L 55.0519,-55.6146 L 54.9903,-55.6129 L 54.965,-55.6123 z
M 43.5533,-52.6874 L 43.4837,-52.6892 L 43.466,-52.6906 L 43.4045,-52.6954 L 43.3793,-52.6974 L 43.3617,-52.6997
 L 43.3006,-52.7078 L 43.2755,-52.7111 L 43.258,-52.7143 L 43.1725,-52.7301 L 43.148,-52.736 L 43.088,-52.7505
 L 43.0707,-52.7546 L 42.9946,-52.7772 L 42.9703,-52.7843 L 42.9536,-52.7903 L 42.8716,-52.8193 L 42.8552,-52.8261
 L 42.7749,-52.8593 L 42.7032,-52.8935 L 42.6804,-52.9044 L 42.604,-52.9459 L 42.5884,-52.9544 L 42.5732,-52.9637
 L 42.5453,-52.9808 L 42.4991,-53.0091 L 42.4877,-53.017 L 42.4783,-53.0234 L 42.4128,-53.0684 L 42.3987,-53.0792
 L 42.3498,-53.1168 L 42.3297,-53.1322 L 42.2693,-53.1838 L 42.2501,-53.2002 L 42.2313,-53.218 L 42.1992,-53.2485
 L 42.1925,-53.2548 L 42.1742,-53.2722 L 42.1566,-53.2908 L 42.1526,-53.2949 L 42.1021,-53.3482 L 42.0688,-53.3872
 L 42.0468,-53.4129 L 42.0341,-53.4278 L 42.0232,-53.4419 L 41.9827,-53.4948 L 41.9703,-53.5109 L 41.956,-53.5317
 L 41.911,-53.5972 L 41.9017,-53.6123 L 41.8563,-53.6864 L 41.8478,-53.7021 L 41.8064,-53.7785 L 41.7696,-53.8555
 L 41.7692,-53.8563 L 41.7613,-53.873 L 41.7545,-53.8894 L 41.7212,-53.9697 L 41.7024,-54.0227 L 41.6947,-54.0446
 L 41.6863,-54.0684 L 41.6812,-54.0855 L 41.6637,-54.1446 L 41.661,-54.1536 L 41.6565,-54.1688 L 41.6506,-54.1934
 L 41.6362,-54.2533 L 41.6321,-54.2706 L 41.6288,-54.2881 L 41.616,-54.3576 L 41.613,-54.3736 L 41.6097,-54.3986
 L 41.6016,-54.4597 L 41.5993,-54.4774 L 41.5979,-54.4951 L 41.5955,-54.5254 L 41.5911,-54.5818 L 41.5906,-54.5996
 L 41.5892,-54.6532 L 41.589,-54.6611 L 41.5884,-54.6864 L 41.5887,-54.6997 L 41.5887,-54.6999 L 41.5904,-54.7658
 L 41.5911,-54.7911 L 41.5979,-54.8778 L 41.5993,-54.8955 L 41.6016,-54.9131 L 41.6097,-54.9742 L 41.613,-54.9993
 L 41.6275,-55.0774 L 41.6321,-55.1023 L 41.6481,-55.169 L 41.6565,-55.2041 L 41.6637,-55.2283 L 41.6812,-55.2874
 L 41.6863,-55.3045 L 41.6922,-55.3212 L 41.7212,-55.4032 L 41.728,-55.4196 L 41.7384,-55.4447 L 41.7613,-55.4999
 L 41.7955,-55.5716 L 41.8064,-55.5944 L 41.8148,-55.6101 L 41.8563,-55.6864 L 41.8803,-55.7256 L 41.911,-55.7757
 L 41.9396,-55.8173 L 41.956,-55.8412 L 41.9703,-55.862 L 41.9812,-55.8761 L 42.0187,-55.925 L 42.0341,-55.9451
 L 42.0476,-55.9609 L 42.0947,-56.016 L 42.1021,-56.0247 L 42.1169,-56.0403 L 42.1183,-56.0418 L 42.1568,-56.0823
 L 42.1742,-56.1006 L 42.2318,-56.1553 L 42.2475,-56.1703 L 42.2501,-56.1727 L 42.2677,-56.1877 L 42.3118,-56.2254
 L 42.3297,-56.2407 L 42.3987,-56.2936 L 42.4128,-56.3045 L 42.4844,-56.3537 L 42.4991,-56.3638 L 42.5143,-56.3731
 L 42.5884,-56.4185 L 42.604,-56.427 L 42.6804,-56.4684 L 42.6964,-56.4761 L 42.7521,-56.5026 L 42.7749,-56.5135
 L 42.7982,-56.5232 L 42.8716,-56.5536 L 42.9207,-56.571 L 42.9703,-56.5885 L 43.0537,-56.6132 L 43.0707,-56.6183
 L 43.104,-56.6263 L 43.1227,-56.6308 L 43.1725,-56.6427 L 43.19,-56.646 L 43.2506,-56.6572 L 43.2755,-56.6618
 L 43.2931,-56.6641 L 43.3543,-56.6722 L 43.3793,-56.6755 L 43.4045,-56.6775 L 43.4837,-56.6837 L 43.5624,-56.6858
 L 43.5884,-56.6864 L 43.5884,-56.6864 L 43.6515,-56.6848 L 43.6551,-56.6847 L 43.693,-56.6837 L 43.7429,-56.6798
 L 43.7722,-56.6775 L 43.7974,-56.6755 L 43.8397,-56.6699 L 43.9012,-56.6618 L 43.9571,-56.6515 L 44.0042,-56.6427
 L 44.0215,-56.6386 L 44.098,-56.6202 L 44.106,-56.6183 L 44.1231,-56.6132 L 44.1562,-56.6034 L 44.1975,-56.5912
 L 44.2064,-56.5885 L 44.2626,-56.5686 L 44.3051,-56.5536 L 44.3552,-56.5329 L 44.3945,-56.5166 L 44.4018,-56.5135
 L 44.4179,-56.5059 L 44.4963,-56.4684 L 44.5137,-56.459 L 44.5343,-56.4478 L 44.5727,-56.427 L 44.5884,-56.4185
 L 44.6035,-56.4092 L 44.6758,-56.3649 L 44.6776,-56.3638 L 44.7493,-56.3145 L 44.7639,-56.3045 L 44.7781,-56.2936
 L 44.8084,-56.2704 L 44.847,-56.2407 L 44.8605,-56.2292 L 44.9266,-56.1727 L 44.9395,-56.1605 L 45.0026,-56.1006
 L 45.0624,-56.0376 L 45.0651,-56.0347 L 45.0747,-56.0247 L 45.1262,-55.9643 L 45.1427,-55.9451 L 45.1511,-55.9341
 L 45.1535,-55.931 L 45.191,-55.8821 L 45.1974,-55.8738 L 45.2064,-55.862 L 45.2207,-55.8412 L 45.2556,-55.7904
 L 45.2657,-55.7757 L 45.3001,-55.7196 L 45.3032,-55.7145 L 45.3204,-55.6864 L 45.328,-55.6725 L 45.3325,-55.6642
 L 45.3619,-55.6101 L 45.3704,-55.5944 L 45.378,-55.5784 L 45.4046,-55.5227 L 45.4155,-55.4999 L 45.4208,-55.4869
 L 45.4211,-55.4862 L 45.4388,-55.4434 L 45.4405,-55.4395 L 45.4406,-55.4393 L 45.4487,-55.4196 L 45.4555,-55.4032
 L 45.4615,-55.3864 L 45.4778,-55.3402 L 45.4905,-55.3045 L 45.4938,-55.2932 L 45.4944,-55.2913 L 45.5202,-55.2041
 L 45.5388,-55.1268 L 45.5447,-55.1023 L 45.5493,-55.0774 L 45.5637,-54.9993 L 45.5651,-54.9889 L 45.5751,-54.9134
 L 45.5774,-54.8955 L 45.5836,-54.8163 L 45.5856,-54.7911 L 45.5861,-54.7733 L 45.5884,-54.6864 L 45.5877,-54.6612
 L 45.5861,-54.5996 L 45.5856,-54.5818 L 45.5842,-54.564 L 45.5774,-54.4774 L 45.5751,-54.4597 L 45.567,-54.3986
 L 45.5637,-54.3736 L 45.5493,-54.2955 L 45.5447,-54.2706 L 45.5405,-54.2533 L 45.5228,-54.1794 L 45.5202,-54.1688
 L 45.5051,-54.1178 L 45.4905,-54.0684 L 45.464,-53.9935 L 45.4555,-53.9697 L 45.4512,-53.9592 L 45.4487,-53.9533
 L 45.4155,-53.873 L 45.4073,-53.8559 L 45.3704,-53.7785 L 45.3619,-53.7628 L 45.3204,-53.6864 L 45.2789,-53.6187
 L 45.2657,-53.5972 L 45.2514,-53.5763 L 45.228,-53.5422 L 45.2165,-53.5255 L 45.2064,-53.5109 L 45.1956,-53.4968
 L 45.158,-53.4479 L 45.1427,-53.4278 L 45.0862,-53.3617 L 45.0747,-53.3482 L 45.02,-53.2906 L 45.0026,-53.2722
 L 44.9897,-53.26 L 44.9266,-53.2002 L 44.9074,-53.1838 L 44.847,-53.1322 L 44.8104,-53.1041 L 44.7639,-53.0684
 L 44.7351,-53.0486 L 44.6988,-53.0237 L 44.6776,-53.0091 L 44.6035,-52.9637 L 44.5884,-52.9544 L 44.5727,-52.9459
 L 44.4963,-52.9044 L 44.4803,-52.8967 L 44.4247,-52.8702 L 44.4018,-52.8593 L 44.3284,-52.8289 L 44.3051,-52.8193
 L 44.2302,-52.7928 L 44.2064,-52.7843 L 44.1822,-52.7772 L 44.106,-52.7546 L 44.0887,-52.7505 L 44.0042,-52.7301
 L 43.9867,-52.7269 L 43.9012,-52.7111 L 43.8836,-52.7087 L 43.8225,-52.7007 L 43.7974,-52.6974 L 43.7781,-52.6959
 L 43.7577,-52.6943 L 43.693,-52.6892 L 43.6136,-52.6871 L 43.5884,-52.6864 z
M 59.3153,-50.9389 L 59.3085,-50.9391 L 59.3083,-50.9391 L 59.3068,-50.9391 L 59.3048,-50.9392 L 59.2959,-50.9394
 L 59.2952,-50.9394 L 59.2716,-50.94 L 59.2538,-50.9414 L 59.1672,-50.9482 L 59.0906,-50.9583 L 59.0634,-50.9619
 L 59.0367,-50.9668 L 59.0265,-50.9687 L 59.0235,-50.9693 L 59.0212,-50.9697 L 59.0184,-50.9702 L 58.9853,-50.9764
 L 58.976,-50.9781 L 58.9654,-50.9801 L 58.9604,-50.981 L 58.944,-50.9849 L 58.9398,-50.9859 L 58.9358,-50.9869
 L 58.8586,-51.0055 L 58.8042,-51.0215 L 58.7582,-51.0352 L 58.7414,-51.0411 L 58.6595,-51.0701 L 58.6431,-51.0769
 L 58.5933,-51.0975 L 58.5903,-51.0987 L 58.5724,-51.1062 L 58.5677,-51.1081 L 58.567,-51.1084 L 58.5628,-51.1102
 L 58.5499,-51.1163 L 58.5467,-51.1178 L 58.4989,-51.1406 L 58.4683,-51.1552 L 58.3919,-51.1968 L 58.3762,-51.2052
 L 58.3611,-51.2146 L 58.3085,-51.2468 L 58.287,-51.26 L 58.2661,-51.2743 L 58.2347,-51.2959 L 58.2247,-51.3027
 L 58.2212,-51.3051 L 58.2007,-51.3193 L 58.1865,-51.3301 L 58.1785,-51.3363 L 58.1778,-51.3368 L 58.1436,-51.363
 L 58.1405,-51.3654 L 58.1405,-51.3655 L 58.1349,-51.3697 L 58.1325,-51.3716 L 58.1305,-51.3731 L 58.1176,-51.383
 L 58.1041,-51.3946 L 58.0752,-51.4192 L 58.0725,-51.4215 L 58.0642,-51.4286 L 58.0623,-51.4302 L 58.0565,-51.4352
 L 58.038,-51.451 L 58.0221,-51.4661 L 57.9804,-51.5057 L 57.962,-51.5231 L 57.9526,-51.533 L 57.9508,-51.5349
 L 57.9417,-51.5445 L 57.9396,-51.5467 L 57.9333,-51.5533 L 57.9022,-51.5861 L 57.8988,-51.5897 L 57.8971,-51.5915
 L 57.8899,-51.599 L 57.887,-51.6025 L 57.8803,-51.6104 L 57.8471,-51.6492 L 57.8385,-51.6593 L 57.8384,-51.6594
 L 57.8266,-51.6732 L 57.8236,-51.6767 L 57.8219,-51.6787 L 57.813,-51.6903 L 57.8111,-51.6928 L 57.811,-51.693
 L 57.8106,-51.6934 L 57.7988,-51.7088 L 57.7582,-51.7617 L 57.7439,-51.7825 L 57.7404,-51.7877 L 57.7401,-51.788
 L 57.7288,-51.8045 L 57.7174,-51.8211 L 57.7116,-51.8295 L 57.7076,-51.8354 L 57.7001,-51.8462 L 57.7,-51.8464
 L 57.6989,-51.848 L 57.6574,-51.9157 L 57.6442,-51.9373 L 57.6357,-51.9529 L 57.5942,-52.0293 L 57.5568,-52.1077
 L 57.5491,-52.1238 L 57.5187,-52.1972 L 57.5091,-52.2205 L 57.4826,-52.2954 L 57.4741,-52.3192 L 57.4612,-52.3629
 L 57.4528,-52.3913 L 57.4444,-52.4196 L 57.439,-52.4419 L 57.4389,-52.4425 L 57.4385,-52.4442 L 57.4241,-52.5041
 L 57.4199,-52.5215 L 57.419,-52.5264 L 57.4055,-52.5995 L 57.4009,-52.6244 L 57.3925,-52.6878 L 57.3872,-52.7282
 L 57.381,-52.8074 L 57.379,-52.8326 L 57.3785,-52.8504 L 57.3762,-52.9373 L 57.3763,-52.9395 L 57.3767,-52.955
 L 57.379,-53.0419 L 57.381,-53.0672 L 57.3853,-53.1226 L 57.3856,-53.1261 L 57.3872,-53.1463 L 57.3956,-53.2102
 L 57.3983,-53.2307 L 57.4009,-53.2501 L 57.4104,-53.3014 L 57.4199,-53.3531 L 57.4385,-53.4303 L 57.4444,-53.4549
 L 57.4494,-53.4719 L 57.4516,-53.4791 L 57.4741,-53.5553 L 57.4801,-53.5721 L 57.5043,-53.6407 L 57.5091,-53.654
 L 57.537,-53.7213 L 57.5395,-53.7274 L 57.5491,-53.7507 L 57.5568,-53.7668 L 57.5942,-53.8453 L 57.6027,-53.8609
 L 57.6106,-53.8753 L 57.6321,-53.9151 L 57.6442,-53.9373 L 57.6569,-53.958 L 57.6857,-54.005 L 57.6989,-54.0266
 L 57.7072,-54.0386 L 57.7086,-54.0406 L 57.7439,-54.092 L 57.7582,-54.1128 L 57.7982,-54.165 L 57.8008,-54.1683
 L 57.8219,-54.1959 L 57.8301,-54.2055 L 57.8735,-54.2563 L 57.8899,-54.2755 L 57.9029,-54.2892 L 57.962,-54.3515
 L 57.9749,-54.3637 L 58.0196,-54.4062 L 58.038,-54.4236 L 58.0572,-54.44 L 58.0918,-54.4695 L 58.0924,-54.47
 L 58.1176,-54.4916 L 58.1865,-54.5445 L 58.2007,-54.5553 L 58.2022,-54.5564 L 58.2113,-54.5626 L 58.2723,-54.6045
 L 58.287,-54.6146 L 58.3077,-54.6274 L 58.3255,-54.6382 L 58.3762,-54.6693 L 58.3919,-54.6778 L 58.4683,-54.7193
 L 58.4843,-54.7269 L 58.5399,-54.7535 L 58.5628,-54.7644 L 58.5712,-54.7679 L 58.5861,-54.774 L 58.6595,-54.8044
 L 58.6763,-54.8104 L 58.7344,-54.8309 L 58.7582,-54.8394 L 58.7824,-54.8466 L 58.852,-54.8672 L 58.8586,-54.8691
 L 58.8759,-54.8733 L 58.9604,-54.8936 L 58.9779,-54.8968 L 59.0634,-54.9126 L 59.081,-54.915 L 59.1043,-54.918
 L 59.1421,-54.923 L 59.1672,-54.9263 L 59.1924,-54.9283 L 59.2716,-54.9345 L 59.3008,-54.9353 L 59.3505,-54.9366
 L 59.3762,-54.9373 L 59.4022,-54.9366 L 59.4809,-54.9345 L 59.4851,-54.9342 L 59.5601,-54.9283 L 59.5853,-54.9263
 L 59.664,-54.9159 L 59.6891,-54.9126 L 59.7672,-54.8982 L 59.7822,-54.8954 L 59.7921,-54.8936 L 59.8094,-54.8894
 L 59.8693,-54.875 L 59.8939,-54.8691 L 59.97,-54.8466 L 59.9943,-54.8394 L 60.0181,-54.8309 L 60.0762,-54.8104
 L 60.093,-54.8044 L 60.1295,-54.7893 L 60.1813,-54.7679 L 60.1897,-54.7644 L 60.2058,-54.7567 L 60.2495,-54.7358
 L 60.2842,-54.7193 L 60.3606,-54.6778 L 60.3762,-54.6693 L 60.3914,-54.66 L 60.4655,-54.6146 L 60.4691,-54.6121
 L 60.4863,-54.6003 L 60.5518,-54.5553 L 60.5753,-54.5373 L 60.6071,-54.5129 L 60.6171,-54.5052 L 60.6349,-54.4916
 L 60.6495,-54.479 L 60.6583,-54.4716 L 60.6953,-54.44 L 60.6999,-54.436 L 60.7145,-54.4236 L 60.7274,-54.4113
 L 60.7721,-54.3689 L 60.7905,-54.3515 L 60.798,-54.3435 L 60.8363,-54.3032 L 60.8625,-54.2755 L 60.8636,-54.2743
 L 60.8875,-54.2463 L 60.9141,-54.2151 L 60.9305,-54.1959 L 60.9414,-54.1818 L 60.9789,-54.1329 L 60.9943,-54.1128
 L 61.0376,-54.0497 L 61.043,-54.0419 L 61.0536,-54.0266 L 61.0646,-54.0086 L 61.0868,-53.9723 L 61.1083,-53.9373
 L 61.1372,-53.8841 L 61.1401,-53.8787 L 61.1498,-53.8609 L 61.1582,-53.8453 L 61.1659,-53.8292 L 61.1853,-53.7885
 L 61.2033,-53.7507 L 61.2365,-53.6707 L 61.2434,-53.654 L 61.2493,-53.6372 L 61.2783,-53.5553 L 61.2998,-53.483
 L 61.3024,-53.4742 L 61.3081,-53.4549 L 61.3122,-53.4376 L 61.3266,-53.3777 L 61.3325,-53.3531 L 61.3371,-53.3282
 L 61.3516,-53.2501 L 61.362,-53.1714 L 61.3653,-53.1463 L 61.3715,-53.0671 L 61.3735,-53.0419 L 61.374,-53.0241
 L 61.375,-52.9831 L 61.3753,-52.9729 L 61.3762,-52.9373 L 61.3741,-52.8572 L 61.3735,-52.8326 L 61.3721,-52.8148
 L 61.3653,-52.7282 L 61.363,-52.7106 L 61.3516,-52.6244 L 61.3371,-52.5463 L 61.3325,-52.5215 L 61.3223,-52.4789
 L 61.3081,-52.4196 L 61.303,-52.4026 L 61.2783,-52.3192 L 61.272,-52.3013 L 61.272,-52.3013 L 61.2518,-52.2444
 L 61.2434,-52.2205 L 61.2033,-52.1238 L 61.1957,-52.1077 L 61.1582,-52.0293 L 61.1498,-52.0137 L 61.1083,-51.9373
 L 61.0565,-51.8528 L 61.0536,-51.848 L 61.0043,-51.7764 L 60.9943,-51.7617 L 60.9834,-51.7476 L 60.9305,-51.6787
 L 60.8741,-51.6126 L 60.8633,-51.5999 L 60.8625,-51.599 L 60.8078,-51.5414 L 60.7905,-51.5231 L 60.7775,-51.5108
 L 60.7328,-51.4684 L 60.7145,-51.451 L 60.6484,-51.3946 L 60.6349,-51.383 L 60.6208,-51.3722 L 60.5518,-51.3193
 L 60.4962,-51.281 L 60.4655,-51.26 L 60.3914,-51.2146 L 60.3762,-51.2052 L 60.3606,-51.1968 L 60.2842,-51.1552
 L 60.2682,-51.1476 L 60.2125,-51.121 L 60.1897,-51.1102 L 60.1733,-51.1034 L 60.1163,-51.0798 L 60.093,-51.0701
 L 60.0181,-51.0436 L 59.9943,-51.0352 L 59.9437,-51.0202 L 59.8939,-51.0055 L 59.8166,-50.9869 L 59.7921,-50.981
 L 59.7746,-50.9777 L 59.6891,-50.9619 L 59.6715,-50.9596 L 59.5853,-50.9482 L 59.5061,-50.942 L 59.4809,-50.94
 L 59.4631,-50.9396 L 59.4015,-50.9379 L 59.3762,-50.9373 z
M 51.1907,-45.1871 L 51.1708,-45.1876 L 51.0187,-45.1916 L 50.9746,-45.1951 L 50.8671,-45.2035 L 50.823,-45.207
 L 50.7792,-45.2127 L 50.6284,-45.2326 L 50.5849,-45.2407 L 50.4788,-45.2603 L 50.4353,-45.2684 L 50.3975,-45.2775
 L 50.2874,-45.3039 L 50.2444,-45.3143 L 50.202,-45.3268 L 50.1008,-45.3568 L 50.0562,-45.37 L 49.994,-45.392
 L 49.8711,-45.4355 L 49.8303,-45.4524 L 49.6897,-45.5106 L 49.6498,-45.5297 L 49.5525,-45.5761 L 49.5125,-45.5951
 L 49.3789,-45.6678 L 49.34,-45.6889 L 49.3197,-45.7013 L 49.3023,-45.712 L 49.2103,-45.7684 L 49.1726,-45.7915
 L 49.1477,-45.8086 L 49.1362,-45.8165 L 49.1131,-45.8324 L 49.0108,-45.9027 L 48.9757,-45.9296 L 48.9217,-45.971
 L 48.8901,-45.9953 L 48.8841,-45.9999 L 48.855,-46.0222 L 48.8511,-46.0256 L 48.7934,-46.0748 L 48.7666,-46.0978
 L 48.7457,-46.1156 L 48.7409,-46.1197 L 48.73,-46.129 L 48.7058,-46.1497 L 48.6643,-46.1891 L 48.6616,-46.1916
 L 48.5634,-46.2848 L 48.4587,-46.3952 L 48.4282,-46.4272 L 48.3929,-46.4686 L 48.3855,-46.4772 L 48.3294,-46.5429
 L 48.3007,-46.5765 L 48.2738,-46.6116 L 48.2098,-46.695 L 48.1878,-46.7237 L 48.1812,-46.7323 L 48.1285,-46.8089
 L 48.1169,-46.8258 L 48.095,-46.8576 L 48.0871,-46.8692 L 48.071,-46.8926 L 48.07,-46.894 L 48.0625,-46.9063
 L 48.0469,-46.9318 L 48.0226,-46.9713 L 47.9674,-47.0614 L 47.9476,-47.0978 L 47.9423,-47.1077 L 47.9073,-47.1722
 L 47.8737,-47.234 L 47.8478,-47.2883 L 47.8082,-47.3713 L 47.8069,-47.374 L 47.7892,-47.4112 L 47.7723,-47.452
 L 47.7475,-47.512 L 47.747,-47.5131 L 47.731,-47.5517 L 47.7141,-47.5926 L 47.6633,-47.7359 L 47.655,-47.7594
 L 47.6485,-47.7776 L 47.6304,-47.8388 L 47.6053,-47.9235 L 47.5928,-47.9659 L 47.5573,-48.1138 L 47.547,-48.1568
 L 47.5466,-48.1585 L 47.5371,-48.2099 L 47.5112,-48.3498 L 47.5109,-48.3521 L 47.51,-48.359 L 47.5024,-48.4168
 L 47.4913,-48.5006 L 47.489,-48.5181 L 47.4855,-48.5445 L 47.481,-48.6018 L 47.4701,-48.7402 L 47.469,-48.7844
 L 47.4664,-48.8813 L 47.4653,-48.9253 L 47.465,-48.9364 L 47.4655,-48.9559 L 47.4657,-48.9627 L 47.467,-49.012
 L 47.4672,-49.0202 L 47.469,-49.0885 L 47.4701,-49.1327 L 47.4768,-49.2173 L 47.4808,-49.2682 L 47.4855,-49.3284
 L 47.5021,-49.4543 L 47.5112,-49.5231 L 47.5192,-49.5666 L 47.547,-49.7161 L 47.5573,-49.7591 L 47.5928,-49.907
 L 47.5972,-49.9218 L 47.6053,-49.9494 L 47.636,-50.0529 L 47.6485,-50.0953 L 47.6633,-50.1369 L 47.7141,-50.2803
 L 47.731,-50.3212 L 47.7723,-50.4208 L 47.7892,-50.4617 L 47.8547,-50.599 L 47.8737,-50.6389 L 47.9463,-50.7726
 L 47.9674,-50.8114 L 47.9905,-50.8491 L 48.0469,-50.9411 L 48.07,-50.9788 L 48.095,-51.0153 L 48.1812,-51.1406
 L 48.2096,-51.1776 L 48.3007,-51.2964 L 48.3995,-51.412 L 48.4282,-51.4457 L 48.4587,-51.4778 L 48.5329,-51.556
 L 48.5634,-51.5881 L 48.5954,-51.6185 L 48.7058,-51.7232 L 48.7394,-51.752 L 48.855,-51.8507 L 48.9757,-51.9433
 L 49.0108,-51.9703 L 49.1362,-52.0564 L 49.1726,-52.0815 L 49.27,-52.1411 L 49.3066,-52.1636 L 49.34,-52.184
 L 49.3801,-52.2058 L 49.3818,-52.2067 L 49.4688,-52.2539 L 49.4979,-52.2697 L 49.5125,-52.2777 L 49.5452,-52.2933
 L 49.5525,-52.2968 L 49.6498,-52.3432 L 49.6861,-52.3605 L 49.6897,-52.3622 L 49.8303,-52.4204 L 49.8711,-52.4374
 L 49.9128,-52.4521 L 50.0562,-52.5029 L 50.0986,-52.5155 L 50.129,-52.5245 L 50.2444,-52.5587 L 50.2674,-52.5642
 L 50.3923,-52.5942 L 50.4353,-52.6045 L 50.5849,-52.6322 L 50.6284,-52.6403 L 50.6722,-52.646 L 50.7792,-52.6601
 L 50.823,-52.6659 L 50.8671,-52.6694 L 51.0187,-52.6813 L 51.1551,-52.6849 L 51.215,-52.6864 L 51.2741,-52.6849
 L 51.4113,-52.6813 L 51.5629,-52.6694 L 51.607,-52.6659 L 51.7578,-52.646 L 51.8016,-52.6403 L 51.8451,-52.6322
 L 51.9947,-52.6045 L 52.0377,-52.5942 L 52.1426,-52.569 L 52.1856,-52.5587 L 52.3314,-52.5155 L 52.3738,-52.5029
 L 52.5589,-52.4374 L 52.5997,-52.4204 L 52.7403,-52.3622 L 52.7802,-52.3432 L 52.8775,-52.2968 L 52.9175,-52.2777
 L 52.9563,-52.2566 L 53.0743,-52.1925 L 53.09,-52.184 L 53.1118,-52.1707 L 53.1277,-52.1609 L 53.218,-52.1056
 L 53.2397,-52.0923 L 53.2574,-52.0815 L 53.2938,-52.0564 L 53.3848,-51.9939 L 53.4017,-51.9823 L 53.4192,-51.9703
 L 53.4516,-51.9454 L 53.4545,-51.9432 L 53.4615,-51.9378 L 53.4902,-51.9157 L 53.5187,-51.8939 L 53.533,-51.883
 L 53.575,-51.8507 L 53.5812,-51.8454 L 53.6086,-51.822 L 53.6906,-51.752 L 53.7237,-51.7237 L 53.7242,-51.7232
 L 53.7418,-51.7066 L 53.7446,-51.7039 L 53.7563,-51.6928 L 53.7716,-51.6782 L 53.8667,-51.5881 L 53.916,-51.5361
 L 53.9467,-51.5038 L 53.9656,-51.4839 L 54.0018,-51.4457 L 54.0305,-51.412 L 54.1006,-51.33 L 54.1293,-51.2964
 L 54.1565,-51.261 L 54.1832,-51.2262 L 54.1851,-51.2236 L 54.1951,-51.2106 L 54.2109,-51.19 L 54.2488,-51.1406
 L 54.2596,-51.125 L 54.2739,-51.1042 L 54.3079,-51.0547 L 54.3407,-51.007 L 54.36,-50.9788 L 54.3967,-50.9189
 L 54.4395,-50.8491 L 54.4542,-50.8251 L 54.4626,-50.8114 L 54.4673,-50.8029 L 54.4816,-50.7765 L 54.4837,-50.7726
 L 54.524,-50.6984 L 54.5563,-50.6389 L 54.5606,-50.6299 L 54.5753,-50.599 L 54.619,-50.5074 L 54.6408,-50.4617
 L 54.6577,-50.4208 L 54.6805,-50.3658 L 54.7159,-50.2803 L 54.7307,-50.2386 L 54.777,-50.1077 L 54.7815,-50.0953
 L 54.7891,-50.0694 L 54.8247,-49.9494 L 54.8372,-49.907 L 54.8476,-49.864 L 54.8831,-49.7161 L 54.8911,-49.6726
 L 54.9072,-49.5861 L 54.9188,-49.5231 L 54.9246,-49.4792 L 54.9387,-49.3723 L 54.9445,-49.3284 L 54.9564,-49.1768
 L 54.9599,-49.1327 L 54.961,-49.0885 L 54.965,-48.9364 L 54.962,-48.8219 L 54.961,-48.7844 L 54.9599,-48.7402
 L 54.9577,-48.7127 L 54.9479,-48.5885 L 54.9445,-48.5445 L 54.9387,-48.5006 L 54.9246,-48.3937 L 54.9203,-48.3611
 L 54.9188,-48.3498 L 54.9108,-48.3063 L 54.8831,-48.1568 L 54.8372,-47.9659 L 54.8247,-47.9235 L 54.7939,-47.8198
 L 54.7912,-47.8105 L 54.7815,-47.7776 L 54.7307,-47.6343 L 54.7159,-47.5926 L 54.699,-47.5517 L 54.6577,-47.452
 L 54.6408,-47.4112 L 54.6048,-47.3356 L 54.5563,-47.234 L 54.5453,-47.2139 L 54.5352,-47.1951 L 54.4837,-47.1003
 L 54.4626,-47.0614 L 54.4395,-47.0237 L 54.3831,-46.9318 L 54.36,-46.894 L 54.3202,-46.8362 L 54.2488,-46.7323
 L 54.1562,-46.6116 L 54.1493,-46.6026 L 54.1293,-46.5765 L 54.1006,-46.5429 L 54.0305,-46.4609 L 54.0018,-46.4272
 L 53.8667,-46.2848 L 53.8346,-46.2544 L 53.7242,-46.1497 L 53.6086,-46.0509 L 53.575,-46.0222 L 53.5399,-45.9953
 L 53.5398,-45.9952 L 53.4192,-45.9027 L 53.4033,-45.8917 L 53.2938,-45.8165 L 53.2574,-45.7915 L 53.1277,-45.712
 L 53.09,-45.6889 L 53.0511,-45.6678 L 53.0286,-45.6555 L 52.9175,-45.5951 L 52.8943,-45.5841 L 52.7954,-45.5369
 L 52.7802,-45.5297 L 52.7403,-45.5106 L 52.7279,-45.5055 L 52.5997,-45.4524 L 52.5589,-45.4355 L 52.4155,-45.3848
 L 52.3738,-45.37 L 52.3431,-45.3609 L 52.228,-45.3268 L 52.1856,-45.3143 L 52.1426,-45.3039 L 51.9947,-45.2684
 L 51.9577,-45.2616 L 51.8451,-45.2407 L 51.8016,-45.2326 L 51.6803,-45.2166 L 51.6602,-45.214 L 51.6549,-45.2133
 L 51.607,-45.207 L 51.4553,-45.1951 L 51.4113,-45.1916 L 51.2592,-45.1876 L 51.215,-45.1864 z
M 41.9069,-46.6063 L 41.8817,-46.607 L 41.8639,-46.6084 L 41.8025,-46.6132 L 41.7773,-46.6152 L 41.6985,-46.6255
 L 41.6735,-46.6288 L 41.656,-46.6321 L 41.5705,-46.6479 L 41.5459,-46.6538 L 41.486,-46.6682 L 41.4687,-46.6724
 L 41.4516,-46.6774 L 41.3925,-46.6949 L 41.3683,-46.7021 L 41.3515,-46.7081 L 41.2934,-46.7286 L 41.2696,-46.7371
 L 41.2532,-46.7439 L 41.1962,-46.7674 L 41.1729,-46.7771 L 41.1568,-46.7848 L 41.0784,-46.8222 L 41.002,-46.8637
 L 40.9863,-46.8722 L 40.9712,-46.8815 L 40.8971,-46.9269 L 40.8866,-46.9341 L 40.8598,-46.9525 L 40.8108,-46.9862
 L 40.7966,-46.997 L 40.753,-47.0305 L 40.7495,-47.0332 L 40.7277,-47.0499 L 40.7142,-47.0615 L 40.6673,-47.1015
 L 40.6481,-47.1179 L 40.6352,-47.1302 L 40.5905,-47.1726 L 40.5721,-47.19 L 40.5416,-47.2222 L 40.5,-47.266
 L 40.4885,-47.2795 L 40.432,-47.3456 L 40.4149,-47.368 L 40.3683,-47.4287 L 40.354,-47.4495 L 40.309,-47.5149
 L 40.2675,-47.5827 L 40.2662,-47.5847 L 40.2543,-47.6042 L 40.2249,-47.6583 L 40.2043,-47.6962 L 40.1669,-47.7747
 L 40.1592,-47.7907 L 40.141,-47.8347 L 40.1192,-47.8875 L 40.0986,-47.9456 L 40.0842,-47.9862 L 40.0706,-48.0322
 L 40.0545,-48.0866 L 40.0486,-48.1111 L 40.0471,-48.1173 L 40.034,-48.1719 L 40.03,-48.1884 L 40.0268,-48.2059
 L 40.011,-48.2913 L 39.9996,-48.3775 L 39.9973,-48.3952 L 39.9957,-48.4152 L 39.9891,-48.4995 L 39.987,-48.5789
 L 39.9863,-48.6042 L 39.9868,-48.622 L 39.9891,-48.7089 L 39.9901,-48.7223 L 39.9954,-48.7889 L 39.9973,-48.8133
 L 39.9996,-48.8309 L 40.0077,-48.892 L 40.011,-48.9171 L 40.0225,-48.9792 L 40.0254,-48.9952 L 40.03,-49.02
 L 40.0486,-49.0973 L 40.0545,-49.1218 L 40.0562,-49.1277 L 40.0592,-49.1378 L 40.0706,-49.1762 L 40.0842,-49.2222
 L 40.1107,-49.2971 L 40.1192,-49.3209 L 40.1397,-49.3706 L 40.1592,-49.4177 L 40.1834,-49.4683 L 40.1934,-49.4894
 L 40.2043,-49.5122 L 40.2128,-49.5278 L 40.2543,-49.6042 L 40.261,-49.6152 L 40.2695,-49.629 L 40.309,-49.6935
 L 40.354,-49.759 L 40.3683,-49.7798 L 40.3815,-49.797 L 40.4009,-49.8222 L 40.432,-49.8629 L 40.4436,-49.8764
 L 40.5,-49.9425 L 40.5123,-49.9554 L 40.5721,-50.0184 L 40.6297,-50.0731 L 40.6481,-50.0905 L 40.6809,-50.1185
 L 40.7277,-50.1585 L 40.7966,-50.2114 L 40.8108,-50.2222 L 40.8316,-50.2366 L 40.8824,-50.2715 L 40.8971,-50.2816
 L 40.9122,-50.2908 L 40.9863,-50.3363 L 41.0375,-50.364 L 41.0649,-50.3789 L 41.0784,-50.3862 L 41.0944,-50.3939
 L 41.1729,-50.4313 L 41.1946,-50.4403 L 41.2532,-50.4646 L 41.2696,-50.4714 L 41.2864,-50.4773 L 41.3683,-50.5063
 L 41.3925,-50.5135 L 41.4687,-50.5361 L 41.5459,-50.5546 L 41.5705,-50.5605 L 41.588,-50.5637 L 41.6486,-50.575
 L 41.6735,-50.5796 L 41.6911,-50.5819 L 41.7522,-50.59 L 41.7773,-50.5933 L 41.8025,-50.5952 L 41.8817,-50.6015
 L 41.9504,-50.6033 L 41.9863,-50.6042 L 42.0223,-50.6033 L 42.091,-50.6015 L 42.1702,-50.5952 L 42.1954,-50.5933
 L 42.2741,-50.5829 L 42.2992,-50.5796 L 42.3167,-50.5763 L 42.4022,-50.5605 L 42.4195,-50.5564 L 42.504,-50.5361
 L 42.5801,-50.5135 L 42.6044,-50.5063 L 42.6863,-50.4773 L 42.7031,-50.4714 L 42.7998,-50.4313 L 42.8159,-50.4236
 L 42.8715,-50.3971 L 42.8943,-50.3862 L 42.9863,-50.3363 L 43.0541,-50.2948 L 43.0756,-50.2816 L 43.0964,-50.2672
 L 43.1472,-50.2323 L 43.1512,-50.2296 L 43.1619,-50.2222 L 43.166,-50.2191 L 43.176,-50.2114 L 43.2249,-50.1739
 L 43.245,-50.1585 L 43.2712,-50.1361 L 43.3246,-50.0905 L 43.3325,-50.083 L 43.3412,-50.0748 L 43.3622,-50.0548
 L 43.3822,-50.0358 L 43.4005,-50.0184 L 43.4604,-49.9554 L 43.4726,-49.9425 L 43.4842,-49.9289 L 43.5406,-49.8629
 L 43.6044,-49.7798 L 43.6187,-49.7589 L 43.6543,-49.7071 L 43.6637,-49.6935 L 43.6821,-49.6634 L 43.7052,-49.6258
 L 43.7184,-49.6042 L 43.7304,-49.582 L 43.7683,-49.5122 L 43.776,-49.4961 L 43.8134,-49.4177 L 43.8307,-49.376
 L 43.8467,-49.3374 L 43.851,-49.327 L 43.851,-49.327 L 43.8516,-49.3256 L 43.8517,-49.3254 L 43.8524,-49.3235
 L 43.8524,-49.3235 L 43.8535,-49.3209 L 43.88,-49.2461 L 43.8884,-49.2222 L 43.9131,-49.1389 L 43.9182,-49.1218
 L 43.9367,-49.0446 L 43.9426,-49.02 L 43.9472,-48.9952 L 43.9617,-48.9171 L 43.9691,-48.8611 L 43.9754,-48.8133
 L 43.9816,-48.7341 L 43.9836,-48.7089 L 43.9843,-48.6808 L 43.9848,-48.6637 L 43.9848,-48.6635 L 43.985,-48.6567
 L 43.9852,-48.6457 L 43.9857,-48.6295 L 43.9863,-48.6042 L 43.9836,-48.4995 L 43.9822,-48.4818 L 43.9754,-48.3952
 L 43.965,-48.3164 L 43.9617,-48.2913 L 43.9472,-48.2132 L 43.9426,-48.1884 L 43.9385,-48.1711 L 43.9241,-48.1111
 L 43.9182,-48.0866 L 43.9131,-48.0695 L 43.8884,-47.9862 L 43.8825,-47.9694 L 43.8681,-47.9288 L 43.8619,-47.9113
 L 43.8535,-47.8875 L 43.8467,-47.871 L 43.8231,-47.8141 L 43.8165,-47.7981 L 43.8134,-47.7907 L 43.8058,-47.7747
 L 43.7683,-47.6962 L 43.7616,-47.6839 L 43.7599,-47.6806 L 43.7304,-47.6264 L 43.7184,-47.6042 L 43.6769,-47.5365
 L 43.6637,-47.5149 L 43.6494,-47.4941 L 43.6144,-47.4433 L 43.6044,-47.4287 L 43.587,-47.406 L 43.5406,-47.3456
 L 43.4842,-47.2795 L 43.4726,-47.266 L 43.4604,-47.2531 L 43.4179,-47.2083 L 43.4005,-47.19 L 43.3512,-47.1432
 L 43.3456,-47.1379 L 43.3429,-47.1353 L 43.3246,-47.1179 L 43.3054,-47.1015 L 43.2585,-47.0615 L 43.245,-47.0499
 L 43.2132,-47.0256 L 43.1829,-47.0023 L 43.1619,-46.9862 L 43.1278,-46.9627 L 43.0756,-46.9269 L 43.0541,-46.9137
 L 43.0015,-46.8815 L 42.9863,-46.8722 L 42.9707,-46.8637 L 42.8943,-46.8222 L 42.8226,-46.788 L 42.7998,-46.7771
 L 42.7834,-46.7703 L 42.7264,-46.7467 L 42.7031,-46.7371 L 42.6282,-46.7105 L 42.6044,-46.7021 L 42.5801,-46.6949
 L 42.521,-46.6774 L 42.504,-46.6724 L 42.4867,-46.6682 L 42.4267,-46.6538 L 42.4022,-46.6479 L 42.3241,-46.6335
 L 42.2992,-46.6288 L 42.2816,-46.6265 L 42.1954,-46.6152 L 42.1162,-46.6089 L 42.091,-46.607 L 42.0732,-46.6065
 L 41.9863,-46.6042 z
M 60.2115,-44.9378 L 60.1753,-44.9387 L 60.1534,-44.9393 L 60.1464,-44.9395 L 60.1266,-44.94 L 60.1246,-44.94
 L 60.1069,-44.9414 L 60.0454,-44.9463 L 60.0202,-44.9482 L 60.0026,-44.9506 L 59.9164,-44.9619 L 59.8989,-44.9652
 L 59.8383,-44.9764 L 59.8135,-44.981 L 59.7889,-44.9869 L 59.7116,-45.0055 L 59.6355,-45.028 L 59.6112,-45.0352
 L 59.5637,-45.052 L 59.5126,-45.0701 L 59.4961,-45.0769 L 59.475,-45.0857 L 59.453,-45.0948 L 59.4158,-45.1102
 L 59.3973,-45.119 L 59.3866,-45.1241 L 59.3441,-45.1444 L 59.3213,-45.1553 L 59.3148,-45.1588 L 59.3138,-45.1593
 L 59.2991,-45.1673 L 59.2449,-45.1968 L 59.2293,-45.2053 L 59.2141,-45.2146 L 59.1616,-45.2468 L 59.14,-45.26
 L 59.1192,-45.2743 L 59.0899,-45.2944 L 59.0537,-45.3193 L 59.0261,-45.3404 L 59.0177,-45.3469 L 59.0161,-45.3481
 L 58.9907,-45.3676 L 58.9866,-45.3708 L 58.9706,-45.383 L 58.9492,-45.4014 L 58.9403,-45.409 L 58.9247,-45.4222
 L 58.891,-45.451 L 58.8781,-45.4633 L 58.8582,-45.4822 L 58.858,-45.4823 L 58.8579,-45.4824 L 58.8151,-45.5231
 L 58.7977,-45.5414 L 58.7974,-45.5417 L 58.7815,-45.5585 L 58.743,-45.599 L 58.7314,-45.6126 L 58.7092,-45.6386
 L 58.6978,-45.652 L 58.675,-45.6787 L 58.6642,-45.6928 L 58.6112,-45.7617 L 58.5772,-45.8112 L 58.5519,-45.848
 L 58.5426,-45.8632 L 58.5104,-45.9157 L 58.4972,-45.9373 L 58.4593,-46.0071 L 58.4515,-46.0216 L 58.4473,-46.0293
 L 58.4364,-46.0521 L 58.4098,-46.1077 L 58.4022,-46.1238 L 58.3954,-46.1402 L 58.3932,-46.1455 L 58.3743,-46.1911
 L 58.3652,-46.2131 L 58.3644,-46.2151 L 58.3621,-46.2205 L 58.3473,-46.2625 L 58.3441,-46.2715 L 58.3424,-46.2763
 L 58.3356,-46.2954 L 58.3272,-46.3192 L 58.3221,-46.3363 L 58.3046,-46.3954 L 58.303,-46.4008 L 58.2974,-46.4196
 L 58.2971,-46.421 L 58.2832,-46.479 L 58.2819,-46.4845 L 58.2771,-46.5042 L 58.273,-46.5215 L 58.2707,-46.5338
 L 58.2698,-46.5389 L 58.2539,-46.6244 L 58.2506,-46.6495 L 58.2402,-46.7282 L 58.2374,-46.7641 L 58.234,-46.8075
 L 58.232,-46.8326 L 58.2317,-46.8461 L 58.2316,-46.8505 L 58.2303,-46.8976 L 58.2302,-46.9005 L 58.2293,-46.9373
 L 58.2314,-47.0168 L 58.232,-47.042 L 58.234,-47.0672 L 58.2402,-47.1463 L 58.2426,-47.164 L 58.2506,-47.2251
 L 58.2539,-47.2501 L 58.2572,-47.2677 L 58.2663,-47.3171 L 58.2689,-47.331 L 58.273,-47.3531 L 58.2732,-47.3538
 L 58.2794,-47.38 L 58.2832,-47.3956 L 58.2867,-47.4102 L 58.2974,-47.4549 L 58.3046,-47.4791 L 58.3272,-47.5553
 L 58.3299,-47.563 L 58.3517,-47.6246 L 58.3537,-47.6302 L 58.3621,-47.654 L 58.3689,-47.6705 L 58.3925,-47.7274
 L 58.4022,-47.7508 L 58.4195,-47.787 L 58.4211,-47.7904 L 58.4364,-47.8224 L 58.4473,-47.8453 L 58.4558,-47.8609
 L 58.4852,-47.9151 L 58.4972,-47.9373 L 58.5065,-47.9524 L 58.5387,-48.005 L 58.5519,-48.0266 L 58.562,-48.0412
 L 58.5969,-48.092 L 58.6112,-48.1129 L 58.6221,-48.127 L 58.6596,-48.1759 L 58.675,-48.1959 L 58.6865,-48.2094
 L 58.7266,-48.2563 L 58.743,-48.2755 L 58.7977,-48.3332 L 58.8151,-48.3515 L 58.8256,-48.3615 L 58.828,-48.3637
 L 58.891,-48.4236 L 58.9571,-48.48 L 58.9706,-48.4916 L 58.9907,-48.507 L 59.0345,-48.5406 L 59.0537,-48.5553
 L 59.1253,-48.6045 L 59.14,-48.6146 L 59.1552,-48.6239 L 59.2077,-48.6561 L 59.2293,-48.6693 L 59.264,-48.6882
 L 59.2991,-48.7072 L 59.3213,-48.7193 L 59.3374,-48.727 L 59.4158,-48.7644 L 59.4392,-48.774 L 59.5126,-48.8044
 L 59.5298,-48.8106 L 59.6112,-48.8394 L 59.6355,-48.8466 L 59.6946,-48.8641 L 59.7116,-48.8691 L 59.7889,-48.8877
 L 59.8135,-48.8936 L 59.9164,-48.9127 L 59.9952,-48.923 L 60.0096,-48.9249 L 60.0202,-48.9263 L 60.0454,-48.9283
 L 60.1246,-48.9345 L 60.2024,-48.9366 L 60.2293,-48.9373 L 60.2545,-48.9366 L 60.334,-48.9345 L 60.3658,-48.932
 L 60.4131,-48.9283 L 60.4383,-48.9263 L 60.4801,-48.9208 L 60.5201,-48.9156 L 60.5421,-48.9127 L 60.5596,-48.9094
 L 60.6203,-48.8982 L 60.6451,-48.8936 L 60.7469,-48.8691 L 60.764,-48.8641 L 60.8473,-48.8394 L 60.8786,-48.8283
 L 60.9104,-48.817 L 60.946,-48.8044 L 60.9625,-48.7976 L 61.0428,-48.7644 L 61.0588,-48.7567 L 61.1373,-48.7193
 L 61.1996,-48.6854 L 61.2293,-48.6693 L 61.245,-48.6597 L 61.2473,-48.6583 L 61.2609,-48.65 L 61.3186,-48.6146
 L 61.3394,-48.6003 L 61.387,-48.5676 L 61.4049,-48.5553 L 61.4679,-48.507 L 61.482,-48.4961 L 61.4879,-48.4916
 L 61.4936,-48.4867 L 61.5015,-48.48 L 61.5294,-48.4562 L 61.5675,-48.4236 L 61.6252,-48.3689 L 61.635,-48.3595
 L 61.6435,-48.3515 L 61.6443,-48.3506 L 61.6473,-48.3474 L 61.6576,-48.3367 L 61.6587,-48.3355 L 61.6948,-48.2974
 L 61.7156,-48.2755 L 61.73,-48.2586 L 61.7381,-48.2492 L 61.7381,-48.2492 L 61.7467,-48.2391 L 61.764,-48.2189
 L 61.7641,-48.2187 L 61.7726,-48.2087 L 61.7836,-48.1959 L 61.7944,-48.1818 L 61.8004,-48.174 L 61.8276,-48.1385
 L 61.8473,-48.1129 L 61.9066,-48.0266 L 61.9481,-47.9588 L 61.9613,-47.9373 L 61.9734,-47.9151 L 61.9875,-47.8891
 L 62.0028,-47.8609 L 62.0113,-47.8453 L 62.0116,-47.8447 L 62.0125,-47.8427 L 62.0209,-47.825 L 62.0455,-47.7736
 L 62.0564,-47.7508 L 62.066,-47.7274 L 62.0794,-47.6951 L 62.0958,-47.6557 L 62.0964,-47.654 L 62.1314,-47.5553
 L 62.1386,-47.5311 L 62.1611,-47.4549 L 62.1653,-47.4376 L 62.1856,-47.3531 L 62.1862,-47.3498 L 62.1902,-47.3283
 L 62.2047,-47.2501 L 62.2142,-47.1779 L 62.2183,-47.1463 L 62.2201,-47.1235 L 62.2265,-47.042 L 62.227,-47.0241
 L 62.2286,-46.9625 L 62.2293,-46.9373 L 62.2279,-46.8837 L 62.227,-46.8504 L 62.2265,-46.8326 L 62.2251,-46.8148
 L 62.2183,-46.7282 L 62.216,-46.7106 L 62.208,-46.6495 L 62.2047,-46.6244 L 62.2014,-46.6069 L 62.1974,-46.5853
 L 62.1856,-46.5215 L 62.1822,-46.5074 L 62.1611,-46.4196 L 62.1386,-46.3435 L 62.1314,-46.3192 L 62.0964,-46.2205
 L 62.066,-46.1472 L 62.0564,-46.1238 L 62.0222,-46.0521 L 62.0113,-46.0293 L 62.0028,-46.0137 L 61.9734,-45.9595
 L 61.9613,-45.9373 L 61.952,-45.9221 L 61.9066,-45.848 L 61.8841,-45.8152 L 61.8473,-45.7617 L 61.799,-45.6987
 L 61.7836,-45.6787 L 61.7672,-45.6595 L 61.7271,-45.6126 L 61.7156,-45.599 L 61.7148,-45.5982 L 61.7033,-45.5861
 L 61.6435,-45.5231 L 61.6306,-45.5108 L 61.5675,-45.451 L 61.5015,-45.3946 L 61.4879,-45.383 L 61.4738,-45.3722
 L 61.4431,-45.3486 L 61.4265,-45.3359 L 61.4049,-45.3193 L 61.3394,-45.2743 L 61.3186,-45.26 L 61.297,-45.2468
 L 61.2444,-45.2146 L 61.2293,-45.2053 L 61.2182,-45.1993 L 61.2136,-45.1968 L 61.1373,-45.1553 L 61.1212,-45.1476
 L 61.0785,-45.1272 L 61.0428,-45.1102 L 61.0263,-45.1034 L 60.946,-45.0701 L 60.8743,-45.0447 L 60.8473,-45.0352
 L 60.8231,-45.028 L 60.7469,-45.0055 L 60.7207,-44.9992 L 60.716,-44.998 L 60.6697,-44.9869 L 60.6451,-44.981
 L 60.6067,-44.9739 L 60.5421,-44.9619 L 60.4634,-44.9515 L 60.4383,-44.9482 L 60.3943,-44.9448 L 60.334,-44.94
 L 60.3162,-44.9396 L 60.2293,-44.9373 z
M 44.5013,-41.1881 L 44.4592,-41.1892 L 44.4415,-41.1906 L 44.38,-41.1954 L 44.3548,-41.1974 L 44.3372,-41.1997
 L 44.251,-41.2111 L 44.2335,-41.2143 L 44.1481,-41.2302 L 44.1235,-41.2361 L 44.0463,-41.2546 L 44.0292,-41.2597
 L 43.9701,-41.2772 L 43.9459,-41.2844 L 43.9291,-41.2903 L 43.8472,-41.3193 L 43.8307,-41.3261 L 43.7738,-41.3497
 L 43.7504,-41.3593 L 43.7344,-41.367 L 43.6787,-41.3935 L 43.6559,-41.4044 L 43.5795,-41.4459 L 43.5639,-41.4544
 L 43.5487,-41.4637 L 43.4983,-41.4946 L 43.4746,-41.5091 L 43.404,-41.5576 L 43.3883,-41.5684 L 43.3382,-41.6069
 L 43.3053,-41.6322 L 43.2917,-41.6437 L 43.2256,-41.7002 L 43.2127,-41.7124 L 43.1497,-41.7723 L 43.1191,-41.8044
 L 43.0776,-41.8482 L 43.0661,-41.8617 L 43.0096,-41.9278 L 42.9818,-41.964 L 42.9459,-42.0109 L 42.9248,-42.0415
 L 42.8966,-42.0825 L 42.8866,-42.0972 L 42.8773,-42.1123 L 42.8396,-42.1738 L 42.8318,-42.1865 L 42.8201,-42.2081
 L 42.7939,-42.2563 L 42.7887,-42.2658 L 42.7819,-42.2785 L 42.7524,-42.3402 L 42.7445,-42.3569 L 42.7368,-42.373
 L 42.73,-42.3894 L 42.6967,-42.4697 L 42.6908,-42.4865 L 42.6618,-42.5684 L 42.6409,-42.6391 L 42.632,-42.6688
 L 42.6301,-42.6771 L 42.6118,-42.7533 L 42.6076,-42.7706 L 42.6044,-42.7881 L 42.5885,-42.8736 L 42.5852,-42.8987
 L 42.5772,-42.9598 L 42.5749,-42.9774 L 42.5701,-43.038 L 42.5686,-43.0566 L 42.5677,-43.0679 L 42.5666,-43.0818
 L 42.5653,-43.1314 L 42.5639,-43.1865 L 42.566,-43.2658 L 42.5666,-43.2911 L 42.5686,-43.3163 L 42.5749,-43.3955
 L 42.5772,-43.4131 L 42.5852,-43.4743 L 42.5881,-43.496 L 42.5882,-43.4971 L 42.5885,-43.4993 L 42.5916,-43.5159
 L 42.5918,-43.5168 L 42.603,-43.5774 L 42.6076,-43.6023 L 42.6261,-43.6795 L 42.632,-43.7041 L 42.6481,-43.7584
 L 42.6618,-43.8045 L 42.6883,-43.8794 L 42.6967,-43.9032 L 42.7157,-43.9489 L 42.7368,-43.9999 L 42.7566,-44.0415
 L 42.7819,-44.0944 L 42.7904,-44.1101 L 42.8318,-44.1865 L 42.8411,-44.2016 L 42.8866,-44.2757 L 42.8966,-44.2904
 L 42.9459,-44.362 L 42.9567,-44.3761 L 43.0096,-44.4451 L 43.0212,-44.4586 L 43.0623,-44.5068 L 43.0776,-44.5247
 L 43.0899,-44.5376 L 43.1323,-44.5823 L 43.1497,-44.6007 L 43.1626,-44.6129 L 43.1996,-44.6481 L 43.2045,-44.6527
 L 43.2256,-44.6727 L 43.2585,-44.7008 L 43.3053,-44.7407 L 43.3253,-44.7561 L 43.3742,-44.7937 L 43.3883,-44.8045
 L 43.4092,-44.8188 L 43.4746,-44.8638 L 43.4898,-44.8731 L 43.5639,-44.9185 L 43.6337,-44.9564 L 43.6559,-44.9685
 L 43.7452,-45.011 L 43.7504,-45.0135 L 43.8045,-45.036 L 43.824,-45.044 L 43.8472,-45.0536 L 43.9459,-45.0886
 L 43.9701,-45.0957 L 44.0394,-45.1163 L 44.0463,-45.1183 L 44.0564,-45.1207 L 44.1235,-45.1368 L 44.1481,-45.1427
 L 44.1656,-45.146 L 44.2262,-45.1572 L 44.251,-45.1618 L 44.2687,-45.1642 L 44.3318,-45.1725 L 44.3548,-45.1755
 L 44.3925,-45.1785 L 44.3986,-45.1789 L 44.4592,-45.1837 L 44.5379,-45.1858 L 44.5639,-45.1864 L 44.5901,-45.1858
 L 44.6401,-45.1845 L 44.641,-45.1844 L 44.6686,-45.1837 L 44.7478,-45.1775 L 44.773,-45.1755 L 44.8517,-45.1651
 L 44.8768,-45.1618 L 44.8943,-45.1586 L 44.9539,-45.1475 L 44.9633,-45.1458 L 44.9696,-45.1446 L 44.9717,-45.1442
 L 44.9797,-45.1427 L 44.997,-45.1386 L 45.043,-45.1276 L 45.0815,-45.1183 L 45.1269,-45.1049 L 45.1577,-45.0957
 L 45.1819,-45.0886 L 45.224,-45.0737 L 45.2389,-45.0684 L 45.2464,-45.0657 L 45.2581,-45.0616 L 45.2585,-45.0614
 L 45.2653,-45.059 L 45.2751,-45.0556 L 45.2806,-45.0536 L 45.2916,-45.0491 L 45.3774,-45.0135 L 45.3934,-45.0059
 L 45.4491,-44.9793 L 45.4719,-44.9685 L 45.4941,-44.9564 L 45.5378,-44.9327 L 45.5423,-44.9302 L 45.5639,-44.9185
 L 45.5916,-44.9015 L 45.6038,-44.894 L 45.6532,-44.8638 L 45.674,-44.8495 L 45.7345,-44.8079 L 45.7357,-44.8071
 L 45.7378,-44.8056 L 45.7395,-44.8045 L 45.7536,-44.7937 L 45.8025,-44.7561 L 45.8225,-44.7407 L 45.8287,-44.7355
 L 45.8287,-44.7355 L 45.8291,-44.7351 L 45.8313,-44.7333 L 45.8361,-44.7292 L 45.8398,-44.726 L 45.9022,-44.6727
 L 45.9616,-44.6163 L 45.9781,-44.6007 L 45.9934,-44.5845 L 46.0175,-44.5591 L 46.0379,-44.5376 L 46.0502,-44.5247
 L 46.0617,-44.5112 L 46.0789,-44.4911 L 46.1182,-44.4451 L 46.1197,-44.4431 L 46.1368,-44.4209 L 46.1383,-44.4189
 L 46.163,-44.3867 L 46.1819,-44.362 L 46.2163,-44.312 L 46.2412,-44.2757 L 46.2595,-44.2459 L 46.2653,-44.2364
 L 46.2832,-44.2072 L 46.2907,-44.195 L 46.2959,-44.1865 L 46.3032,-44.173 L 46.308,-44.1642 L 46.3459,-44.0944
 L 46.3801,-44.0227 L 46.391,-43.9999 L 46.4311,-43.9032 L 46.4458,-43.8614 L 46.4576,-43.8283 L 46.466,-43.8045
 L 46.4732,-43.7803 L 46.477,-43.7674 L 46.477,-43.7674 L 46.4773,-43.7662 L 46.4774,-43.7662 L 46.4907,-43.7211
 L 46.4958,-43.7041 L 46.5113,-43.6393 L 46.5132,-43.6315 L 46.5202,-43.6023 L 46.5248,-43.5774 L 46.5393,-43.4993
 L 46.5466,-43.4434 L 46.5529,-43.3955 L 46.5543,-43.3778 L 46.555,-43.3698 L 46.555,-43.3689 L 46.5556,-43.3621
 L 46.5558,-43.3588 L 46.5562,-43.3542 L 46.5562,-43.3542 L 46.5562,-43.3542 L 46.5566,-43.3496 L 46.5566,-43.3494
 L 46.5592,-43.3163 L 46.5612,-43.2911 L 46.5616,-43.2733 L 46.5632,-43.2117 L 46.5639,-43.1865 L 46.5616,-43.0996
 L 46.5612,-43.0818 L 46.5604,-43.0725 L 46.5603,-43.0708 L 46.5601,-43.0677 L 46.5599,-43.0652 L 46.5593,-43.0583
 L 46.5593,-43.0581 L 46.5588,-43.0525 L 46.5585,-43.0481 L 46.558,-43.0413 L 46.5549,-43.0026 L 46.5529,-42.9774
 L 46.5426,-42.8986 L 46.5393,-42.8736 L 46.5248,-42.7955 L 46.5202,-42.7706 L 46.516,-42.7533 L 46.5017,-42.6934
 L 46.4958,-42.6688 L 46.4907,-42.6518 L 46.466,-42.5684 L 46.4601,-42.5516 L 46.4551,-42.5375 L 46.4311,-42.4697
 L 46.4243,-42.4533 L 46.4092,-42.417 L 46.4023,-42.4002 L 46.391,-42.373 L 46.3614,-42.311 L 46.3459,-42.2785
 L 46.323,-42.2362 L 46.308,-42.2087 L 46.2959,-42.1865 L 46.2867,-42.1713 L 46.2412,-42.0972 L 46.2269,-42.0764
 L 46.192,-42.0256 L 46.1819,-42.0109 L 46.1552,-41.9761 L 46.1182,-41.9278 L 46.0838,-41.8875 L 46.0617,-41.8617
 L 46.0502,-41.8482 L 46.0379,-41.8353 L 45.9955,-41.7906 L 45.9781,-41.7723 L 45.9205,-41.7176 L 45.9022,-41.7002
 L 45.8829,-41.6838 L 45.8407,-41.6477 L 45.8407,-41.6477 L 45.8225,-41.6322 L 45.8084,-41.6214 L 45.7395,-41.5684
 L 45.674,-41.5235 L 45.67,-41.5207 L 45.6532,-41.5091 L 45.5791,-41.4637 L 45.5639,-41.4544 L 45.5483,-41.4459
 L 45.5129,-41.4267 L 45.4719,-41.4044 L 45.4558,-41.3968 L 45.3774,-41.3593 L 45.3609,-41.3525 L 45.304,-41.329
 L 45.2806,-41.3193 L 45.2058,-41.2928 L 45.1819,-41.2844 L 45.1576,-41.2771 L 45.156,-41.2767 L 45.0986,-41.2597
 L 45.0815,-41.2546 L 45.0043,-41.2361 L 44.9797,-41.2302 L 44.9016,-41.2157 L 44.8768,-41.2111 L 44.8591,-41.2088
 L 44.773,-41.1974 L 44.6938,-41.1912 L 44.6854,-41.1905 L 44.6686,-41.1892 L 44.6508,-41.1887 L 44.5914,-41.1872
 L 44.5639,-41.1865 z
M 56.1499,-39.5899 L 56.1246,-39.5906 L 56.1069,-39.5919 L 56.0782,-39.5942 L 56.0454,-39.5968 L 56.0202,-39.5987
 L 56.0026,-39.6011 L 55.9164,-39.6124 L 55.8989,-39.6157 L 55.8383,-39.6269 L 55.8135,-39.6315 L 55.7889,-39.6374
 L 55.729,-39.6518 L 55.7116,-39.656 L 55.6757,-39.6666 L 55.6355,-39.6785 L 55.6112,-39.6857 L 55.6039,-39.6883
 L 55.5934,-39.692 L 55.5126,-39.7206 L 55.4392,-39.751 L 55.4158,-39.7607 L 55.3997,-39.7684 L 55.3717,-39.7817
 L 55.3213,-39.8058 L 55.2449,-39.8473 L 55.2293,-39.8558 L 55.2141,-39.8651 L 55.1616,-39.8973 L 55.1529,-39.9026
 L 55.14,-39.9105 L 55.0885,-39.9459 L 55.0537,-39.9698 L 55.0396,-39.9806 L 54.9907,-40.0181 L 54.9706,-40.0335
 L 54.9571,-40.0451 L 54.891,-40.1015 L 54.8334,-40.1562 L 54.8151,-40.1736 L 54.7797,-40.2109 L 54.7663,-40.225
 L 54.7552,-40.2366 L 54.7497,-40.2425 L 54.743,-40.2496 L 54.7314,-40.2631 L 54.675,-40.3292 L 54.6449,-40.3684
 L 54.6112,-40.4122 L 54.5969,-40.4331 L 54.5863,-40.4486 L 54.5519,-40.4985 L 54.5183,-40.5534 L 54.5104,-40.5662
 L 54.4972,-40.5878 L 54.4887,-40.6034 L 54.4473,-40.6798 L 54.4114,-40.755 L 54.4022,-40.7743 L 54.3752,-40.8394
 L 54.3621,-40.8711 L 54.3405,-40.932 L 54.3272,-40.9698 L 54.3221,-40.9868 L 54.2974,-41.0702 L 54.2771,-41.1547
 L 54.273,-41.1718 L 54.273,-41.172 L 54.2697,-41.1895 L 54.2585,-41.2501 L 54.2539,-41.2749 L 54.2525,-41.2856
 L 54.2506,-41.3 L 54.2402,-41.3787 L 54.2369,-41.4216 L 54.2363,-41.4292 L 54.234,-41.4579 L 54.232,-41.4831
 L 54.2316,-41.5009 L 54.2293,-41.5878 L 54.2298,-41.6056 L 54.232,-41.6925 L 54.2335,-41.7115 L 54.2362,-41.7455
 L 54.2402,-41.7969 L 54.2426,-41.8145 L 54.2539,-41.9007 L 54.2581,-41.9232 L 54.273,-42.0036 L 54.2915,-42.0809
 L 54.2974,-42.1054 L 54.3046,-42.1297 L 54.3158,-42.1675 L 54.3272,-42.2058 L 54.3408,-42.2443 L 54.3413,-42.2456
 L 54.3621,-42.3045 L 54.3824,-42.3534 L 54.4022,-42.4013 L 54.4364,-42.473 L 54.4473,-42.4958 L 54.4558,-42.5114
 L 54.4852,-42.5656 L 54.4972,-42.5878 L 54.5009,-42.5937 L 54.5387,-42.6555 L 54.5519,-42.6771 L 54.5969,-42.7425
 L 54.6112,-42.7634 L 54.6596,-42.8264 L 54.675,-42.8464 L 54.6865,-42.86 L 54.743,-42.9261 L 54.7552,-42.939
 L 54.8151,-43.002 L 54.8727,-43.0567 L 54.891,-43.0741 L 54.9385,-43.1146 L 54.9706,-43.1421 L 54.9907,-43.1575
 L 55.0396,-43.195 L 55.0537,-43.2058 L 55.0629,-43.2121 L 55.1253,-43.2551 L 55.14,-43.2651 L 55.1552,-43.2744
 L 55.1977,-43.3005 L 55.2033,-43.3039 L 55.2293,-43.3198 L 55.2991,-43.3577 L 55.3213,-43.3698 L 55.383,-43.3992
 L 55.4158,-43.4149 L 55.4497,-43.4289 L 55.4589,-43.4327 L 55.5126,-43.455 L 55.5293,-43.4609 L 55.5825,-43.4797
 L 55.6112,-43.4899 L 55.6355,-43.4971 L 55.7116,-43.5196 L 55.729,-43.5238 L 55.7889,-43.5382 L 55.8135,-43.5441
 L 55.831,-43.5473 L 55.8916,-43.5586 L 55.9164,-43.5632 L 55.9341,-43.5655 L 55.9952,-43.5735 L 56.0202,-43.5768
 L 56.0454,-43.5788 L 56.1246,-43.5851 L 56.204,-43.5871 L 56.2293,-43.5878 L 56.2545,-43.5871 L 56.3322,-43.5851
 L 56.334,-43.5851 L 56.4131,-43.5788 L 56.4383,-43.5768 L 56.4589,-43.5741 L 56.4925,-43.5697 L 56.4938,-43.5695
 L 56.5422,-43.5632 L 56.5596,-43.5599 L 56.5713,-43.5578 L 56.6451,-43.5441 L 56.6624,-43.5399 L 56.7351,-43.5225
 L 56.7469,-43.5196 L 56.8231,-43.4971 L 56.8473,-43.4899 L 56.9191,-43.4645 L 56.9195,-43.4644 L 56.9292,-43.4609
 L 56.946,-43.455 L 56.9625,-43.4482 L 57.0428,-43.4149 L 57.0588,-43.4072 L 57.0662,-43.4037 L 57.1143,-43.3808
 L 57.1373,-43.3698 L 57.2129,-43.3287 L 57.2135,-43.3284 L 57.2293,-43.3198 L 57.2445,-43.3106 L 57.297,-43.2783
 L 57.3186,-43.2651 L 57.3539,-43.2409 L 57.3695,-43.2301 L 57.3902,-43.2159 L 57.4049,-43.2058 L 57.4219,-43.1927
 L 57.4658,-43.1591 L 57.4704,-43.1555 L 57.4879,-43.1421 L 57.5011,-43.1308 L 57.5483,-43.0905 L 57.5675,-43.0741
 L 57.5805,-43.0618 L 57.6017,-43.0416 L 57.6258,-43.0188 L 57.6435,-43.002 L 57.7156,-42.9261 L 57.7672,-42.8657
 L 57.7836,-42.8464 L 57.7944,-42.8323 L 57.8473,-42.7634 L 57.8616,-42.7425 L 57.8647,-42.7381 L 57.9066,-42.6771
 L 57.9404,-42.622 L 57.9595,-42.5907 L 57.9613,-42.5878 L 58.0028,-42.5114 L 58.0113,-42.4958 L 58.019,-42.4797
 L 58.0564,-42.4013 L 58.0674,-42.3747 L 58.0964,-42.3045 L 58.1024,-42.2878 L 58.1314,-42.2058 L 58.1561,-42.1225
 L 58.1611,-42.1054 L 58.1732,-42.055 L 58.1856,-42.0036 L 58.2014,-41.9182 L 58.2042,-41.9031 L 58.2047,-41.9007
 L 58.207,-41.883 L 58.215,-41.8219 L 58.2183,-41.7969 L 58.2197,-41.7792 L 58.2265,-41.6925 L 58.227,-41.6747
 L 58.2278,-41.644 L 58.2293,-41.5878 L 58.227,-41.501 L 58.2265,-41.4831 L 58.2183,-41.3787 L 58.208,-41.3
 L 58.2047,-41.2749 L 58.2014,-41.2575 L 58.1902,-41.1968 L 58.1856,-41.172 L 58.1814,-41.1547 L 58.1611,-41.0702
 L 58.1561,-41.0531 L 58.1379,-40.9918 L 58.1314,-40.9698 L 58.1168,-40.9285 L 58.1049,-40.8949 L 58.0964,-40.8711
 L 58.0725,-40.8133 L 58.0564,-40.7743 L 58.043,-40.7464 L 58.0113,-40.6798 L 58.0028,-40.6642 L 57.9766,-40.616
 L 57.9613,-40.5878 L 57.952,-40.5726 L 57.9198,-40.5201 L 57.9066,-40.4985 L 57.8923,-40.4777 L 57.8574,-40.4269
 L 57.8473,-40.4122 L 57.8393,-40.4018 L 57.8364,-40.398 L 57.7836,-40.3292 L 57.7271,-40.2631 L 57.7156,-40.2496
 L 57.7036,-40.2369 L 57.6609,-40.1919 L 57.6435,-40.1736 L 57.6306,-40.1614 L 57.5859,-40.1189 L 57.5675,-40.1015
 L 57.5476,-40.0845 L 57.513,-40.055 L 57.4894,-40.0348 L 57.4879,-40.0335 L 57.4676,-40.018 L 57.4049,-39.9698
 L 57.3492,-39.9316 L 57.3186,-39.9105 L 57.297,-39.8973 L 57.2445,-39.8651 L 57.2293,-39.8558 L 57.2136,-39.8473
 L 57.1373,-39.8058 L 57.0656,-39.7716 L 57.0428,-39.7607 L 57.0334,-39.7568 L 57.0263,-39.7539 L 56.946,-39.7206
 L 56.8711,-39.6941 L 56.8473,-39.6857 L 56.8231,-39.6785 L 56.7469,-39.656 L 56.7296,-39.6518 L 56.6697,-39.6374
 L 56.6451,-39.6315 L 56.6276,-39.6283 L 56.5946,-39.6222 L 56.5422,-39.6124 L 56.533,-39.6112 L 56.5224,-39.6098
 L 56.493,-39.606 L 56.4634,-39.6021 L 56.4383,-39.5987 L 56.4315,-39.5982 L 56.3591,-39.5925 L 56.334,-39.5906
 L 56.3162,-39.5901 L 56.2293,-39.5878 z
M 50.1199,-38.256 L 50.0558,-38.2577 L 50.0305,-38.2584 L 50.0128,-38.2598 L 49.9261,-38.2666 L 49.8474,-38.277
 L 49.8223,-38.2803 L 49.8048,-38.2835 L 49.7533,-38.2931 L 49.7194,-38.2993 L 49.6349,-38.3196 L 49.6176,-38.3238
 L 49.6005,-38.3289 L 49.5414,-38.3464 L 49.5172,-38.3535 L 49.5004,-38.3595 L 49.4423,-38.38 L 49.4185,-38.3885
 L 49.402,-38.3953 L 49.3217,-38.4285 L 49.2926,-38.4424 L 49.2272,-38.4736 L 49.1508,-38.5151 L 49.1352,-38.5236
 L 49.12,-38.5329 L 49.0786,-38.5583 L 49.0481,-38.577 L 49.0459,-38.5783 L 48.9859,-38.6196 L 48.9743,-38.6275
 L 48.9596,-38.6376 L 48.934,-38.6573 L 48.8944,-38.6877 L 48.8765,-38.7014 L 48.863,-38.7129 L 48.8021,-38.7649
 L 48.7987,-38.7678 L 48.7969,-38.7694 L 48.7393,-38.824 L 48.721,-38.8414 L 48.6989,-38.8647 L 48.6489,-38.9174
 L 48.6373,-38.9309 L 48.5809,-38.997 L 48.5325,-39.06 L 48.5172,-39.0801 L 48.5028,-39.1009 L 48.4579,-39.1664
 L 48.4486,-39.1815 L 48.4031,-39.2556 L 48.3833,-39.2921 L 48.3532,-39.3477 L 48.3158,-39.4261 L 48.3081,-39.4422
 L 48.2798,-39.5106 L 48.268,-39.5389 L 48.2621,-39.5557 L 48.2422,-39.6119 L 48.2331,-39.6376 L 48.2143,-39.701
 L 48.2033,-39.738 L 48.1974,-39.7626 L 48.1929,-39.7815 L 48.1846,-39.8161 L 48.1814,-39.8295 L 48.1789,-39.8398
 L 48.1757,-39.8573 L 48.1598,-39.9428 L 48.1565,-39.9678 L 48.1516,-40.0055 L 48.1461,-40.0466 L 48.1399,-40.1258
 L 48.1379,-40.151 L 48.1366,-40.2024 L 48.1363,-40.2139 L 48.1361,-40.2211 L 48.1355,-40.2422 L 48.1352,-40.2556
 L 48.1359,-40.2828 L 48.1365,-40.3066 L 48.1373,-40.335 L 48.1379,-40.3603 L 48.1381,-40.3624 L 48.1399,-40.3855
 L 48.1448,-40.4469 L 48.1461,-40.4647 L 48.1485,-40.4823 L 48.1565,-40.5434 L 48.1598,-40.5685 L 48.1674,-40.6092
 L 48.1703,-40.625 L 48.1737,-40.6436 L 48.1789,-40.6715 L 48.1831,-40.6888 L 48.2033,-40.7733 L 48.2105,-40.7975
 L 48.228,-40.8566 L 48.2331,-40.8737 L 48.239,-40.8904 L 48.2596,-40.9485 L 48.2642,-40.9617 L 48.268,-40.9724
 L 48.2801,-41.0015 L 48.2974,-41.0433 L 48.3081,-41.0691 L 48.3158,-41.0852 L 48.3423,-41.1408 L 48.3532,-41.1636
 L 48.3617,-41.1792 L 48.4031,-41.2556 L 48.4446,-41.3234 L 48.4579,-41.3449 L 48.5028,-41.4104 L 48.5172,-41.4312
 L 48.528,-41.4453 L 48.5809,-41.5143 L 48.6325,-41.5747 L 48.6489,-41.5939 L 48.6611,-41.6068 L 48.721,-41.6698
 L 48.7786,-41.7245 L 48.7969,-41.7419 L 48.8297,-41.7699 L 48.8765,-41.8099 L 48.9455,-41.8628 L 48.9596,-41.8737
 L 49.0312,-41.9229 L 49.0459,-41.933 L 49.0651,-41.9447 L 49.0758,-41.9513 L 49.1352,-41.9877 L 49.205,-42.0256
 L 49.2272,-42.0376 L 49.2433,-42.0453 L 49.3217,-42.0827 L 49.3504,-42.0946 L 49.402,-42.116 L 49.4185,-42.1228
 L 49.4352,-42.1287 L 49.4933,-42.1493 L 49.5172,-42.1577 L 49.5414,-42.1649 L 49.6176,-42.1875 L 49.6438,-42.1938
 L 49.6554,-42.1966 L 49.7194,-42.2119 L 49.7975,-42.2264 L 49.8223,-42.231 L 49.8634,-42.2364 L 49.9037,-42.2417
 L 49.9261,-42.2447 L 49.9382,-42.2456 L 49.9513,-42.2467 L 50.0062,-42.251 L 50.0139,-42.2516 L 50.0305,-42.2529
 L 50.0912,-42.2545 L 50.1352,-42.2556 L 50.1352,-42.2556 L 50.1892,-42.2542 L 50.2159,-42.2535 L 50.2399,-42.2529
 L 50.2782,-42.2499 L 50.319,-42.2467 L 50.3442,-42.2447 L 50.3641,-42.2421 L 50.366,-42.2418 L 50.423,-42.2343
 L 50.4481,-42.231 L 50.551,-42.2119 L 50.5683,-42.2078 L 50.6213,-42.1951 L 50.6222,-42.1948 L 50.6244,-42.1943
 L 50.6244,-42.1943 L 50.6528,-42.1875 L 50.6686,-42.1828 L 50.6695,-42.1825 L 50.7093,-42.1708 L 50.7244,-42.1663
 L 50.7532,-42.1577 L 50.7771,-42.1493 L 50.8221,-42.1333 L 50.8254,-42.1322 L 50.8519,-42.1228 L 50.9045,-42.101
 L 50.9487,-42.0827 L 50.9647,-42.0751 L 51.0143,-42.0514 L 51.0229,-42.0473 L 51.0432,-42.0376 L 51.0623,-42.0273
 L 51.0756,-42.02 L 51.0854,-42.0147 L 51.1112,-42.0007 L 51.1196,-41.9962 L 51.1202,-41.9958 L 51.1279,-41.9916
 L 51.1352,-41.9877 L 51.199,-41.9486 L 51.2245,-41.933 L 51.24,-41.9223 L 51.248,-41.9168 L 51.3009,-41.8805
 L 51.3108,-41.8737 L 51.3249,-41.8628 L 51.3515,-41.8424 L 51.3938,-41.8099 L 51.4329,-41.7765 L 51.4508,-41.7613
 L 51.4702,-41.7447 L 51.4734,-41.7419 L 51.5188,-41.6989 L 51.5336,-41.6849 L 51.5494,-41.6698 L 51.6092,-41.6068
 L 51.6215,-41.5939 L 51.633,-41.5804 L 51.6731,-41.5335 L 51.6895,-41.5143 L 51.7029,-41.4968 L 51.7152,-41.4808
 L 51.7532,-41.4312 L 51.8025,-41.3596 L 51.8125,-41.3449 L 51.8672,-41.2556 L 51.8793,-41.2334 L 51.9055,-41.1851
 L 51.9172,-41.1636 L 51.9514,-41.0919 L 51.9623,-41.0691 L 51.972,-41.0458 L 52.0024,-40.9724 L 52.0289,-40.8975
 L 52.0373,-40.8737 L 52.0475,-40.8394 L 52.0476,-40.8388 L 52.0476,-40.8388 L 52.0503,-40.8299 L 52.062,-40.7903
 L 52.067,-40.7733 L 52.0726,-40.7501 L 52.0743,-40.7429 L 52.0856,-40.696 L 52.0915,-40.6715 L 52.1073,-40.586
 L 52.1106,-40.5685 L 52.1129,-40.5508 L 52.1242,-40.4647 L 52.1256,-40.447 L 52.1325,-40.3603 L 52.1332,-40.3329
 L 52.1345,-40.2809 L 52.1352,-40.2556 L 52.1325,-40.151 L 52.1253,-40.0601 L 52.1242,-40.0466 L 52.1139,-39.9678
 L 52.1106,-39.9428 L 52.1073,-39.9253 L 52.0915,-39.8398 L 52.0729,-39.7626 L 52.067,-39.738 L 52.062,-39.7209
 L 52.0445,-39.6618 L 52.0373,-39.6376 L 52.0314,-39.6208 L 52.0024,-39.5389 L 51.972,-39.4655 L 51.9623,-39.4422
 L 51.9434,-39.4025 L 51.9172,-39.3477 L 51.9088,-39.3322 L 51.8793,-39.2778 L 51.8672,-39.2556 L 51.8257,-39.1879
 L 51.8125,-39.1664 L 51.7982,-39.1455 L 51.7532,-39.0801 L 51.7424,-39.066 L 51.7049,-39.0171 L 51.6895,-38.997
 L 51.6731,-38.9778 L 51.633,-38.9309 L 51.6215,-38.9174 L 51.5668,-38.8598 L 51.5494,-38.8414 L 51.542,-38.8344
 L 51.4918,-38.7868 L 51.4734,-38.7694 L 51.3938,-38.7014 L 51.3108,-38.6376 L 51.2961,-38.6275 L 51.2453,-38.5926
 L 51.2245,-38.5783 L 51.2029,-38.5651 L 51.1504,-38.5329 L 51.1352,-38.5236 L 51.1196,-38.5151 L 51.0654,-38.4857
 L 51.0432,-38.4736 L 50.9819,-38.4444 L 50.9487,-38.4285 L 50.8753,-38.3981 L 50.8519,-38.3885 L 50.7771,-38.362
 L 50.7532,-38.3535 L 50.6699,-38.3289 L 50.6528,-38.3238 L 50.6355,-38.3196 L 50.551,-38.2993 L 50.4729,-38.2849
 L 50.4481,-38.2803 L 50.4275,-38.2776 L 50.3442,-38.2666 L 50.2651,-38.2604 L 50.2399,-38.2584 L 50.1869,-38.257
 L 50.1352,-38.2556 z
" stroke="black" fill="lightgray" stroke-width="0.5"/>
</svg>
