<?xml version="1.0" standalone="no"?>
<!DOCTYPE svg PUBLIC "-//W3C//DTD SVG 1.1//EN" "http://www.w3.org/Graphics/SVG/1.1/DTD/svg11.dtd">
<svg width="38mm" height="38mm" viewBox="31 -43 38 38" xmlns="http://www.w3.org/2000/svg" version="1.1">
<title>OpenSCAD Model</title>
<path d="
M 52.8945,-5.62863 L 53.2646,-5.99876 L 53.5311,-6.29487 L 53.6644,-6.6354 L 53.7976,-10.0704 L 53.6644,-10.7366
 L 53.3683,-11.2697 L 53.0721,-11.5954 L 52.5539,-11.9211 L 52.0061,-12.0692 L 51.4287,-12.0692 L 50.4959,-11.9359
 L 49.6964,-11.9359 L 48.7932,-11.9951 L 47.8605,-12.0988 L 46.9277,-12.3061 L 46.0541,-12.5282 L 45.2546,-12.8391
 L 44.5587,-13.2388 L 46.5279,-16.9403 L 47.2682,-16.6294 L 48.127,-16.3629 L 49.0005,-16.2741 L 49.8592,-16.2
 L 50.7032,-16.2741 L 51.325,-16.3629 L 51.8136,-16.3925 L 52.1838,-16.2445 L 52.5687,-15.8595 L 52.9389,-15.4005
 L 57.7656,-8.42696 L 58.0025,-8.1308 L 58.4023,-7.96797 L 58.7724,-8.02717 L 59.1426,-8.19 L 61.5707,-9.96674
 L 61.778,-10.2924 L 61.8076,-10.7663 L 61.6448,-11.0624 L 60.8452,-12.2321 L 61.704,-13.1648 L 62.6071,-14.2013
 L 63.4807,-15.4745 L 64.4135,-16.9699 L 64.9761,-18.3025 L 65.3758,-19.4425 L 65.7164,-20.7751 L 65.9385,-21.9003
 L 66.1458,-23.3069 L 66.205,-24.5358 L 66.205,-25.8387 L 66.1013,-26.6974 L 66.1606,-27.1712 L 66.4123,-27.6006
 L 66.738,-27.9115 L 67.3154,-28.2817 L 67.7152,-28.7406 L 68.0853,-29.3181 L 68.2482,-29.7179 L 68.2482,-30.1472
 L 67.9817,-30.8135 L 67.3747,-32.3385 L 66.4715,-34.0115 L 65.3758,-35.8475 L 64.7096,-36.5878 L 64.3098,-36.7803
 L 63.9397,-36.8839 L 63.6436,-36.8839 L 63.4067,-36.8247 L 63.0069,-36.647 L 60.1049,-35.048 L 59.6015,-34.6482
 L 59.2314,-34.1448 L 59.1426,-33.7154 L 59.1722,-33.286 L 59.2758,-32.8419 L 59.6756,-32.1757 L 60.2382,-31.2725
 L 60.7416,-30.3101 L 61.2006,-29.3773 L 61.5707,-28.4445 L 61.8669,-27.4081 L 62.0741,-26.4457 L 62.1778,-25.4093
 L 58.0765,-25.4389 L 57.8693,-26.4161 L 57.6324,-27.3785 L 57.277,-28.178 L 56.8032,-29.0368 L 56.2998,-29.7179
 L 56.0777,-30.088 L 55.8853,-30.5322 L 55.826,-30.9467 L 55.9001,-31.3465 L 56.1073,-31.8499 L 59.646,-39.4454
 L 59.7348,-39.8451 L 59.7792,-40.2152 L 59.7052,-40.467 L 59.5423,-40.6446 L 58.343,-41.3257 L 57.3362,-41.8587
 L 56.8032,-42.0808 L 56.4035,-42.1548 L 56.0629,-42.1252 L 55.8408,-41.992 L 55.7076,-41.8587 L 54.9377,-40.1856
 L 54.4343,-40.3189 L 53.694,-40.5114 L 52.8352,-40.689 L 52.0061,-40.8519 L 50.9993,-40.9851 L 50.0665,-40.9851
 L 49.2818,-40.9555 L 48.2898,-40.8815 L 47.1053,-40.7038 L 45.7284,-40.4225 L 44.5291,-40.082 L 43.6556,-39.7563
 L 42.8116,-39.4157 L 41.9973,-38.9863 L 41.2866,-38.557 L 39.9837,-37.6538 L 39.5839,-37.4169 L 39.3174,-37.3873
 L 39.0509,-37.3873 L 38.9177,-37.4466 L 37.9257,-37.9796 L 37.4519,-38.0536 L 36.9929,-38.0684 L 36.5043,-37.9055
 L 36.1194,-37.6538 L 35.0533,-36.4842 L 34.0465,-35.0184 L 33.0841,-33.5822 L 32.4771,-32.5606 L 32.2106,-31.9831
 L 32.1218,-31.613 L 32.1514,-31.08 L 32.2846,-30.6802 L 32.5215,-30.3397 L 32.8769,-29.9399 L 35.2902,-28.4149
 L 35.9565,-28.1484 L 36.9929,-28.1484 L 37.5555,-28.3113 L 37.9257,-28.6074 L 38.355,-29.2144 L 38.6808,-29.9103
 L 39.0805,-30.6802 L 39.5839,-31.4057 L 40.117,-32.1757 L 40.724,-32.8863 L 41.4495,-33.6414 L 42.1602,-34.2781
 L 43.0633,-34.9147 L 45.0621,-31.2429 L 44.4551,-30.8727 L 43.8925,-30.3249 L 43.4631,-29.8215 L 43.0929,-29.3477
 L 42.6636,-28.6814 L 42.3526,-28.1484 L 42.1602,-27.645 L 42.0269,-27.2452 L 41.7308,-26.8455 L 41.4199,-26.6086
 L 41.0201,-26.4457 L 40.5019,-26.3421 L 40.3835,-26.3273 L 40.2354,-26.3273 L 40.1762,-26.3125 L 39.9393,-26.2977
 L 39.8572,-26.2886 L 39.5839,-26.2681 L 39.5197,-26.2589 L 39.4507,-26.2532 L 39.44,-26.2479 L 39.3322,-26.2385
 L 39.3197,-26.2322 L 39.2286,-26.2236 L 38.7844,-26.1792 L 38.4291,-26.1496 L 37.3517,-26.0438 L 37.2002,-26.0312
 L 36.5043,-25.972 L 35.5657,-25.8813 L 34.9053,-25.8239 L 34.0596,-25.7418 L 33.8096,-25.7202 L 32.9489,-25.6367
 L 32.0729,-25.5581 L 32.0625,-25.5574 L 31.8997,-25.5426 L 31.8256,-25.5278 L 31.7516,-25.513 L 31.648,-25.4834
 L 31.5887,-25.4686 L 31.3518,-25.3353 L 31.2482,-25.1132 L 31.2482,-22.6998 L 31.3667,-21.7226 L 31.5443,-21.2045
 L 31.8552,-21.0416 L 32.181,-21.0119 L 33.6468,-21.1008 L 34.0465,-19.7683 L 34.4167,-18.6726 L 34.7868,-17.7991
 L 35.3198,-16.5998 L 36.0897,-15.4005 L 37.1262,-13.994 L 38.0885,-12.8983 L 39.4211,-11.6694 L 40.7536,-10.6626
 L 42.0565,-9.93714 L 43.0929,-9.49298 L 43.7296,-9.16722 L 44.0257,-8.82669 L 44.159,-8.39731 L 44.1886,-7.99757
 L 44.233,-7.39054 L 44.3811,-6.9019 L 44.6624,-6.4281 L 45.0621,-6.10239 L 45.5211,-5.79146 L 46.1133,-5.62863
 L 46.6612,-5.52495 L 52.4059,-5.43615 z
M 44.1886,-35.6106 L 45.3582,-36.1881 L 46.291,-36.5434 L 47.5939,-36.8839 L 48.7932,-37.0172 L 49.6372,-37.0468
 L 50.8809,-37.0319 L 51.9025,-36.8543 L 52.4799,-36.5582 L 52.8352,-36.0844 L 53.1017,-35.4181 L 53.161,-34.7815
 L 53.0721,-34.1744 L 52.7316,-33.5822 L 52.3318,-33.1528 L 51.8581,-32.7827 L 51.3991,-32.679 L 50.6588,-32.7827
 L 49.8592,-32.8123 L 48.9561,-32.7827 L 48.0677,-32.6494 L 47.0905,-32.3385 L 46.2614,-32.0128 z
M 49.6239,-20.8781 L 49.5519,-20.88 L 49.4802,-20.8856 L 49.428,-20.8897 L 49.3562,-20.8954 L 49.2849,-20.9048
 L 49.1616,-20.921 L 49.0393,-20.9437 L 48.9685,-20.9568 L 48.7776,-21.0027 L 48.6584,-21.038 L 48.5894,-21.0584
 L 48.4722,-21.0999 L 48.4043,-21.1239 L 48.3378,-21.1514 L 48.2229,-21.199 L 48.158,-21.23 L 48.1107,-21.2525
 L 48.0457,-21.2835 L 47.9825,-21.3179 L 47.9365,-21.3429 L 47.8732,-21.3773 L 47.8118,-21.4149 L 47.7712,-21.4398
 L 47.7058,-21.4799 L 47.6033,-21.5503 L 47.544,-21.591 L 47.4869,-21.6349 L 47.4454,-21.6668 L 47.4133,-21.6913
 L 47.3883,-21.7106 L 47.3793,-21.7182 L 47.3335,-21.7573 L 47.2937,-21.7913 L 47.239,-21.8381 L 47.1868,-21.8876
 L 47.0966,-21.9732 L 47.011,-22.0634 L 46.9614,-22.1156 L 46.8991,-22.1886 L 46.8339,-22.2649 L 46.7582,-22.3636
 L 46.7144,-22.4207 L 46.644,-22.5231 L 46.6032,-22.5824 L 46.5647,-22.6452 L 46.5646,-22.6455 L 46.5006,-22.7498
 L 46.4663,-22.8131 L 46.4069,-22.9224 L 46.3611,-23.0184 L 46.3224,-23.0996 L 46.2949,-23.1661 L 46.2748,-23.2144
 L 46.2473,-23.281 L 46.2233,-23.3488 L 46.1817,-23.466 L 46.1464,-23.5852 L 46.126,-23.6543 L 46.097,-23.7752
 L 46.0802,-23.8452 L 46.067,-23.916 L 46.0575,-23.9674 L 46.0444,-24.0382 L 46.0281,-24.1615 L 46.0188,-24.2329
 L 46.0131,-24.3046 L 46.009,-24.3568 L 46.0033,-24.4286 L 46.0015,-24.5005 L 45.9982,-24.6248 L 46.0015,-24.7491
 L 46.0033,-24.8211 L 46.009,-24.8928 L 46.0131,-24.9451 L 46.0188,-25.0168 L 46.0281,-25.0882 L 46.0444,-25.2115
 L 46.0575,-25.2822 L 46.067,-25.3337 L 46.0802,-25.4045 L 46.097,-25.4745 L 46.126,-25.5954 L 46.1464,-25.6644
 L 46.1817,-25.7836 L 46.2233,-25.9009 L 46.2382,-25.9432 L 46.2473,-25.9687 L 46.2748,-26.0352 L 46.3224,-26.1501
 L 46.3534,-26.2151 L 46.4069,-26.3273 L 46.4663,-26.4366 L 46.5006,-26.4998 L 46.5382,-26.5612 L 46.6032,-26.6672
 L 46.644,-26.7266 L 46.7144,-26.829 L 46.7901,-26.9277 L 46.8339,-26.9848 L 46.8899,-27.0504 L 46.9251,-27.0915
 L 46.9512,-27.1222 L 46.9614,-27.1341 L 47.011,-27.1863 L 47.0966,-27.2765 L 47.1068,-27.2862 L 47.1087,-27.288
 L 47.1868,-27.3621 L 47.239,-27.4116 L 47.3136,-27.4754 L 47.3335,-27.4924 L 47.3883,-27.5391 L 47.4454,-27.583
 L 47.4869,-27.6148 L 47.544,-27.6586 L 47.6465,-27.7291 L 47.7058,-27.7698 L 47.7672,-27.8075 L 47.8732,-27.8724
 L 47.9825,-27.9318 L 48.0457,-27.9661 L 48.158,-28.0196 L 48.2229,-28.0506 L 48.3378,-28.0982 L 48.4043,-28.1258
 L 48.5215,-28.1673 L 48.5894,-28.1913 L 48.6584,-28.2117 L 48.7776,-28.2471 L 48.8985,-28.2761 L 48.9685,-28.2929
 L 49.0393,-28.306 L 49.1616,-28.3287 L 49.2329,-28.3381 L 49.2849,-28.3449 L 49.3562,-28.3543 L 49.428,-28.3599
 L 49.5519,-28.3697 L 49.6493,-28.3722 L 49.7482,-28.3748 L 49.7482,-28.3748 L 49.8202,-28.3729 L 49.9445,-28.3697
 L 50.0684,-28.3599 L 50.1402,-28.3543 L 50.2635,-28.3381 L 50.3348,-28.3287 L 50.4056,-28.3155 L 50.5279,-28.2929
 L 50.5979,-28.2761 L 50.7188,-28.2471 L 50.838,-28.2117 L 50.907,-28.1913 L 50.9278,-28.1839 L 51.0242,-28.1498
 L 51.0921,-28.1258 L 51.207,-28.0782 L 51.2735,-28.0506 L 51.3384,-28.0196 L 51.4507,-27.9661 L 51.5139,-27.9318
 L 51.6232,-27.8724 L 51.6846,-27.8348 L 51.7906,-27.7698 L 51.8499,-27.7291 L 51.9524,-27.6586 L 51.9943,-27.6265
 L 52.0251,-27.6028 L 52.051,-27.5829 L 52.1082,-27.5391 L 52.2027,-27.4584 L 52.2574,-27.4116 L 52.2638,-27.4056
 L 52.3097,-27.3621 L 52.3999,-27.2765 L 52.4854,-27.1863 L 52.535,-27.1341 L 52.5818,-27.0793 L 52.6625,-26.9848
 L 52.7063,-26.9277 L 52.7183,-26.912 L 52.782,-26.829 L 52.8524,-26.7266 L 52.8932,-26.6672 L 52.9582,-26.5612
 L 52.9958,-26.4998 L 53.0895,-26.3273 L 53.143,-26.2151 L 53.174,-26.1501 L 53.2491,-25.9687 L 53.2906,-25.8515
 L 53.3147,-25.7836 L 53.3237,-25.753 L 53.35,-25.6644 L 53.3704,-25.5954 L 53.3872,-25.5254 L 53.4163,-25.4045
 L 53.4325,-25.3172 L 53.452,-25.2115 L 53.4614,-25.1401 L 53.4777,-25.0168 L 53.4931,-24.8211 L 53.4982,-24.6248
 L 53.495,-24.5006 L 53.4931,-24.4286 L 53.4919,-24.4136 L 53.4874,-24.3568 L 53.4777,-24.2329 L 53.4614,-24.1096
 L 53.452,-24.0382 L 53.4163,-23.8452 L 53.3872,-23.7243 L 53.3704,-23.6543 L 53.35,-23.5852 L 53.3147,-23.466
 L 53.2906,-23.3982 L 53.2732,-23.3488 L 53.2491,-23.281 L 53.174,-23.0996 L 53.128,-23.0032 L 53.0895,-22.9224
 L 52.9958,-22.7498 L 52.9582,-22.6885 L 52.8932,-22.5824 L 52.8524,-22.5231 L 52.782,-22.4207 L 52.6625,-22.2649
 L 52.535,-22.1156 L 52.4494,-22.0254 L 52.3999,-21.9732 L 52.3097,-21.8876 L 52.2574,-21.8381 L 52.207,-21.795
 L 52.2027,-21.7913 L 52.1082,-21.7106 L 52.0874,-21.6946 L 52.0647,-21.6772 L 51.9524,-21.591 L 51.8499,-21.5206
 L 51.7906,-21.4799 L 51.6846,-21.4149 L 51.6232,-21.3773 L 51.5599,-21.3429 L 51.5139,-21.3179 L 51.4791,-21.299
 L 51.4507,-21.2835 L 51.3857,-21.2525 L 51.3384,-21.23 L 51.2735,-21.199 L 51.0921,-21.1239 L 51.0242,-21.0999
 L 50.907,-21.0584 L 50.7878,-21.0231 L 50.7188,-21.0027 L 50.5279,-20.9568 L 50.4056,-20.9341 L 50.3348,-20.921
 L 50.2116,-20.9048 L 50.1402,-20.8954 L 50.0684,-20.8897 L 50.0162,-20.8856 L 49.9445,-20.88 L 49.8202,-20.8767
 L 49.7482,-20.8748 z
M 57.736,-16.2296 L 57.3362,-16.3333 L 56.8328,-16.6294 L 56.5959,-16.8663 L 56.2998,-17.3105 L 56.0629,-17.7991
 L 56.0037,-18.3765 L 56.0629,-18.9392 L 56.1666,-19.2056 L 56.5071,-19.635 L 56.9069,-20.242 L 57.3362,-21.0119
 L 57.6324,-21.7374 L 57.8396,-22.537 L 58.0025,-23.3365 L 58.0025,-24.136 L 62.0741,-24.0768 L 62.1037,-23.2032
 L 61.9705,-22.3001 L 61.778,-21.3673 L 61.4671,-20.4642 L 61.0673,-19.5018 L 60.712,-18.7022 L 60.2086,-17.9027
 L 59.7052,-17.1624 L 59.2314,-16.4961 L 59.0093,-16.3037 L 58.7428,-16.2 L 58.269,-16.1704 z
M 42.6192,-14.4677 L 41.9529,-14.9415 L 41.3606,-15.4745 L 40.6944,-16.1408 L 40.0429,-16.9847 L 39.5247,-17.7399
 L 39.0213,-18.5986 L 38.4883,-19.7387 L 38.281,-20.5381 L 38.3254,-20.9379 L 38.4587,-21.4117 L 38.7548,-21.8707
 L 39.125,-22.1668 L 39.5247,-22.3741 L 39.9541,-22.537 L 40.4575,-22.5666 L 40.9609,-22.4777 L 41.4495,-22.2408
 L 41.8641,-21.9447 L 42.0565,-21.5746 L 42.4267,-20.8047 L 42.9301,-19.9755 L 43.5519,-19.0724 L 44.3218,-18.3321
 L 45.299,-17.577 L 43.3298,-13.994 z
" stroke="black" fill="lightgray" stroke-width="0.5"/>
</svg>
