<?xml version="1.0" encoding="UTF-8" standalone="no"?>
<svg xmlns="http://www.w3.org/2000/svg" xmlns:xlink="http://www.w3.org/1999/xlink" width="67.640mm" height="86.390mm" viewBox="16.262619 35.065353 67.639999 86.389999">
    <path transform="translate(-125.987381,-8.544647)" style="stroke:#000000;stroke-width:0.050000mm;fill:none" d="M147.199997,123.556702C144.313766,122.942902,142.25,120.394096,142.25,117.443298L142.25,111.843353L145.25,111.843353L145.25,117.443298L147,117.443298L147,86.443298L150,86.443298L150,117.443298L151.75,117.443298L151.75,111.843353L154.75,111.843353L154.75,117.443298C154.75,120.394096,152.686234,122.942902,149.800003,123.556702L149.800003,120.556702L147.199997,120.556702L147.199997,123.556702z"/>
    <path transform="translate(-125.987381,-8.544647)" style="stroke:#000000;stroke-width:0.050000mm;fill:none" d="M154.75,84.324997C154.75,80.873222,151.951782,78.074997,148.5,78.074997C145.048218,78.074997,142.25,80.873222,142.25,84.324997L142.25,89.925003L145.25,89.925003L145.25,84.324997L147.199997,84.324997L147.199997,81.224998L149.800003,81.224998L149.800003,84.324997L151.75,84.324997L151.75,89.925003L154.75,89.925003L154.75,84.324997z"/>
    <path transform="translate(-125.987381,-8.544647)" style="stroke:#000000;stroke-width:0.050000mm;fill:none" d="M173.5,61C173.5,69.284271,166.784271,76,158.5,76C150.215729,76,143.5,69.284271,143.5,61C143.5,52.715729,150.215729,46,158.5,46C166.784271,46,173.5,52.715729,173.5,61z"/>
    <path transform="translate(-125.987381,-8.544647)" style="stroke:#000000;stroke-width:0.050000mm;fill:none" d="M155.149994,62.450001L155.149994,59.549999L152.25,59.549999L152.25,62.450001L155.149994,62.450001z"/>
    <path transform="translate(-125.987381,-8.544647)" style="stroke:#000000;stroke-width:0.050000mm;fill:none" d="M159.949997,62.450001L159.949997,59.549999L157.050003,59.549999L157.050003,62.450001L159.949997,62.450001z"/>
    <path transform="translate(-125.987381,-8.544647)" style="stroke:#000000;stroke-width:0.050000mm;fill:none" d="M164.75,62.450001L164.75,59.549999L161.850006,59.549999L161.850006,62.450001L164.75,62.450001z"/>
    <path transform="translate(-125.987381,-8.544647)" style="stroke:#000000;stroke-width:0.050000mm;fill:none" d="M159.949997,67.25L159.949997,64.349998L157.050003,64.349998L157.050003,67.25L159.949997,67.25z"/>
    <path transform="translate(-125.987381,-8.544647)" style="stroke:#000000;stroke-width:0.050000mm;fill:none" d="M159.949997,57.650002L159.949997,54.75L157.050003,54.75L157.050003,57.650002L159.949997,57.650002z"/>
    <path transform="translate(-125.987381,-8.544647)" style="stroke:#000000;stroke-width:0.050000mm;fill:none" d="M209.889999,61C209.889999,70.604233,202.104233,78.389999,192.5,78.389999C182.895767,78.389999,175.110001,70.604233,175.110001,61C175.110001,51.395771,182.895767,43.610001,192.5,43.610001C202.104233,43.610001,209.889999,51.395771,209.889999,61z"/>
    <path transform="translate(-125.987381,-8.544647)" style="stroke:#000000;stroke-width:0.050000mm;fill:none" d="M191.050003,59.549999L191.050003,62.450001L193.949997,62.450001L193.949997,59.549999L191.050003,59.549999z"/>
    <path transform="translate(-125.987381,-8.544647)" style="stroke:#000000;stroke-width:0.050000mm;fill:none" d="M186.25,59.549999L186.25,62.450001L189.149994,62.450001L189.149994,59.549999L186.25,59.549999z"/>
    <path transform="translate(-125.987381,-8.544647)" style="stroke:#000000;stroke-width:0.050000mm;fill:none" d="M195.850006,59.549999L195.850006,62.450001L198.75,62.450001L198.75,59.549999L195.850006,59.549999z"/>
    <path transform="translate(-125.987381,-8.544647)" style="stroke:#000000;stroke-width:0.050000mm;fill:none" d="M191.050003,54.75L191.050003,57.650002L193.949997,57.650002L193.949997,54.75L191.050003,54.75z"/>
    <path transform="translate(-125.987381,-8.544647)" style="stroke:#000000;stroke-width:0.050000mm;fill:none" d="M191.050003,64.349998L191.050003,67.25L193.949997,67.25L193.949997,64.349998L191.050003,64.349998z"/>
    <path transform="translate(-125.987381,-8.544647)" style="stroke:#000000;stroke-width:0.050000mm;fill:none" d="M207.5,105C207.5,118.807098,196.307098,130,182.5,130C168.692902,130,157.5,118.807098,157.5,105C157.5,91.192902,168.692902,80,182.5,80C196.307098,80,207.5,91.192902,207.5,105z"/>
    <path transform="translate(-125.987381,-8.544647)" style="stroke:#000000;stroke-width:0.050000mm;fill:none" d="M181.050003,103.550003L181.050003,106.449997L183.949997,106.449997L183.949997,103.550003L181.050003,103.550003z"/>
</svg>
