<?xml version="1.0" encoding="UTF-8" standalone="no"?>
<svg xmlns="http://www.w3.org/2000/svg" xmlns:xlink="http://www.w3.org/1999/xlink" width="74.340mm" height="90.796mm" viewBox="8.489719 3.486408 74.340454 90.795563">
    <path transform="matrix(0.864424,0,0,0.976296,45.659943,48.884186)" style="stroke:#000000;stroke-width:0.057842mm;fill:none" d="M43,-39.5C43,-43.365993,39.865997,-46.5,36,-46.5L-36,-46.5C-39.865993,-46.5,-43,-43.365993,-43,-39.5L-43,39.5C-43,43.365997,-39.865993,46.5,-36,46.5L36,46.5C39.865997,46.5,43,43.365997,43,39.5L43,-39.5z"/>
    <path transform="translate(-129.850006,-37.549995)" style="stroke:#000000;stroke-width:0.050000mm;fill:none" d="M186.25,59.549999L186.25,62.450001"/>
    <path transform="translate(-129.850006,-37.549995)" style="stroke:#000000;stroke-width:0.050000mm;fill:none" d="M152.25,59.549999L152.25,62.450001"/>
    <path transform="translate(-129.850006,-37.549995)" style="stroke:#000000;stroke-width:0.050000mm;fill:none" d="M155.149994,62.450001L155.149994,59.549999L152.25,59.549999L152.25,62.450001L155.149994,62.450001z"/>
    <path transform="translate(-129.850006,-37.549995)" style="stroke:#000000;stroke-width:0.050000mm;fill:none" d="M173.5,61C173.5,69.284271,166.784271,76,158.5,76C150.215729,76,143.5,69.284271,143.5,61C143.5,52.715729,150.215729,46,158.5,46C166.784271,46,173.5,52.715729,173.5,61z"/>
    <path transform="translate(-129.850006,-37.549995)" style="stroke:#000000;stroke-width:0.050000mm;fill:none" d="M159.949997,62.450001L159.949997,59.549999"/>
    <path transform="translate(-129.850006,-37.549995)" style="stroke:#000000;stroke-width:0.050000mm;fill:none" d="M159.949997,59.549999L157.050003,59.549999"/>
    <path transform="translate(-129.850006,-37.549995)" style="stroke:#000000;stroke-width:0.050000mm;fill:none" d="M157.050003,59.549999L157.050003,62.450001"/>
    <path transform="translate(-129.850006,-37.549995)" style="stroke:#000000;stroke-width:0.050000mm;fill:none" d="M157.050003,62.450001L159.949997,62.450001"/>
    <path transform="translate(-129.850006,-37.549995)" style="stroke:#000000;stroke-width:0.050000mm;fill:none" d="M159.949997,57.650002L159.949997,54.75"/>
    <path transform="translate(-129.850006,-37.549995)" style="stroke:#000000;stroke-width:0.050000mm;fill:none" d="M159.949997,54.75L157.050003,54.75"/>
    <path transform="translate(-129.850006,-37.549995)" style="stroke:#000000;stroke-width:0.050000mm;fill:none" d="M157.050003,54.75L157.050003,57.650002"/>
    <path transform="translate(-129.850006,-37.549995)" style="stroke:#000000;stroke-width:0.050000mm;fill:none" d="M157.050003,57.650002L159.949997,57.650002"/>
    <path transform="translate(-129.850006,-37.549995)" style="stroke:#000000;stroke-width:0.050000mm;fill:none" d="M164.75,62.450001L164.75,59.549999"/>
    <path transform="translate(-129.850006,-37.549995)" style="stroke:#000000;stroke-width:0.050000mm;fill:none" d="M164.75,59.549999L161.850006,59.549999"/>
    <path transform="translate(-129.850006,-37.549995)" style="stroke:#000000;stroke-width:0.050000mm;fill:none" d="M161.850006,59.549999L161.850006,62.450001"/>
    <path transform="translate(-129.850006,-37.549995)" style="stroke:#000000;stroke-width:0.050000mm;fill:none" d="M161.850006,62.450001L164.75,62.450001"/>
    <path transform="translate(-129.850006,-37.549995)" style="stroke:#000000;stroke-width:0.050000mm;fill:none" d="M159.949997,67.25L159.949997,64.349998"/>
    <path transform="translate(-129.850006,-37.549995)" style="stroke:#000000;stroke-width:0.050000mm;fill:none" d="M159.949997,64.349998L157.050003,64.349998"/>
    <path transform="translate(-129.850006,-37.549995)" style="stroke:#000000;stroke-width:0.050000mm;fill:none" d="M157.050003,64.349998L157.050003,67.25"/>
    <path transform="translate(-129.850006,-37.549995)" style="stroke:#000000;stroke-width:0.050000mm;fill:none" d="M157.050003,67.25L159.949997,67.25"/>
    <path transform="translate(-129.850006,-37.549995)" style="stroke:#000000;stroke-width:0.050000mm;fill:none" d="M209.889999,61C209.889999,70.604233,202.104233,78.389999,192.5,78.389999C182.895767,78.389999,175.110001,70.604233,175.110001,61C175.110001,51.395771,182.895767,43.610001,192.5,43.610001C202.104233,43.610001,209.889999,51.395771,209.889999,61z"/>
    <path transform="translate(-129.850006,-37.549995)" style="stroke:#000000;stroke-width:0.050000mm;fill:none" d="M191.050003,59.549999L191.050003,62.450001"/>
    <path transform="translate(-129.850006,-37.549995)" style="stroke:#000000;stroke-width:0.050000mm;fill:none" d="M191.050003,62.450001L193.949997,62.450001"/>
    <path transform="translate(-129.850006,-37.549995)" style="stroke:#000000;stroke-width:0.050000mm;fill:none" d="M193.949997,62.450001L193.949997,59.549999"/>
    <path transform="translate(-129.850006,-37.549995)" style="stroke:#000000;stroke-width:0.050000mm;fill:none" d="M193.949997,59.549999L191.050003,59.549999"/>
    <path transform="translate(-129.850006,-37.549995)" style="stroke:#000000;stroke-width:0.050000mm;fill:none" d="M186.25,62.450001L189.149994,62.450001"/>
    <path transform="translate(-129.850006,-37.549995)" style="stroke:#000000;stroke-width:0.050000mm;fill:none" d="M189.149994,62.450001L189.149994,59.549999"/>
    <path transform="translate(-129.850006,-37.549995)" style="stroke:#000000;stroke-width:0.050000mm;fill:none" d="M189.149994,59.549999L186.25,59.549999"/>
    <path transform="translate(-129.850006,-37.549995)" style="stroke:#000000;stroke-width:0.050000mm;fill:none" d="M191.050003,64.349998L191.050003,67.25"/>
    <path transform="translate(-129.850006,-37.549995)" style="stroke:#000000;stroke-width:0.050000mm;fill:none" d="M191.050003,67.25L193.949997,67.25"/>
    <path transform="translate(-129.850006,-37.549995)" style="stroke:#000000;stroke-width:0.050000mm;fill:none" d="M193.949997,67.25L193.949997,64.349998"/>
    <path transform="translate(-129.850006,-37.549995)" style="stroke:#000000;stroke-width:0.050000mm;fill:none" d="M193.949997,64.349998L191.050003,64.349998"/>
    <path transform="translate(-129.850006,-37.549995)" style="stroke:#000000;stroke-width:0.050000mm;fill:none" d="M195.850006,59.549999L195.850006,62.450001"/>
    <path transform="translate(-129.850006,-37.549995)" style="stroke:#000000;stroke-width:0.050000mm;fill:none" d="M195.850006,62.450001L198.75,62.450001"/>
    <path transform="translate(-129.850006,-37.549995)" style="stroke:#000000;stroke-width:0.050000mm;fill:none" d="M198.75,62.450001L198.75,59.549999"/>
    <path transform="translate(-129.850006,-37.549995)" style="stroke:#000000;stroke-width:0.050000mm;fill:none" d="M198.75,59.549999L195.850006,59.549999"/>
    <path transform="translate(-129.850006,-37.549995)" style="stroke:#000000;stroke-width:0.050000mm;fill:none" d="M191.050003,54.75L191.050003,57.650002"/>
    <path transform="translate(-129.850006,-37.549995)" style="stroke:#000000;stroke-width:0.050000mm;fill:none" d="M191.050003,57.650002L193.949997,57.650002"/>
    <path transform="translate(-129.850006,-37.549995)" style="stroke:#000000;stroke-width:0.050000mm;fill:none" d="M193.949997,57.650002L193.949997,54.75"/>
    <path transform="translate(-129.850006,-37.549995)" style="stroke:#000000;stroke-width:0.050000mm;fill:none" d="M193.949997,54.75L191.050003,54.75"/>
    <path transform="translate(-130.956863,-38.011108)" style="stroke:#000000;stroke-width:0.050000mm;fill:none" d="M207.5,105C207.5,118.807098,196.307098,130,182.5,130C168.692902,130,157.5,118.807098,157.5,105C157.5,91.192902,168.692902,80,182.5,80C196.307098,80,207.5,91.192902,207.5,105z"/>
    <path transform="translate(-130.956863,-38.011108)" style="stroke:#000000;stroke-width:0.050000mm;fill:none" d="M181.050003,103.550003L181.050003,106.449997L183.949997,106.449997L183.949997,103.550003L181.050003,103.550003z"/>
    <path transform="translate(-128.790726,-36.824841)" style="stroke:#000000;stroke-width:0.050000mm;fill:none" d="M154.75,84.324997C154.75,80.873222,151.951782,78.074997,148.5,78.074997C145.048218,78.074997,142.25,80.873222,142.25,84.324997L142.25,89.925003L145.25,89.925003L145.25,84.324997L147.199997,84.324997L147.199997,81.224998L149.800003,81.224998L149.800003,84.324997L151.75,84.324997L151.75,89.925003L154.75,89.925003L154.75,84.324997z"/>
    <path transform="translate(-128.70929,-38.306858)" style="stroke:#000000;stroke-width:0.050000mm;fill:none" d="M147.199997,123.556702C144.313766,122.942902,142.25,120.394096,142.25,117.443298L142.25,111.843353L145.25,111.843353L145.25,117.443298L147,117.443298L147,86.443298L150,86.443298L150,117.443298L151.75,117.443298L151.75,111.843353L154.75,111.843353L154.75,117.443298C154.75,120.394096,152.686234,122.942902,149.800003,123.556702L149.800003,120.556702L147.199997,120.556702L147.199997,123.556702z"/>
    <path style="stroke:none;fill:#ff0000;fill-rule:evenodd" d="M54.326874,44.648674L54.01783,44.795464L53.660805,44.83709L53.241486,44.86837L52.689034,44.691414L52.321579,44.767563L51.986725,44.60038C51.998764,44.378654,51.90464,44.3899,51.844528,44.304321L51.205009,44.130707L50.902855,43.863396L49.53891,47.070206L48.909187,46.952263C47.893547,46.762054,45.577438,46.69371,44.507294,46.82238C40.743637,47.27491,37.536964,49.123619,35.447327,52.045639C32.92572,55.571701,31.528351,60.681068,31.360886,66.987434C31.284119,69.87822,31.505714,72.332001,32.05204,74.64045C32.881264,78.144325,34.505753,81.331734,36.730942,83.8209C37.435432,84.608963,39.1576,86.195854,40.077065,86.904175C42.364151,88.666084,45.286324,89.77681,48.2966,90.028511L48.2966,90.028114C49.639458,90.140778,50.039429,90.142151,51.270973,90.038307C55.676308,89.667107,59.75676,88.041405,63.435547,85.191864C69.187355,80.736542,71.961517,74.754402,71.732353,67.300819C71.630089,63.974747,71.112854,61.186417,70.038155,58.167824C68.92926,55.053177,67.462624,52.457359,65.995239,51.012138C63.886879,48.935661,60.648949,47.700577,56.775467,47.495354L55.634918,47.434937L55.418236,46.911163C55.165924,46.51281,55.21106,46.806313,54.827126,45.487724C54.754227,45.237206,54.651726,45.201485,54.801643,44.384895L54.326874,44.648674zM51.459152,44.413216L51.757088,44.735317L51.491364,46.603508L50.814949,46.651825L51.579941,44.904423L51.459152,44.413216zM54.450684,44.759472L54.877464,46.780663L54.450684,46.957825L54.184944,46.716248L54.144684,45.323151L54.450684,44.759472zM53.186424,45.001049L52.606644,44.807789L52.542229,45.613045L52.582489,46.861191L52.872391,47.078613L53.025391,46.418297L53.186424,45.001049zM53.395798,44.984943L53.943375,44.984943L53.927269,46.885345L53.605164,47.038345L53.283066,46.981979L53.395798,44.984943zM49.974586,46.559975L50.446632,45.458549L51.154686,44.212887L51.32515,44.907833L50.656433,46.389519L50.367958,46.691101L49.974586,46.559975zM52.42144,44.839996L51.96244,44.695053L51.672554,46.67598L52.276489,47.054451L52.42144,46.828979L52.42144,44.839996zM64.473648,51.11565C63.393349,50.009251,61.561127,48.70528,60.723053,48.446392C60.297516,48.314945,59.780006,48.341221,59.780006,48.494282C59.780006,48.530834,59.984619,48.627491,60.234695,48.709064C61.036942,48.970783,61.686104,49.257542,62.238663,49.594303C62.80088,49.936954,64.021576,50.817387,64.427879,51.17329C64.756653,51.461285,64.781082,51.430515,64.473679,51.11565L64.473648,51.11565zM48.717316,49.614857C49.399475,48.994686,50.341957,48.428997,50.921707,48.291759C51.242058,48.215923,51.463074,48.214703,51.858032,48.286556C52.14238,48.338306,52.391518,48.36047,52.411682,48.335804C52.431885,48.311131,52.381584,48.209225,52.299919,48.109341C52.180458,47.963154,52.056351,47.921879,51.663742,47.897762C50.531235,47.828197,49.259239,48.55389,48.08773,49.937954C47.375336,50.779583,47.124634,51.216274,47.709854,50.596172C47.949043,50.342716,48.402412,49.901104,48.717308,49.614819L48.717316,49.614857zM59.865166,49.80611C59.865166,49.735317,58.440712,48.891445,57.810684,48.588993C56.731346,48.070858,55.832947,47.835804,54.914192,47.831158C54.217285,47.827656,54.073364,47.850346,53.870094,47.99596C53.607246,48.184261,53.536301,48.475887,53.676582,48.791561L53.76078,48.981106L53.800179,48.782459C53.879578,48.382092,54.150719,48.241802,54.902023,48.212269C55.989708,48.169521,57.615387,48.658154,59.225212,49.511715C59.9384,49.889858,59.865128,49.856152,59.865128,49.80611L59.865166,49.80611zM39.777813,49.948055C40.582504,49.229362,41.380989,48.666401,42.125435,48.2929C42.579971,48.064861,42.890949,47.979836,43.936947,47.797649C45.41032,47.541016,45.234253,47.582878,45.223515,47.491787C45.193737,47.239227,43.93671,47.230843,43.112747,47.477741C41.690704,47.903816,39.96983,49.195789,38.510414,50.932995C37.693752,51.905102,37.643707,52.041977,38.379925,51.289871C38.779453,50.881714,39.408504,50.277901,39.777813,49.948055zM41.803226,50.846207C43.312988,49.809708,45.300411,48.650967,46.228935,48.265827C46.926384,47.976528,47.149288,47.924805,47.719921,47.919823C48.336697,47.914402,48.428162,47.937859,48.852741,48.20982C49.106758,48.372536,49.329269,48.47517,49.347183,48.437901C49.432518,48.260437,49.222912,47.935646,48.915703,47.769348C47.24456,46.864716,43.691994,48.472908,40.824081,51.432281C40.58147,51.682632,40.607822,51.666862,41.803238,50.846207L41.803226,50.846207zM35.942108,81.897362C34.226219,76.800781,33.312222,72.1315,33.131996,67.541351C33.080593,66.23217,33.304619,62.93721,33.530914,61.674049C34.049984,58.776688,34.900383,56.281128,36.337936,53.436546C36.891117,52.341957,36.905727,52.303612,36.620983,52.693722C36.224098,53.237442,35.300064,54.986656,34.846321,56.053158C34.048664,57.928017,33.485641,59.885986,33.101002,62.122757C32.858238,63.534492,32.677811,66.440971,32.733715,68.03952C32.862789,71.7313,33.607292,75.690872,34.839672,79.23999C35.117973,80.041458,36.080383,82.499809,36.116722,82.502045C36.132988,82.503044,36.05442,82.230927,35.942116,81.897362L35.942108,81.897362zM66.007599,79.677963C67.215881,77.551254,67.905563,75.993835,68.591949,73.842072C70.248344,68.64933,70.217598,63.093521,68.504547,58.063919C67.817406,56.046402,66.747025,53.937763,65.708946,52.556614C64.961586,51.562263,64.878059,51.581085,65.516159,52.600033C67.419434,55.639297,68.677963,58.934547,69.147629,62.108521C69.654472,65.533775,69.380753,69.03212,68.303795,72.89328C67.668045,75.172623,66.688881,77.76371,65.575089,80.114105C65.025291,81.274292,65.20166,81.09642,66.007561,79.677948L66.007599,79.677963zM63.962635,80.908585C65.754814,76.79451,66.762924,72.638664,66.93895,68.639038C67.004799,67.142715,66.84288,64.215668,66.618561,62.84655C65.810974,57.918152,63.77821,53.405422,61.072216,50.533699C60.734905,50.175716,60.445038,49.883289,60.428078,49.883839C60.411091,49.884384,60.832527,50.61467,61.36454,51.506695C63.775871,55.54969,64.95372,58.184113,65.780334,61.383133C67.156548,66.709122,66.839142,72.304367,64.817734,78.352249C64.496918,79.312111,63.898399,80.91256,63.656826,81.456558C63.605995,81.570923,63.580189,81.663986,63.599373,81.663368C63.618565,81.66275,63.782028,81.32309,63.962589,80.908585L63.962635,80.908585zM39.207077,81.331543C37.119095,74.266647,36.240273,68.693527,36.442108,63.797249C36.588326,60.250252,37.283684,57.261925,38.581062,54.605148C38.839203,54.0765,39.273247,53.29385,39.545593,52.865894C39.81794,52.437958,39.964119,52.170197,39.870438,52.270889C38.627495,53.606827,37.602699,55.350426,36.911308,57.30555C36.031807,59.792667,35.656464,62.803841,35.818993,66.068687C36.051743,70.744263,37.084427,75.521118,39.205315,81.732666C39.474533,82.521164,39.703568,83.154404,39.714264,83.139877C39.72496,83.125336,39.496727,82.311577,39.207077,81.331543zM51.678146,84.000092C52.003899,82.941032,52.286587,82.074539,52.306328,82.074539C52.326073,82.074539,52.907566,82.856506,53.598564,83.812241C54.372063,84.88208,54.916489,85.56102,55.015129,85.578751C55.149506,85.602913,55.193283,85.534775,55.286583,85.156067C55.34774,84.907738,55.581192,83.950729,55.805271,83.029373L56.212677,81.354179L56.369667,81.522346C56.456028,81.614845,56.956963,82.240532,57.482899,82.91275C58.071434,83.664978,58.46368,84.100037,58.502937,84.044067C58.538017,83.994049,58.819923,83.044365,59.129398,81.93364C59.438885,80.822922,59.713913,79.881554,59.740562,79.841721C59.767174,79.801888,60.09095,80.23912,60.459995,80.813354C60.829037,81.387604,61.156826,81.821732,61.188416,81.77813C61.219959,81.734512,61.349312,80.705597,61.475742,79.491653C61.602173,78.277702,61.712402,77.275665,61.720688,77.264893C61.729275,77.254074,62.186874,77.307091,62.738243,77.382599C63.289608,77.458107,63.755802,77.500305,63.77422,77.476357C63.828403,77.405914,65.527977,67.812439,65.503311,67.716263C65.490967,67.66803,64.982826,69.20932,64.374176,71.141335C63.765511,73.073349,63.243607,74.68782,63.214359,74.72905C63.185074,74.770271,62.89257,74.42157,62.564224,73.954124C62.235905,73.48671,61.942043,73.104248,61.911194,73.104248C61.880402,73.104248,61.518021,74.287453,61.105995,75.733566C60.693977,77.179703,60.337624,78.363205,60.31411,78.363602C60.290615,78.363998,59.982712,77.916336,59.629921,77.368805C59.044804,76.460648,58.984108,76.392647,58.938271,76.593887C58.910591,76.71521,58.799431,77.702118,58.691193,78.787003C58.582947,79.871887,58.465744,80.800385,58.430733,80.850327C58.391258,80.906624,58.267029,80.811081,58.103714,80.598801L57.840328,80.256485L58.21225,78.676376C59.026001,75.219093,59.459015,72.232094,59.639565,68.83046C59.68763,67.92543,59.706078,67.846626,60.144981,66.670074C61.390671,63.33123,62.038074,60.256599,61.847004,58.586895C61.691597,57.228851,61.77652,57.20797,60.376595,58.948364C59.703091,59.785652,59.12841,60.482162,59.099514,60.496162C59.070656,60.510155,58.957771,60.108612,58.848709,59.603828C58.40477,57.54908,57.483604,54.977207,56.5014,53.050285C55.675968,51.430939,55.444374,51.124161,55.898666,52.251877C57.223671,55.54097,57.787697,57.189217,58.291092,59.243149C58.728767,61.028954,58.73085,61.073597,58.394623,61.455261C58.241684,61.628864,57.531193,62.507584,56.815723,63.407982L55.5149,65.045059L55.846176,65.434891C56.274559,65.938965,57.230331,66.582886,58.387566,67.147034L59.308983,67.596222L59.308983,68.358948C59.308983,70.680939,58.968803,74.030533,58.437645,76.938438C58.229446,78.078194,57.802444,80.068558,57.751389,80.137146C57.737015,80.156471,57.314774,79.695465,56.813072,79.112656C55.904655,78.057419,55.899788,78.053398,55.636982,78.138229L55.373062,78.223419L55.105949,79.961121C54.959042,80.916847,54.836483,81.719269,54.833595,81.744247C54.830376,81.769234,54.462494,81.325119,54.015327,80.757324C53.568169,80.189529,52.987339,79.457603,52.724602,79.130821L52.246895,78.536674L51.25045,80.564423L50.253998,82.592186L49.138607,80.172981C48.525127,78.842422,47.997192,77.718597,47.965393,77.675575C47.933632,77.632561,47.511887,78.233109,47.028271,79.010117C46.544666,79.787125,46.012383,80.618797,45.845421,80.858292L45.541843,81.293716L45.093266,80.493683L44.644684,79.693634L44.391144,78.066193C43.889843,74.84832,43.67873,72.344376,43.669331,69.504913L43.662899,67.549362L44.590637,67.088448C45.748543,66.513168,46.586197,65.941124,47.016567,65.431763L47.348595,65.038803L47.095654,64.716057C46.956528,64.538544,46.241722,63.63987,45.507164,62.719002C44.383034,61.309757,44.175354,61.007423,44.195335,60.809235C44.208393,60.679718,44.328445,59.994827,44.46212,59.287239C44.914246,56.894054,45.473309,54.878815,46.255653,52.822216C46.473236,52.250221,46.636696,51.782223,46.6189,51.782223C46.551704,51.782223,45.793812,53.370705,45.408875,54.318329C44.729893,55.989784,44.128281,58.031078,43.809875,59.74379L43.683075,60.425812L42.473244,58.924328C41.28455,57.449062,41.261993,57.42691,41.181686,57.65596C40.637836,59.207355,41.288658,62.961983,42.779408,66.873398C43.023575,67.514038,43.024307,67.519981,43.10989,69.581894C43.230518,72.48822,43.51395,75.073685,43.989281,77.603638C44.107876,78.234909,44.204758,78.780556,44.204552,78.816162C44.204357,78.851799,44.129673,78.759903,44.038612,78.611984L43.873024,78.343018L43.009148,79.244553C42.534012,79.740402,42.115246,80.133728,42.078541,80.118629C42.04184,80.103516,41.823429,79.565262,41.593178,78.92247C41.362934,78.279686,41.054192,77.419876,40.90712,77.011795L40.639687,76.269821L40.247326,77.286377L39.854961,78.30294L39.65435,77.840492C39.54401,77.586151,39.202961,76.765175,38.896469,76.016075C38.589962,75.266998,38.354023,74.717499,38.372143,74.794998C38.390251,74.872482,38.722,75.950333,39.109337,77.190201C39.496666,78.430069,39.844051,79.548431,39.881279,79.675461C39.944908,79.892563,39.966431,79.86438,40.239983,79.205811C40.400047,78.82048,40.55275,78.475616,40.579338,78.43943C40.605923,78.403244,40.935162,79.219788,41.310982,80.253952C41.68679,81.288124,42.016399,82.152031,42.043434,82.173752C42.07048,82.195496,42.378231,81.726318,42.727333,81.131195C43.076439,80.536072,43.384804,80.082184,43.41259,80.122551C43.44038,80.162918,44.02541,81.400604,44.712654,82.87294C45.399887,84.345284,45.998306,85.602058,46.042465,85.665771C46.103283,85.753525,46.335167,85.267624,46.998741,83.66185L47.874733,81.542084L49.346115,83.756302C50.38932,85.326195,50.856541,85.963989,50.951694,85.948082C51.054371,85.930878,51.225151,85.472992,51.678207,84.000092L51.678146,84.000092z"/>
</svg>
