  0
SECTION
  2
HEADER
  9
$ACADVER
  1
AC1014
  9
$HANDSEED
  5
FFFF
  9
$INSUNITS
 70
     4
  9
$MEASUREMENT
 70
     1
  0
ENDSEC
  0
SECTION
  2
TABLES
  0
TABLE
  2
VPORT
  5
8
330
0
100
AcDbSymbolTable
 70
     4
  0
VPORT
  5
2E
330
8
100
AcDbSymbolTableRecord
100
AcDbViewportTableRecord
  2
*ACTIVE
 70
     0
 10
0.0
 20
0.0
 11
1.0
 21
1.0
 12
210.0
 22
148.5
 13
0.0
 23
0.0
 14
10.0
 24
10.0
 15
10.0
 25
10.0
 16
0.0
 26
0.0
 36
1.0
 17
0.0
 27
0.0
 37
0.0
 40
341.0
 41
1.24
 42
50.0
 43
0.0
 44
0.0
 50
0.0
 51
0.0
 71
     0
 72
   100
 73
     1
 74
     3
 75
     0
 76
     0
 77
     0
 78
     0
  0
ENDTAB
  0
TABLE
  2
LTYPE
  5
5
330
0
100
AcDbSymbolTable
 70
     1
  0
LTYPE
  5
14
330
5
100
AcDbSymbolTableRecord
100
AcDbLinetypeTableRecord
  2
BYBLOCK
 70
     0
  3

 72
    65
 73
     0
 40
0.0
  0
LTYPE
  5
15
330
5
100
AcDbSymbolTableRecord
100
AcDbLinetypeTableRecord
  2
BYLAYER
 70
     0
  3

 72
    65
 73
     0
 40
0.0
  0
LTYPE
  5
16
330
5
100
AcDbSymbolTableRecord
100
AcDbLinetypeTableRecord
  2
CONTINUOUS
 70
     0
  3
Solid line
 72
    65
 73
     0
 40
0.0
  0
ENDTAB
  0
TABLE
  2
LAYER
  5
2
100
AcDbSymbolTable
 70
1
  0
LAYER
  5
50
100
AcDbSymbolTableRecord
100
AcDbLayerTableRecord
  2
0
 70
0
  6
CONTINUOUS
  0
ENDTAB
  0
TABLE
  2
STYLE
  5
3
330
0
100
AcDbSymbolTable
 70
     1
  0
STYLE
  5
11
330
3
100
AcDbSymbolTableRecord
100
AcDbTextStyleTableRecord
  2
STANDARD
 70
     0
 40
0.0
 41
1.0
 50
0.0
 71
     0
 42
2.5
  3
txt
  4

  0
ENDTAB
  0
TABLE
  2
VIEW
  5
6
330
0
100
AcDbSymbolTable
 70
     0
  0
ENDTAB
  0
TABLE
  2
UCS
  5
7
330
0
100
AcDbSymbolTable
 70
     0
  0
ENDTAB
  0
TABLE
  2
APPID
  5
9
330
0
100
AcDbSymbolTable
 70
     2
  0
APPID
  5
12
330
9
100
AcDbSymbolTableRecord
100
AcDbRegAppTableRecord
  2
ACAD
 70
     0
  0
ENDTAB
  0
TABLE
  2
DIMSTYLE
  5
A
330
0
100
AcDbSymbolTable
 70
     1
  0
DIMSTYLE
105
27
330
A
100
AcDbSymbolTableRecord
100
AcDbDimStyleTableRecord
  2
ISO-25
 70
     0
  3

  4

  5

  6

  7

 40
1.0
 41
2.5
 42
0.625
 43
3.75
 44
1.25
 45
0.0
 46
0.0
 47
0.0
 48
0.0
140
2.5
141
2.5
142
0.0
143
0.03937007874016
144
1.0
145
0.0
146
1.0
147
0.625
 71
     0
 72
     0
 73
     0
 74
     0
 75
     0
 76
     0
 77
     1
 78
     8
170
     0
171
     3
172
     1
173
     0
174
     0
175
     0
176
     0
177
     0
178
     0
270
     2
271
     2
272
     2
273
     2
274
     3
340
11
275
     0
280
     0
281
     0
282
     0
283
     0
284
     8
285
     0
286
     0
287
     3
288
     0
  0
ENDTAB
  0
TABLE
  2
BLOCK_RECORD
  5
1
330
0
100
AcDbSymbolTable
 70
     1
  0
BLOCK_RECORD
  5
1F
330
1
100
AcDbSymbolTableRecord
100
AcDbBlockTableRecord
  2
*MODEL_SPACE
  0
BLOCK_RECORD
  5
1B
330
1
100
AcDbSymbolTableRecord
100
AcDbBlockTableRecord
  2
*PAPER_SPACE
  0
ENDTAB
  0
ENDSEC
  0
SECTION
  2
BLOCKS
  0
BLOCK
  5
20
330
1F
100
AcDbEntity
  8
0
100
AcDbBlockBegin
  2
*MODEL_SPACE
 70
     0
 10
0.0
 20
0.0
 30
0.0
  3
*MODEL_SPACE
  1

  0
ENDBLK
  5
21
330
1F
100
AcDbEntity
  8
0
100
AcDbBlockEnd
  0
BLOCK
  5
1C
330
1B
100
AcDbEntity
 67
     1
  8
0
100
AcDbBlockBegin
  2
*PAPER_SPACE
  1

  0
ENDBLK
  5
1D
330
1B
100
AcDbEntity
 67
     1
  8
0
100
AcDbBlockEnd
  0
ENDSEC
  0
SECTION
  2
ENTITIES
  0
LWPOLYLINE
  5
100
100
AcDbEntity
  8
0
 62
7
100
AcDbPolyline
 90
124
 70
1
 10
1.357653
 20
-26.361980
 30
0.0
 10
-1.039266
 20
-26.228257
 30
0.0
 10
-2.393551
 20
-26.065832
 30
0.0
 10
-3.548307
 20
-25.756900
 30
0.0
 10
-5.252526
 20
-24.846912
 30
0.0
 10
-5.883268
 20
-24.277576
 30
0.0
 10
-6.339030
 20
-23.599830
 30
0.0
 10
-6.570365
 20
-22.885494
 30
0.0
 10
-6.593454
 20
-22.179842
 30
0.0
 10
-6.326450
 20
-20.538710
 30
0.0
 10
-5.694875
 20
-18.523774
 30
0.0
 10
-4.811194
 20
-16.053820
 30
0.0
 10
-3.872305
 20
-12.581670
 30
0.0
 10
-3.127916
 20
-9.191810
 30
0.0
 10
-2.831172
 20
-7.056770
 30
0.0
 10
-2.817723
 20
-5.457920
 30
0.0
 10
-2.907460
 20
-3.963549
 30
0.0
 10
-3.076854
 20
-3.351460
 30
0.0
 10
-3.467701
 20
-2.882150
 30
0.0
 10
-4.095517
 20
-2.720376
 30
0.0
 10
-4.823598
 20
-2.852701
 30
0.0
 10
-5.527450
 20
-3.051365
 30
0.0
 10
-6.082580
 20
-3.088610
 30
0.0
 10
-6.836897
 20
-3.184658
 30
0.0
 10
-7.965978
 20
-3.551174
 30
0.0
 10
-9.816469
 20
-4.133130
 30
0.0
 10
-12.041251
 20
-4.938275
 30
0.0
 10
-13.700967
 20
-5.541804
 30
0.0
 10
-15.270710
 20
-5.921170
 30
0.0
 10
-16.315971
 20
-5.990027
 30
0.0
 10
-16.867997
 20
-5.806763
 30
0.0
 10
-17.922322
 20
-4.477670
 30
0.0
 10
-18.573888
 20
-3.444745
 30
0.0
 10
-18.890329
 20
-2.400035
 30
0.0
 10
-19.105277
 20
-0.157070
 30
0.0
 10
-19.177786
 20
2.591379
 30
0.0
 10
-19.032367
 20
3.937276
 30
0.0
 10
-18.709371
 20
5.009760
 30
0.0
 10
-18.291015
 20
5.706160
 30
0.0
 10
-17.860535
 20
6.139597
 30
0.0
 10
-16.799912
 20
6.748830
 30
0.0
 10
-15.480819
 20
7.269002
 30
0.0
 10
-13.673824
 20
7.610360
 30
0.0
 10
-10.699171
 20
7.781653
 30
0.0
 10
-7.810074
 20
7.819190
 30
0.0
 10
-6.298324
 20
7.743924
 30
0.0
 10
-5.808414
 20
7.747059
 30
0.0
 10
-5.353353
 20
7.915790
 30
0.0
 10
-4.674414
 20
8.632000
 30
0.0
 10
-4.372433
 20
9.619140
 30
0.0
 10
-4.452697
 20
10.630995
 30
0.0
 10
-4.830582
 20
12.134700
 30
0.0
 10
-5.458468
 20
15.064649
 30
0.0
 10
-6.014895
 20
18.003890
 30
0.0
 10
-6.349770
 20
19.424741
 30
0.0
 10
-6.375168
 20
19.919626
 30
0.0
 10
-6.129518
 20
20.542930
 30
0.0
 10
-5.464339
 20
21.241425
 30
0.0
 10
-4.459667
 20
21.825729
 30
0.0
 10
-2.273864
 20
22.651020
 30
0.0
 10
-0.599056
 20
23.028074
 30
0.0
 10
1.207654
 20
23.045900
 30
0.0
 10
3.634499
 20
22.712666
 30
0.0
 10
4.931690
 20
22.371588
 30
0.0
 10
6.172114
 20
21.899680
 30
0.0
 10
8.656906
 20
20.593697
 30
0.0
 10
9.731829
 20
19.751799
 30
0.0
 10
10.468230
 20
18.765430
 30
0.0
 10
10.761030
 20
17.713005
 30
0.0
 10
10.723047
 20
16.679439
 30
0.0
 10
10.281502
 20
14.652300
 30
0.0
 10
9.735490
 20
12.631902
 30
0.0
 10
9.003313
 20
10.804810
 30
0.0
 10
8.534674
 20
10.031691
 30
0.0
 10
7.993659
 20
9.333696
 30
0.0
 10
7.561310
 20
8.709631
 30
0.0
 10
7.418671
 20
8.158300
 30
0.0
 10
7.599853
 20
7.614949
 30
0.0
 10
8.171028
 20
7.399490
 30
0.0
 10
9.361014
 20
7.255103
 30
0.0
 10
11.021273
 20
7.411390
 30
0.0
 10
13.211414
 20
7.996488
 30
0.0
 10
14.392458
 20
8.333772
 30
0.0
 10
15.477588
 20
8.501500
 30
0.0
 10
17.242765
 20
8.537405
 30
0.0
 10
18.032813
 20
8.363873
 30
0.0
 10
18.833944
 20
7.912740
 30
0.0
 10
19.583085
 20
7.078313
 30
0.0
 10
20.181563
 20
5.947515
 30
0.0
 10
20.931154
 20
3.502680
 30
0.0
 10
21.045969
 20
2.395221
 30
0.0
 10
20.996758
 20
1.310346
 30
0.0
 10
20.766194
 20
-0.650920
 30
0.0
 10
20.674868
 20
-2.238705
 30
0.0
 10
20.427084
 20
-3.503540
 30
0.0
 10
19.914425
 20
-4.406805
 30
0.0
 10
19.262844
 20
-5.012680
 30
0.0
 10
18.589544
 20
-5.331629
 30
0.0
 10
17.683984
 20
-5.516410
 30
0.0
 10
16.172468
 20
-5.757316
 30
0.0
 10
14.481022
 20
-5.813670
 30
0.0
 10
12.949436
 20
-5.486954
 30
0.0
 10
11.559010
 20
-5.053160
 30
0.0
 10
9.393436
 20
-4.457600
 30
0.0
 10
8.237010
 20
-4.178660
 30
0.0
 10
7.693950
 20
-4.110118
 30
0.0
 10
7.257452
 20
-4.195700
 30
0.0
 10
6.864545
 20
-4.507250
 30
0.0
 10
6.734681
 20
-5.185460
 30
0.0
 10
6.789650
 20
-6.720484
 30
0.0
 10
7.182625
 20
-8.555080
 30
0.0
 10
7.815867
 20
-10.071016
 30
0.0
 10
8.666250
 20
-11.951910
 30
0.0
 10
10.669924
 20
-18.362240
 30
0.0
 10
10.981890
 20
-19.645394
 30
0.0
 10
11.026375
 20
-20.467950
 30
0.0
 10
10.888272
 20
-21.854786
 30
0.0
 10
10.476393
 20
-23.201190
 30
0.0
 10
9.842196
 20
-24.182400
 30
0.0
 10
8.939030
 20
-24.964740
 30
0.0
 10
7.596992
 20
-25.566782
 30
0.0
 10
6.107491
 20
-25.972520
 30
0.0
 10
3.369487
 20
-26.417410
 30
0.0
 10
1.357649
 20
-26.362010
 30
0.0
  0
ENDSEC
  0
SECTION
  2
OBJECTS
  0
DICTIONARY
  5
C
330
0
100
AcDbDictionary
  3
ACAD_GROUP
350
D
  3
ACAD_MLINESTYLE
350
17
  0
DICTIONARY
  5
D
330
C
100
AcDbDictionary
  0
DICTIONARY
  5
1A
330
C
100
AcDbDictionary
  0
DICTIONARY
  5
17
330
C
100
AcDbDictionary
  3
STANDARD
350
18
  0
DICTIONARY
  5
19
330
C
100
AcDbDictionary
  0
ENDSEC
  0
EOF
