<?xml version="1.0" encoding="UTF-8" standalone="no"?>
<!-- Created with Inkscape (http://www.inkscape.org/) -->

<svg
   width="210mm"
   height="297mm"
   viewBox="0 0 210 297"
   version="1.1"
   id="svg1"
   xml:space="preserve"
   xmlns="http://www.w3.org/2000/svg"
   xmlns:svg="http://www.w3.org/2000/svg"><defs
     id="defs1" /><g
     id="layer1"><g
       id="g2"
       transform="translate(22.579363,-287.71657)"><path
         style="fill:none;stroke:#000000;stroke-width:0.1;stroke-dasharray:none"
         d="m -1.9742467,337.20318 c -1.156019,-0.087 -3.600445,-0.0679 -4.90596,-0.60508 -1.305515,-0.5372 -2.308829,-1.17041 -2.790723,-2.15707 -0.4818953,-0.98667 -0.200764,-1.77959 0.01258,-3.06112 0.213347,-1.28155 0.965766,-2.59665 1.515256,-4.48489 0.549489,-1.88823 1.393121,-5.0835 1.683278,-6.86201 0.290155,-1.77853 0.397765,-2.67028 0.310193,-3.73389 -0.08757,-1.06362 0.06493,-2.06278 -0.649978,-2.57577 -0.714915,-0.51299 -2.029184,0.36564 -2.614879,0.20646 -0.5856953,-0.15919 -3.1920713,1.04452 -3.7338893,1.04452 -0.541819,0 -3.572852,1.55104 -5.454241,1.78804 -1.88139,0.23698 -1.494172,-0.0609 -2.651612,-1.4435 -1.157441,-1.38251 -1.029593,-2.71765 -1.182955,-4.3206 -0.153363,-1.60295 -0.171962,-4.00397 0.395906,-5.16683 0.567867,-1.16287 1.05921,-1.27034 1.909459,-1.73907 0.850249,-0.46871 1.625303,-0.63124 3.126088,-0.86153 1.500783,-0.23029 4.477042,-0.15688 5.86375,-0.20883 1.3867083,-0.052 1.8257173,0.28491 2.4567213,-0.0966 0.631003,-0.38151 0.852528,-0.9606 0.98092,-1.70335 0.128393,-0.74274 -0.189715,-1.11702 -0.458149,-2.51556 -0.268432,-1.39855 -1.011161,-4.45825 -1.184313,-5.86919 -0.173154,-1.41094 -0.6816403,-1.53165 -0.114623,-2.53904 0.567019,-1.00737 2.600699,-1.71073 3.855654,-2.10809 1.254956,-0.39735 2.050693,-0.4765 3.481518,-0.39488 1.43082402,0.0816 3.385942,0.42495 4.96446,1.14622 1.578519,0.72127 3.615554,1.7166 4.296116,3.13425 0.680563,1.41765 0.06119,2.77395 -0.186728,4.11313 -0.247919,1.33918 -0.782051,2.76605 -1.278189,3.84749 -0.496138,1.08144 -1.66806,1.95936 -1.584642,2.64651 0.08342,0.68716 0.148946,0.50884 0.752357,0.75881 0.60341,0.24998 1.619803,0.13902 2.850245,-0.0119 1.230442,-0.15092 3.1244947,-1.04597 4.4563147,-1.09011 1.331816,-0.0442 2.256536,-0.2478 3.356356,0.58876 1.09981,0.83656 1.79477,2.93402 2.09721,4.41006 0.30243,1.47603 -0.0725,2.98566 -0.16496,4.1536 -0.0925,1.16794 -0.038,2.11528 -0.33911,2.85262 -0.30111,0.73735 -0.6779,1.16831 -1.16424,1.50914 -0.48635,0.34083 -0.78283,0.34179 -1.57886,0.50373 -0.79603,0.16193 -2.167025,0.3814 -3.202962,0.29726 -1.035936,-0.0841 -2.0742897,-0.53364 -2.9220117,-0.76051 -0.847721,-0.22688 -1.4465,-0.4534 -2.165574,-0.59556 -0.719074,-0.14217 -1.652736,-0.51437 -2.135984,-0.2619 -0.483246,0.25246 -0.390251,0.24842 -0.522771,0.98976 -0.13252,0.74136 0.129789,2.22883 0.447944,3.36962 0.318155,1.14079 0.875947,1.76943 1.483625,3.39683 0.607676,1.62738 1.659703,4.97568 2.003674,6.41033 0.343972,1.43465 0.36912,1.28519 0.356451,2.10571 -0.01266,0.82051 -0.172288,1.96664 -0.549982,2.73324 -0.377694,0.76661 -0.801044,1.2621 -1.537363,1.76355 -0.73632,0.50144 -1.898602,0.76808 -2.831539,1.00778 -0.932937,0.23972 -1.94202998,0.39167 -2.73800398,0.44489 -0.795975,0.0533 -0.85582,0.0315 -2.01183802,-0.0554 z"
         id="path1" /><path
         style="fill:none;stroke:#000000;stroke-width:0.1;stroke-dasharray:none"
         d="m -3.1256917,294.23193 c 0.07677,0.3269 0.196553,0.60752 0.410762,0.82487 0.214209,0.21734 0.58462,0.31777 0.808152,0.41718 0.223532,0.0995 0.249163,0.20585 0.522493,0.19689 0.27333,-0.009 0.72053102,-0.213 0.98577602,-0.44727 0.265246,-0.23427 0.425607,-0.51821 0.543871,-0.88742 0.118264,-0.36921 0.190098,-0.88153 0.09009,-1.28217 -0.100007,-0.40065 -0.35902,-0.78711 -0.632727,-1.01059 -0.273706,-0.22347 -0.597781,-0.29313 -0.86894402,-0.32507 -0.271162,-0.0319 -0.457274,-0.0246 -0.705044,0.0875 -0.247769,0.11215 -0.495724,0.38692 -0.68868,0.61205 -0.192955,0.22513 -0.372961,0.40883 -0.464956,0.7207 -0.09199,0.31188 -0.07756,0.76639 -7.91e-4,1.09329 z"
         id="path2" /></g></g></svg>
