<?xml version="1.0" encoding="UTF-8" standalone="no"?>
<!-- Created with Inkscape (http://www.inkscape.org/) -->

<svg
   width="210mm"
   height="297mm"
   viewBox="0 0 210 297"
   version="1.1"
   id="svg1"
   xml:space="preserve"
   inkscape:version="1.3 (0e150ed, 2023-07-21)"
   sodipodi:docname="COF.svg"
   xmlns:inkscape="http://www.inkscape.org/namespaces/inkscape"
   xmlns:sodipodi="http://sodipodi.sourceforge.net/DTD/sodipodi-0.dtd"
   xmlns="http://www.w3.org/2000/svg"
   xmlns:svg="http://www.w3.org/2000/svg"><sodipodi:namedview
     id="namedview1"
     pagecolor="#ffffff"
     bordercolor="#999999"
     borderopacity="1"
     inkscape:showpageshadow="0"
     inkscape:pageopacity="0"
     inkscape:pagecheckerboard="0"
     inkscape:deskcolor="#d1d1d1"
     inkscape:document-units="mm"
     inkscape:zoom="0.4506709"
     inkscape:cx="188.60769"
     inkscape:cy="758.86861"
     inkscape:window-width="1576"
     inkscape:window-height="929"
     inkscape:window-x="2099"
     inkscape:window-y="631"
     inkscape:window-maximized="0"
     inkscape:current-layer="layer1" /><defs
     id="defs1" /><g
     inkscape:label="Layer 1"
     inkscape:groupmode="layer"
     id="layer1"><path
       style="fill:#cf3129;stroke:none"
       d="m 0,13.229164 v 0.26459 c 8.290166,-0.17115 16.879356,-2.67201 25.135415,-3.66314 19.12942,-2.29646 38.422954,-4.12189 57.679164,-2.71034 6.56944,0.48156 13.71941,1.38535 19.579171,4.60387 3.104,1.7049 5.93548,4.61318 5.8094,8.38419 -0.24946,7.46113 -8.12205,13.33128 -13.217731,17.72709 -8.58914,7.40944 -17.44784,14.30989 -26.9875,20.45437 -5.61333,3.61553 -12.8747,6.73749 -17.72709,11.29562 1.96736,0.13137 4.38895,-1.74216 6.08542,-2.68258 4.46631,-2.47582 9.04486,-4.75165 13.49375,-7.2593 17.42247,-9.8203 35.626241,-18.94945 51.329161,-31.49195 4.6294,-3.69767 9.50641,-7.64678 12.58016,-12.80575 1.39209,-2.33646 2.48105,-5.41125 0.91502,-7.9375 C 132.76617,4.330154 128.73683,2.985089 125.4125,2.150151 117.66059,0.203185 109.54816,0 101.6,0 78.287949,0 54.740359,3.246692 31.749998,7.078424 24.6736,8.257824 17.626816,9.541294 10.583333,10.899974 7.105898,11.570764 3.320754,11.976364 0,13.229164 Z"
       id="path1" /></g></svg>
