<svg version="1.2" baseProfile="tiny-ps" xmlns="http://www.w3.org/2000/svg" viewBox="0 0 1583 570" width="1583" height="570">
	<title>capital one-svg</title>
	<style>
		tspan { white-space:pre }
		.shp0 { fill: #cc2427 } 
		.shp1 { fill: #013d5b } 
	</style>
	<path id="Layer" class="shp0" d="M1073.93 411.82L1073.55 411.82C1006.17 459.52 926.67 509.5 840.74 562.12L837.34 564.01C836.58 564.32 836.02 564.96 835.79 565.74C835.57 566.52 835.72 567.36 836.2 568.02C836.68 568.68 837.43 569.08 838.24 569.11C839.06 569.14 839.84 568.8 840.36 568.18L843.01 566.66C916.07 528.8 999.73 483.75 1083.77 437.19L1085.28 436.43C1084.04 434.53 1082.88 432.59 1081.78 430.61C1080.68 428.62 1079.66 426.6 1078.71 424.54C1077.76 422.48 1076.88 420.39 1076.09 418.27C1075.29 416.15 1074.57 414 1073.93 411.82ZM1516.06 53.69C1410.07 -63.29 726.42 41.95 436.08 105.55L429.27 107.07C428.94 107.15 428.62 107.29 428.34 107.48C428.05 107.67 427.81 107.91 427.6 108.18C427.4 108.46 427.24 108.76 427.14 109.09C427.03 109.42 426.99 109.76 427 110.1C427.03 110.44 427.15 110.77 427.33 111.06C427.51 111.35 427.76 111.6 428.05 111.78C428.34 111.96 428.67 112.08 429.01 112.11C429.36 112.15 429.7 112.11 430.02 111.99L436.84 110.85C677.59 68.08 1178.4 8.64 1285.91 115.4C1318.84 147.96 1311.27 189.98 1273.04 239.57C1278.25 242.98 1283.13 246.88 1287.6 251.22C1292.07 255.56 1296.11 260.32 1299.67 265.43C1303.23 270.54 1306.29 275.99 1308.81 281.69C1311.33 287.38 1313.29 293.31 1314.68 299.39C1463.45 200.58 1563.38 105.93 1516.06 53.69Z" />
	<path id="Layer" fill-rule="evenodd" class="shp1" d="M1214.74 236.54C1268.5 236.54 1303.32 272.51 1305.21 327.02C1307.86 401.22 1256.38 469.37 1172.73 469.37C1118.97 469.37 1084.15 433.78 1082.25 378.89C1079.6 308.47 1134.87 236.54 1214.74 236.54ZM1117.08 381.16C1118.21 422.42 1144.33 456.12 1178.4 456.12C1244.27 456.12 1272.28 375.1 1270.39 320.96C1268.87 279.7 1242.38 246.01 1208.31 246.01C1151.53 246.01 1114.81 326.64 1117.08 381.16Z" />
	<path id="Layer" fill-rule="evenodd" class="shp1" d="M393.31 317.18C392.93 323.61 391.79 329.29 390.28 339.14L378.54 405.01C378.23 406.33 378.15 407.7 378.29 409.05C378.43 410.4 378.8 411.72 379.38 412.95C379.96 414.17 380.75 415.3 381.7 416.27C382.65 417.23 383.76 418.04 384.98 418.64L384.98 421.29L317.22 421.29L317.22 404.63C314.65 406.08 312.04 407.45 309.39 408.74C306.74 410.04 304.06 411.25 301.34 412.39C298.62 413.53 295.87 414.59 293.09 415.57C290.31 416.55 287.5 417.44 284.66 418.26C282.05 418.97 279.4 419.59 276.74 420.11C274.08 420.64 271.41 421.08 268.72 421.43C266.03 421.78 263.33 422.04 260.62 422.2C257.91 422.37 255.2 422.44 252.49 422.42C230.53 422.42 218.04 420.15 209.71 412.58C201.38 405.01 196.46 399.71 196.84 388.73C197.04 386.96 197.38 385.21 197.83 383.49C198.29 381.78 198.88 380.09 199.58 378.46C200.28 376.83 201.11 375.25 202.04 373.74C202.98 372.22 204.02 370.78 205.17 369.42C206.4 368.05 207.7 366.74 209.07 365.5C210.44 364.26 211.87 363.1 213.37 362.02C214.86 360.94 216.41 359.94 218.02 359.03C219.62 358.11 221.27 357.29 222.96 356.55C225.14 355.63 227.34 354.78 229.58 354C231.81 353.22 234.07 352.51 236.34 351.88C238.62 351.25 240.92 350.69 243.23 350.21C245.55 349.72 247.88 349.31 250.22 348.98C261.95 347.09 278.61 345.19 300.94 343.3C302.83 343.24 304.71 343.1 306.58 342.86C308.45 342.63 310.31 342.3 312.15 341.89C314 341.48 315.82 340.98 317.61 340.39C319.4 339.8 321.17 339.13 322.9 338.38C327.82 336.49 329.33 334.59 330.09 330.81C330.85 327.02 329.33 320.21 320.25 318.31C296.02 313.77 250.6 321.34 227.13 327.4L239.62 292.95C247.1 291.76 254.6 290.72 262.12 289.81C269.63 288.9 277.17 288.13 284.71 287.5C292.26 286.86 299.82 286.37 307.38 286.02C314.95 285.67 322.52 285.45 330.09 285.38C378.16 285.38 393.68 299.39 393.31 317.18ZM320.98 361.33C320.08 361.64 319.17 361.92 318.25 362.17C317.34 362.42 316.41 362.65 315.48 362.85C314.55 363.05 313.62 363.22 312.68 363.37L287.69 367.91C286.17 368.02 284.65 368.21 283.14 368.49C281.64 368.77 280.15 369.13 278.69 369.58C277.22 370.02 275.79 370.55 274.38 371.16C272.98 371.76 271.61 372.45 270.28 373.21C269.52 373.68 268.81 374.23 268.16 374.85C267.52 375.48 266.95 376.17 266.46 376.92C265.97 377.67 265.56 378.48 265.25 379.32C264.94 380.16 264.72 381.03 264.6 381.92C264.41 382.74 264.35 383.6 264.42 384.44C264.5 385.29 264.71 386.12 265.05 386.9C265.39 387.68 265.85 388.4 266.42 389.03C266.99 389.66 267.65 390.2 268.39 390.62C269.59 391.29 270.84 391.88 272.12 392.36C273.41 392.85 274.73 393.23 276.08 393.52C277.43 393.81 278.79 394 280.16 394.08C281.54 394.17 282.91 394.15 284.29 394.03C285.7 394 287.1 393.93 288.51 393.8C289.91 393.68 291.31 393.5 292.7 393.28C294.1 393.06 295.48 392.79 296.86 392.47C298.23 392.16 299.59 391.79 300.94 391.38C302.18 391.02 303.4 390.59 304.6 390.11C305.8 389.62 306.97 389.07 308.12 388.47C309.26 387.87 310.37 387.21 311.45 386.49C312.53 385.78 313.57 385.01 314.57 384.19C315.23 383.61 315.85 382.99 316.42 382.32C317 381.66 317.53 380.96 318 380.22C318.48 379.49 318.91 378.72 319.29 377.93C319.66 377.13 319.98 376.32 320.25 375.48C320.71 374.27 321.12 373.04 321.49 371.79C321.87 370.55 322.2 369.29 322.48 368.03C322.77 366.76 323.01 365.49 323.2 364.2C323.4 362.92 323.55 361.63 323.65 360.34C322.77 360.69 321.88 361.03 320.98 361.33Z" />
	<path id="Layer" class="shp1" d="M588.63 421.29L612.1 289.16L676.83 289.16L653.36 421.29L588.63 421.29ZM615.89 258.88C617.78 247.9 634.82 239.19 654.12 239.19C673.43 239.19 687.05 247.9 685.16 258.88C683.27 269.86 666.24 278.56 646.93 278.56C627.62 278.56 614 269.48 615.89 258.88Z" />
	<path id="Layer" fill-rule="evenodd" class="shp1" d="M975.5 317.18C975.13 323.61 973.99 329.67 972.48 339.14L960.74 405.39C960.43 406.71 960.35 408.08 960.49 409.43C960.63 410.78 961 412.1 961.58 413.32C962.16 414.55 962.94 415.68 963.9 416.64C964.85 417.61 965.96 418.42 967.18 419.02L967.18 421.29L899.42 421.29L899.42 404.25C896.87 405.77 894.28 407.2 891.64 408.54C889 409.89 886.32 411.15 883.6 412.32C880.88 413.49 878.12 414.57 875.33 415.56C872.54 416.55 869.71 417.45 866.86 418.26C864.21 418.94 861.53 419.53 858.84 420.03C856.14 420.53 853.43 420.93 850.71 421.25C847.99 421.57 845.26 421.79 842.52 421.92C839.79 422.06 837.05 422.1 834.31 422.04C812.73 422.04 800.24 419.77 791.53 412.2C782.83 404.63 778.66 399.33 779.04 388.73C779.22 386.93 779.53 385.14 779.98 383.39C780.43 381.64 781 379.92 781.71 378.25C782.41 376.59 783.24 374.98 784.19 373.44C785.14 371.89 786.2 370.43 787.37 369.04C788.6 367.7 789.91 366.42 791.28 365.21C792.65 364.01 794.09 362.88 795.58 361.83C797.08 360.78 798.63 359.81 800.23 358.93C801.83 358.05 803.47 357.25 805.16 356.55C807.29 355.6 809.46 354.72 811.65 353.93C813.85 353.13 816.07 352.42 818.32 351.78C820.57 351.15 822.84 350.6 825.13 350.13C827.42 349.66 829.72 349.28 832.04 348.98C844.15 347.09 860.81 345.19 883.14 343.3C885.01 343.12 886.88 342.88 888.73 342.58C890.59 342.29 892.44 341.93 894.27 341.52C896.11 341.11 897.93 340.64 899.73 340.12C901.54 339.59 903.33 339.01 905.1 338.38C909.64 336.49 911.53 334.59 912.29 330.81C913.04 327.02 911.53 320.21 902.45 318.31C878.22 313.39 832.79 321.34 809.32 327.02L821.82 292.95C829.29 291.76 836.8 290.71 844.31 289.8C851.83 288.89 859.36 288.12 866.91 287.48C874.46 286.85 882.02 286.36 889.58 286.01C897.14 285.66 904.72 285.45 912.29 285.38C960.36 285.76 975.88 299.76 975.5 317.18ZM894.87 363.74L869.51 368.29C868.02 368.41 866.53 368.61 865.06 368.9C863.59 369.18 862.13 369.55 860.7 370C859.27 370.44 857.87 370.97 856.49 371.57C855.12 372.17 853.78 372.84 852.48 373.59C851.72 374.01 851.01 374.53 850.37 375.12C849.73 375.71 849.16 376.37 848.66 377.09C848.17 377.81 847.77 378.58 847.45 379.39C847.14 380.21 846.92 381.05 846.8 381.92C846.57 382.75 846.48 383.62 846.52 384.48C846.56 385.34 846.74 386.2 847.04 387.01C847.35 387.82 847.78 388.57 848.31 389.25C848.85 389.93 849.49 390.52 850.21 391C853.61 393.27 858.91 394.03 866.48 394.03C867.89 394.03 869.29 393.99 870.7 393.9C872.1 393.8 873.5 393.66 874.89 393.47C876.28 393.28 877.67 393.04 879.04 392.76C880.42 392.47 881.79 392.14 883.14 391.76C884.38 391.4 885.6 390.97 886.8 390.48C888 390 889.17 389.45 890.32 388.85C891.46 388.25 892.57 387.58 893.65 386.87C894.73 386.15 895.77 385.39 896.77 384.57C897.43 383.99 898.05 383.36 898.62 382.7C899.2 382.04 899.72 381.34 900.2 380.6C900.68 379.87 901.11 379.1 901.49 378.31C901.86 377.51 902.18 376.7 902.45 375.86C902.84 374.63 903.21 373.38 903.56 372.14C903.9 370.89 904.21 369.63 904.5 368.37C904.78 367.1 905.04 365.83 905.26 364.56C905.49 363.28 905.69 362 905.85 360.72L894.87 363.74Z" />
	<path id="Layer" class="shp1" d="M187.76 373.97C183.35 374.95 178.92 375.81 174.46 376.54C170.01 377.27 165.53 377.88 161.04 378.35C156.55 378.82 152.05 379.17 147.54 379.39C143.03 379.6 138.52 379.69 134 379.64C103.34 379.64 78.74 364.5 80.25 336.11C81.01 317.56 103.34 278.19 159.37 278.19C163.77 278.08 168.18 278.3 172.56 278.83C176.94 279.36 181.27 280.2 185.53 281.36C189.78 282.51 193.95 283.97 198 285.71C202.04 287.46 205.96 289.5 209.71 291.81L217.66 246.01C212.63 244.01 207.49 242.28 202.28 240.83C197.06 239.37 191.77 238.2 186.43 237.31C181.09 236.42 175.7 235.81 170.3 235.5C164.89 235.18 159.48 235.15 154.07 235.41C80.25 236.16 9.46 269.48 0.76 337.62C-7.95 405.77 76.47 424.32 113.94 424.32C135.52 424.32 158.23 423.18 179.05 421.29L187.76 373.97Z" />
	<path id="Layer" class="shp1" d="M712.42 288.41L716.96 261.53L784.34 247.14L777.15 288.41L810.46 288.41L804.02 315.29L771.85 315.29L752.54 421.29L687.05 421.29L706.74 315.29L682.13 315.29L687.05 288.79L712.42 288.79L712.42 288.41Z" />
	<path id="Layer" class="shp1" d="M1040.99 421.29L975.13 421.29L1008.44 237.3L1072.41 238.81L1040.99 421.29L1040.99 421.29Z" />
	<path id="Layer" fill-rule="evenodd" class="shp1" d="M385.73 467.1L417.15 289.92L473.94 289.92L469.39 312.64C470.94 310.7 472.61 308.88 474.41 307.18C476.21 305.48 478.12 303.9 480.13 302.46C482.15 301.02 484.26 299.73 486.45 298.58C488.64 297.43 490.91 296.44 493.24 295.6C496.15 294.41 499.11 293.36 502.12 292.44C505.13 291.53 508.17 290.75 511.25 290.12C514.33 289.48 517.43 288.99 520.56 288.64C523.68 288.29 526.82 288.09 529.96 288.03C544.72 288.03 553.81 288.79 564.79 294.46C567.36 295.76 569.81 297.28 572.1 299.02C574.4 300.76 576.53 302.71 578.47 304.84C580.4 306.98 582.14 309.28 583.66 311.73C585.17 314.18 586.46 316.76 587.5 319.45C588.61 322.29 589.51 325.21 590.2 328.18C590.89 331.16 591.36 334.17 591.62 337.21C591.87 340.25 591.91 343.31 591.73 346.35C591.54 349.4 591.14 352.43 590.53 355.42C589.74 360.57 588.44 365.63 586.65 370.52C584.86 375.41 582.59 380.12 579.87 384.56C577.14 389 573.98 393.16 570.43 396.98C566.88 400.79 562.96 404.24 558.73 407.28C541.32 419.77 525.8 423.18 503.46 423.18C501.77 423.21 500.09 423.19 498.4 423.11C496.72 423.03 495.03 422.89 493.36 422.7C491.68 422.51 490.01 422.27 488.35 421.97C486.69 421.67 485.04 421.32 483.4 420.91C482.27 420.66 481.16 420.38 480.05 420.05C478.95 419.72 477.85 419.35 476.78 418.94C475.7 418.52 474.64 418.07 473.6 417.58C472.55 417.09 471.53 416.56 470.53 415.99C469.55 415.28 468.59 414.54 467.66 413.78C466.72 413.01 465.81 412.22 464.92 411.39C464.04 410.57 463.18 409.72 462.35 408.85C461.51 407.97 460.71 407.07 459.93 406.14L449.33 467.1L385.73 467.1ZM503.46 320.21C501.4 320.21 499.35 320.38 497.31 320.71C495.28 321.04 493.27 321.53 491.32 322.17C489.36 322.81 487.46 323.6 485.62 324.54C483.79 325.48 482.03 326.56 480.37 327.78C478.67 329.2 477.11 330.77 475.7 332.48C474.29 334.18 473.05 336.02 471.98 337.96C470.92 339.9 470.03 341.93 469.34 344.03C468.66 346.14 468.17 348.3 467.88 350.49C465.61 362.23 466.74 370.18 471.29 375.48C472.6 376.76 474.05 377.91 475.61 378.89C477.16 379.88 478.81 380.7 480.53 381.35C482.25 382 484.03 382.47 485.85 382.76C487.67 383.04 489.51 383.14 491.35 383.05C492.78 383.08 494.21 383.03 495.63 382.9C497.05 382.77 498.47 382.56 499.87 382.28C501.27 381.99 502.65 381.63 504.01 381.19C505.37 380.75 506.7 380.23 508 379.64C509.26 379.06 510.47 378.4 511.64 377.65C512.8 376.91 513.92 376.09 514.97 375.19C516.03 374.3 517.02 373.33 517.94 372.31C518.87 371.28 519.72 370.19 520.5 369.04C521.38 367.73 522.19 366.38 522.94 364.98C523.69 363.59 524.36 362.16 524.97 360.7C525.57 359.24 526.1 357.75 526.56 356.23C527.01 354.72 527.39 353.18 527.69 351.63C529.58 341.03 528.07 333.46 523.15 328.16C521.89 326.83 520.5 325.64 518.99 324.6C517.48 323.57 515.87 322.71 514.18 322.02C512.48 321.34 510.72 320.84 508.92 320.54C507.12 320.23 505.29 320.12 503.46 320.21Z" />
	<path id="Layer" fill-rule="evenodd" class="shp1" d="M1563.38 417.88L1568.3 421.29C1555.43 447.41 1529.31 468.61 1498.27 468.61C1472.91 468.61 1452.47 451.95 1451.33 420.53C1449.06 363.74 1502.44 311.12 1545.59 311.12C1564.14 311.12 1581.55 319.45 1582.31 339.52C1583.82 384.57 1520.61 398.19 1478.97 398.95C1478.63 400.31 1478.34 401.68 1478.1 403.06C1477.87 404.44 1477.69 405.83 1477.56 407.22C1477.44 408.62 1477.36 410.01 1477.34 411.41C1477.33 412.81 1477.36 414.21 1477.45 415.61C1478.21 434.54 1489.57 450.06 1512.66 450.06C1535.75 450.06 1553.16 433.78 1563.38 417.88ZM1557.7 336.49C1557.32 325.89 1552.02 318.69 1541.05 318.69C1514.55 318.69 1486.54 370.56 1481.62 391.38C1524.77 391.38 1558.84 365.64 1557.7 336.49Z" />
	<path id="Layer" class="shp1" d="M1304.46 334.97L1319.22 333.46C1324.14 333.46 1328.31 334.59 1328.68 339.14C1329.06 343.68 1323.76 361.85 1322.63 366.77L1312.41 411.07C1308.62 429.24 1304.08 448.17 1300.29 463.31L1326.03 463.31L1340.42 392.89C1385.09 346.71 1402.12 331.56 1412.34 331.56C1413.47 331.45 1414.6 331.58 1415.67 331.96C1416.73 332.33 1417.7 332.94 1418.5 333.74C1419.29 334.54 1419.9 335.51 1420.28 336.57C1420.66 337.64 1420.79 338.77 1420.67 339.89C1421.05 347.84 1415.75 366.39 1414.24 371.69L1399.09 422.8C1396.07 434.54 1393.42 444.76 1393.79 452.33C1394.17 459.9 1400.99 468.61 1410.83 468.61C1429.76 468.61 1443.76 448.92 1455.5 429.62L1452.09 423.18C1447.17 430.75 1436.19 447.79 1427.11 447.79C1424.46 447.79 1421.81 445.9 1421.81 441.35C1421.88 439.58 1422.02 437.82 1422.22 436.06C1422.41 434.3 1422.67 432.55 1422.99 430.81C1423.3 429.07 1423.68 427.34 1424.11 425.63C1424.55 423.91 1425.04 422.21 1425.59 420.53L1442.25 360.34C1446.41 343.68 1448.68 333.08 1448.68 327.4C1448.68 321.72 1441.49 311.12 1431.65 311.12C1414.61 311.12 1391.9 323.61 1344.2 378.51L1343.45 378.51L1349.5 351.63C1352.91 336.87 1355.94 321.72 1358.97 311.12C1354.49 312.71 1349.98 314.23 1345.44 315.68C1340.91 317.12 1336.36 318.49 1331.78 319.79C1327.2 321.08 1322.6 322.3 1317.99 323.44C1313.37 324.59 1308.73 325.65 1304.08 326.64L1304.46 334.97Z" />
</svg>